<?xml version="1.0" encoding="UTF-8" standalone="no"?><svg xmlns="http://www.w3.org/2000/svg" xmlns:xlink="http://www.w3.org/1999/xlink" contentStyleType="text/css" height="424px" preserveAspectRatio="none" style="width:2359px;height:424px;background:#FFFFFF;" version="1.1" viewBox="0 0 2359 424" width="2359px" zoomAndPan="magnify"><defs/><g><rect fill="#F1F1F1" height="36.2969" rx="12.5" ry="12.5" style="stroke:#181818;stroke-width:1.5;" width="47" x="10" y="193.1133"/><text fill="#000000" font-family="sans-serif" font-size="14" lengthAdjust="spacing" textLength="27" x="20" y="216.1084">TLB</text><text fill="#000000" font-family="sans-serif" font-size="14" lengthAdjust="spacing" textLength="205" x="110" y="23.9951">Translation Lookaside Buffer</text><path d="M57,211.2617 L67,211.2617 C82,211.2617 82,19.1484 97,19.1484 L107,19.1484 " fill="none" style="stroke:#181818;stroke-width:1.0;"/><text fill="#000000" font-family="sans-serif" font-size="14" lengthAdjust="spacing" textLength="87" x="110" y="42.292">part of MMU</text><path d="M57,211.2617 L67,211.2617 C82,211.2617 82,37.4453 97,37.4453 L107,37.4453 " fill="none" style="stroke:#181818;stroke-width:1.0;"/><rect fill="#F1F1F1" height="36.2969" rx="12.5" ry="12.5" style="stroke:#181818;stroke-width:1.5;" width="709" x="107" y="56.5938"/><text fill="#000000" font-family="sans-serif" font-size="14" lengthAdjust="spacing" textLength="689" x="117" y="79.5889">a list of mappings from virtual to physical address space in hardware (also holds permission bits)</text><path d="M57,211.2617 L67,211.2617 C82,211.2617 82,74.7422 97,74.7422 L107,74.7422 " fill="none" style="stroke:#181818;stroke-width:1.0;"/><rect fill="#F1F1F1" height="36.2969" rx="12.5" ry="12.5" style="stroke:#181818;stroke-width:1.5;" width="472" x="107" y="112.8906"/><text fill="#000000" font-family="sans-serif" font-size="14" lengthAdjust="spacing" textLength="452" x="117" y="135.8857">a fixed number of entries(slots) in the TLB, which varies by CPU</text><path d="M57,211.2617 L67,211.2617 C82,211.2617 82,131.0391 97,131.0391 L107,131.0391 " fill="none" style="stroke:#181818;stroke-width:1.0;"/><rect fill="#F1F1F1" height="36.2969" rx="12.5" ry="12.5" style="stroke:#181818;stroke-width:1.5;" width="600" x="107" y="169.1875"/><text fill="#000000" font-family="sans-serif" font-size="14" lengthAdjust="spacing" textLength="580" x="117" y="192.1826">How it works? TLB is consulted by the MMU when the CPU access a virtual address</text><rect fill="#F1F1F1" height="36.2969" rx="12.5" ry="12.5" style="stroke:#181818;stroke-width:1.5;" width="707" x="757" y="141.0391"/><text fill="#000000" font-family="sans-serif" font-size="14" lengthAdjust="spacing" textLength="687" x="767" y="164.0342">if the virtual address is in the TLB, the MMU can look up the physical resource (RAM or hardware)</text><path d="M707,187.3359 L717,187.3359 C732,187.3359 732,159.1875 747,159.1875 L757,159.1875 " fill="none" style="stroke:#181818;stroke-width:1.0;"/><rect fill="#F1F1F1" height="36.2969" rx="12.5" ry="12.5" style="stroke:#181818;stroke-width:1.5;" width="1051" x="757" y="197.3359"/><text fill="#000000" font-family="sans-serif" font-size="14" lengthAdjust="spacing" textLength="147" x="767" y="220.3311">if the virtual address</text><text fill="#000000" font-family="sans-serif" font-size="14" font-weight="bold" lengthAdjust="spacing" textLength="47" x="918" y="220.3311">is not</text><text fill="#000000" font-family="sans-serif" font-size="14" lengthAdjust="spacing" textLength="252" x="969" y="220.3311">in the TLB, the MMU will generate a</text><text fill="#000000" font-family="sans-serif" font-size="14" font-weight="bold" lengthAdjust="spacing" textLength="84" x="1225" y="220.3311">page fault</text><text fill="#000000" font-family="sans-serif" font-size="14" lengthAdjust="spacing" textLength="485" x="1313" y="220.3311">exception and interrupt the CPU. (same as insufficient permissions)</text><path d="M707,187.3359 L717,187.3359 C732,187.3359 732,215.4844 747,215.4844 L757,215.4844 " fill="none" style="stroke:#181818;stroke-width:1.0;"/><path d="M57,211.2617 L67,211.2617 C82,211.2617 82,187.3359 97,187.3359 L107,187.3359 " fill="none" style="stroke:#181818;stroke-width:1.0;"/><rect fill="#F1F1F1" height="36.2969" rx="12.5" ry="12.5" style="stroke:#181818;stroke-width:1.5;" width="134" x="107" y="309.9297"/><text fill="#000000" font-family="sans-serif" font-size="14" lengthAdjust="spacing" textLength="114" x="117" y="332.9248">Shared memory</text><rect fill="#F1F1F1" height="36.2969" rx="12.5" ry="12.5" style="stroke:#181818;stroke-width:1.5;" width="239" x="291" y="309.9297"/><text fill="#000000" font-family="sans-serif" font-size="14" lengthAdjust="spacing" textLength="219" x="301" y="332.9248">Easily implemented with MMU.</text><rect fill="#F1F1F1" height="36.2969" rx="12.5" ry="12.5" style="stroke:#181818;stroke-width:1.5;" width="499" x="580" y="253.6328"/><text fill="#000000" font-family="sans-serif" font-size="14" lengthAdjust="spacing" textLength="479" x="590" y="276.6279">Simply map the same physical frame into two different processes.</text><path d="M530,328.0781 L540,328.0781 C555,328.0781 555,271.7813 570,271.7813 L580,271.7813 " fill="none" style="stroke:#181818;stroke-width:1.0;"/><rect fill="#F1F1F1" height="36.2969" rx="12.5" ry="12.5" style="stroke:#181818;stroke-width:1.5;" width="359" x="580" y="338.0781"/><text fill="#000000" font-family="sans-serif" font-size="14" lengthAdjust="spacing" textLength="339" x="590" y="361.0732">The virtual addresses need not to be the same.</text><rect fill="#F1F1F1" height="36.2969" rx="12.5" ry="12.5" style="stroke:#181818;stroke-width:1.5;" width="1003" x="989" y="309.9297"/><text fill="#000000" font-family="sans-serif" font-size="14" lengthAdjust="spacing" textLength="983" x="999" y="332.9248">If pointers to values inside a shared memory region are used, it might be important for them to have the same virtual addresses, though.</text><path d="M939,356.2266 L949,356.2266 C964,356.2266 964,328.0781 979,328.0781 L989,328.0781 " fill="none" style="stroke:#181818;stroke-width:1.0;"/><rect fill="#F1F1F1" height="36.2969" rx="12.5" ry="12.5" style="stroke:#181818;stroke-width:1.5;" width="1358" x="989" y="366.2266"/><text fill="#000000" font-family="sans-serif" font-size="14" font-weight="bold" lengthAdjust="spacing" textLength="63" x="999" y="389.2217">mmap()</text><text fill="#000000" font-family="sans-serif" font-size="14" lengthAdjust="spacing" textLength="1271" x="1066" y="389.2217">system call allows the user space process to request a specific virtual address to map the shared memory region. (the kernel may not be able to grant a mappint at this address)</text><path d="M939,356.2266 L949,356.2266 C964,356.2266 964,384.375 979,384.375 L989,384.375 " fill="none" style="stroke:#181818;stroke-width:1.0;"/><path d="M530,328.0781 L540,328.0781 C555,328.0781 555,356.2266 570,356.2266 L580,356.2266 " fill="none" style="stroke:#181818;stroke-width:1.0;"/><path d="M241,328.0781 L251,328.0781 C266,328.0781 266,328.0781 281,328.0781 L291,328.0781 " fill="none" style="stroke:#181818;stroke-width:1.0;"/><path d="M57,211.2617 L67,211.2617 C82,211.2617 82,328.0781 97,328.0781 L107,328.0781 " fill="none" style="stroke:#181818;stroke-width:1.0;"/><!--MD5=[d9e325a4a06272d998ded882e9b97e70]
@startmindmap
+ TLB
++_ Translation Lookaside Buffer
++_ part of MMU
++ a list of mappings from virtual to physical address space in hardware (also holds permission bits)
++ a fixed number of entries(slots) in the TLB, which varies by CPU
++ How it works? TLB is consulted by the MMU when the CPU access a virtual address
+++ if the virtual address is in the TLB, the MMU can look up the physical resource (RAM or hardware)
+++ if the virtual address **is not** in the TLB, the MMU will generate a **page fault** exception and interrupt the CPU. (same as insufficient permissions)
++ Shared memory
+++ Easily implemented with MMU.
++++ Simply map the same physical frame into two different processes.
++++ The virtual addresses need not to be the same.
+++++ If pointers to values inside a shared memory region are used, it might be important for them to have the same virtual addresses, though.
+++++ **mmap()** system call allows the user space process to request a specific virtual address to map the shared memory region. (the kernel may not be able to grant a mappint at this address)
@endmindmap

PlantUML version 1.2022.4beta2(Unknown compile time)
(GPL source distribution)
Java Runtime: Java(TM) SE Runtime Environment
JVM: Java HotSpot(TM) 64-Bit Server VM
Default Encoding: UTF-8
Language: en
Country: US
--></g></svg>