<?xml version="1.0" encoding="UTF-8" standalone="no"?><svg xmlns="http://www.w3.org/2000/svg" xmlns:xlink="http://www.w3.org/1999/xlink" contentStyleType="text/css" height="1645px" preserveAspectRatio="none" style="width:2781px;height:1645px;background:#FFFFFF;" version="1.1" viewBox="0 0 2781 1645" width="2781px" zoomAndPan="magnify"><defs/><g><rect fill="#F1F1F1" height="36.2969" rx="12.5" ry="12.5" style="stroke:#181818;stroke-width:1.5;" width="223" x="10" y="803.482"/><text fill="#000000" font-family="sans-serif" font-size="14" lengthAdjust="spacing" textLength="203" x="20" y="826.4771">Virtual Addresses（3 kinds）</text><rect fill="#F1F1F1" height="36.2969" rx="12.5" ry="12.5" style="stroke:#181818;stroke-width:1.5;" width="67" x="283" y="550.1461"/><text fill="#000000" font-family="sans-serif" font-size="14" lengthAdjust="spacing" textLength="47" x="293" y="573.1412">Kernel</text><rect fill="#ADD8E6" height="36.2969" rx="12.5" ry="12.5" style="stroke:#181818;stroke-width:1.5;" width="182" x="400" y="409.4039"/><text fill="#000000" font-family="sans-serif" font-size="14" lengthAdjust="spacing" textLength="162" x="410" y="432.399">Kernel Logical Address</text><rect fill="#F1F1F1" height="36.2969" rx="12.5" ry="12.5" style="stroke:#181818;stroke-width:1.5;" width="245" x="632" y="48.4"/><text fill="#000000" font-family="sans-serif" font-size="14" lengthAdjust="spacing" textLength="225" x="642" y="71.3951">Normal address space of kernel</text><rect fill="#FFE4B5" height="36.7999" rx="12.5" ry="12.5" style="stroke:#181818;stroke-width:1.5;" width="92" x="927" y="20"/><text fill="#000000" font-family="monospace" font-size="14" lengthAdjust="spacing" textLength="72" x="937" y="42.9639">kmalloc()</text><path d="M877,66.5484 L887,66.5484 C902,66.5484 902,38.4 917,38.4 L927,38.4 " fill="none" style="stroke:#181818;stroke-width:1.0;"/><rect fill="#F1F1F1" height="36.2969" rx="12.5" ry="12.5" style="stroke:#181818;stroke-width:1.5;" width="216" x="927" y="76.7999"/><text fill="#000000" font-family="sans-serif" font-size="14" lengthAdjust="spacing" textLength="196" x="937" y="99.795">Kernel stacks (per process)</text><path d="M877,66.5484 L887,66.5484 C902,66.5484 902,94.9484 917,94.9484 L927,94.9484 " fill="none" style="stroke:#181818;stroke-width:1.0;"/><path d="M582,427.5523 L592,427.5523 C607,427.5523 607,66.5484 622,66.5484 L632,66.5484 " fill="none" style="stroke:#181818;stroke-width:1.0;"/><rect fill="#F1F1F1" height="36.2969" rx="12.5" ry="12.5" style="stroke:#181818;stroke-width:1.5;" width="344" x="632" y="170.3937"/><text fill="#000000" font-family="sans-serif" font-size="14" lengthAdjust="spacing" textLength="10" x="642" y="193.3888">A</text><text fill="#000000" font-family="sans-serif" font-size="14" font-weight="bold" lengthAdjust="spacing" textLength="95" x="656" y="193.3888">fixed offset</text><text fill="#000000" font-family="sans-serif" font-size="14" lengthAdjust="spacing" textLength="211" x="755" y="193.3888">from their physical addresses</text><text fill="#000000" font-family="sans-serif" font-size="14" lengthAdjust="spacing" textLength="280" x="1029" y="137.0919">Virt: 0xc0000000 -&gt; Phys: 0x00000000</text><path d="M976,188.5421 L986,188.5421 C1001,188.5421 1001,132.2452 1016,132.2452 L1026,132.2452 " fill="none" style="stroke:#181818;stroke-width:1.0;"/><rect fill="#F1F1F1" height="36.2969" rx="12.5" ry="12.5" style="stroke:#181818;stroke-width:1.5;" width="506" x="1026" y="151.3937"/><text fill="#000000" font-family="sans-serif" font-size="14" lengthAdjust="spacing" textLength="486" x="1036" y="174.3888">virtually-contiguous regions are by nature also physically contiguous</text><path d="M976,188.5421 L986,188.5421 C1001,188.5421 1001,169.5421 1016,169.5421 L1026,169.5421 " fill="none" style="stroke:#181818;stroke-width:1.0;"/><rect fill="#F1F1F1" height="36.2969" rx="12.5" ry="12.5" style="stroke:#181818;stroke-width:1.5;" width="646" x="1026" y="207.6906"/><text fill="#000000" font-family="sans-serif" font-size="14" lengthAdjust="spacing" textLength="517" x="1036" y="230.6857">combined with the inablity to be swapped out, makes them suitable for</text><text fill="#000000" font-family="sans-serif" font-size="14" font-weight="bold" lengthAdjust="spacing" textLength="36" x="1557" y="230.6857">DMA</text><text fill="#000000" font-family="sans-serif" font-size="14" lengthAdjust="spacing" textLength="65" x="1597" y="230.6857">transfers</text><path d="M976,188.5421 L986,188.5421 C1001,188.5421 1001,225.839 1016,225.839 L1026,225.839 " fill="none" style="stroke:#181818;stroke-width:1.0;"/><path d="M582,427.5523 L592,427.5523 C607,427.5523 607,188.5421 622,188.5421 L632,188.5421 " fill="none" style="stroke:#181818;stroke-width:1.0;"/><rect fill="#F1F1F1" height="36.2969" rx="12.5" ry="12.5" style="stroke:#181818;stroke-width:1.5;" width="341" x="632" y="292.1359"/><text fill="#000000" font-family="sans-serif" font-size="14" lengthAdjust="spacing" textLength="321" x="642" y="315.131">easy to convert between virtual and physical</text><rect fill="#F1F1F1" height="36.2969" rx="12.5" ry="12.5" style="stroke:#181818;stroke-width:1.5;" width="76" x="1023" y="263.9874"/><text fill="#000000" font-family="sans-serif" font-size="14" font-weight="bold" lengthAdjust="spacing" textLength="56" x="1033" y="286.9825">__pa(x)</text><path d="M973,310.2843 L983,310.2843 C998,310.2843 998,282.1359 1013,282.1359 L1023,282.1359 " fill="none" style="stroke:#181818;stroke-width:1.0;"/><rect fill="#F1F1F1" height="36.2969" rx="12.5" ry="12.5" style="stroke:#181818;stroke-width:1.5;" width="75" x="1023" y="320.2843"/><text fill="#000000" font-family="sans-serif" font-size="14" font-weight="bold" lengthAdjust="spacing" textLength="55" x="1033" y="343.2794">__va(x)</text><path d="M973,310.2843 L983,310.2843 C998,310.2843 998,338.4327 1013,338.4327 L1023,338.4327 " fill="none" style="stroke:#181818;stroke-width:1.0;"/><path d="M582,427.5523 L592,427.5523 C607,427.5523 607,310.2843 622,310.2843 L632,310.2843 " fill="none" style="stroke:#181818;stroke-width:1.0;"/><rect fill="#F1F1F1" height="36.2969" rx="12.5" ry="12.5" style="stroke:#181818;stroke-width:1.5;" width="211" x="632" y="348.4327"/><text fill="#000000" font-family="sans-serif" font-size="14" lengthAdjust="spacing" textLength="191" x="642" y="371.4279">Can never be swapped out</text><path d="M582,427.5523 L592,427.5523 C607,427.5523 607,366.5812 622,366.5812 L632,366.5812 " fill="none" style="stroke:#181818;stroke-width:1.0;"/><rect fill="#F1F1F1" height="36.2969" rx="12.5" ry="12.5" style="stroke:#181818;stroke-width:1.5;" width="82" x="632" y="601.7687"/><text fill="#000000" font-family="sans-serif" font-size="14" lengthAdjust="spacing" textLength="62" x="642" y="624.7638">Mapping</text><rect fill="#F1F1F1" height="36.2969" rx="12.5" ry="12.5" style="stroke:#181818;stroke-width:1.5;" width="62" x="764" y="545.4718"/><text fill="#000000" font-family="sans-serif" font-size="14" lengthAdjust="spacing" textLength="42" x="774" y="568.4669">32 bit</text><rect fill="#F1F1F1" height="36.2969" rx="12.5" ry="12.5" style="stroke:#181818;stroke-width:1.5;" width="338" x="876" y="404.7296"/><text fill="#000000" font-family="sans-serif" font-size="14" lengthAdjust="spacing" textLength="318" x="886" y="427.7247">for small-memory systems (below 1GB RAM)</text><rect fill="#F1F1F1" height="36.2969" rx="12.5" ry="12.5" style="stroke:#181818;stroke-width:1.5;" width="750" x="1264" y="404.7296"/><text fill="#000000" font-family="sans-serif" font-size="14" lengthAdjust="spacing" textLength="533" x="1274" y="427.7247">Kernel Logical address space starts at PAGE_OFFSET and goes through the</text><text fill="#000000" font-family="sans-serif" font-size="14" font-weight="bold" lengthAdjust="spacing" textLength="193" x="1811" y="427.7247">end of physical memory</text><path d="M1214,422.8781 L1224,422.8781 C1239,422.8781 1239,422.8781 1254,422.8781 L1264,422.8781 " fill="none" style="stroke:#181818;stroke-width:1.0;"/><path d="M826,563.6202 L836,563.6202 C851,563.6202 851,422.8781 866,422.8781 L876,422.8781 " fill="none" style="stroke:#181818;stroke-width:1.0;"/><rect fill="#F1F1F1" height="36.2969" rx="12.5" ry="12.5" style="stroke:#181818;stroke-width:1.5;" width="369" x="876" y="573.6202"/><text fill="#000000" font-family="sans-serif" font-size="14" lengthAdjust="spacing" textLength="349" x="886" y="596.6154">for large-memory systems (more than 1GB RAM)</text><rect fill="#F1F1F1" height="36.2969" rx="12.5" ry="12.5" style="stroke:#181818;stroke-width:1.5;" width="526" x="1295" y="461.0265"/><text fill="#000000" font-family="sans-serif" font-size="14" lengthAdjust="spacing" textLength="506" x="1305" y="484.0216">not all of the physical RAM can be mapped into kernel's address space</text><path d="M1245,591.7687 L1255,591.7687 C1270,591.7687 1270,479.1749 1285,479.1749 L1295,479.1749 " fill="none" style="stroke:#181818;stroke-width:1.0;"/><rect fill="#F1F1F1" height="36.2969" rx="12.5" ry="12.5" style="stroke:#181818;stroke-width:1.5;" width="533" x="1295" y="517.3234"/><text fill="#000000" font-family="sans-serif" font-size="14" lengthAdjust="spacing" textLength="513" x="1305" y="540.3185">kernel address space is the top 1GB of virtual address space, by default</text><path d="M1245,591.7687 L1255,591.7687 C1270,591.7687 1270,535.4718 1285,535.4718 L1295,535.4718 " fill="none" style="stroke:#181818;stroke-width:1.0;"/><rect fill="#F1F1F1" height="36.2969" rx="12.5" ry="12.5" style="stroke:#181818;stroke-width:1.5;" width="683" x="1295" y="573.6202"/><text fill="#000000" font-family="sans-serif" font-size="14" lengthAdjust="spacing" textLength="663" x="1305" y="596.6154">~104 MB is reserved at the top of the kernel's memory space for non-contiguous allocations</text><path d="M1245,591.7687 L1255,591.7687 C1270,591.7687 1270,591.7687 1285,591.7687 L1295,591.7687 " fill="none" style="stroke:#181818;stroke-width:1.0;"/><rect fill="#F1F1F1" height="36.2969" rx="12.5" ry="12.5" style="stroke:#181818;stroke-width:1.5;" width="755" x="1295" y="629.9171"/><text fill="#000000" font-family="sans-serif" font-size="14" lengthAdjust="spacing" textLength="61" x="1305" y="652.9122">Only the</text><text fill="#000000" font-family="sans-serif" font-size="14" font-weight="bold" lengthAdjust="spacing" textLength="101" x="1370" y="652.9122">bottom part</text><text fill="#000000" font-family="sans-serif" font-size="14" lengthAdjust="spacing" textLength="565" x="1475" y="652.9122">of physical RAM (896MB, 0xc0000000 ~ 0xf800000) has a kernel logical address</text><rect fill="#F1F1F1" height="36.2969" rx="12.5" ry="12.5" style="stroke:#181818;stroke-width:1.5;" width="516" x="2100" y="573.6202"/><text fill="#000000" font-family="sans-serif" font-size="14" lengthAdjust="spacing" textLength="496" x="2110" y="596.6154">this memory is called Low Memory (phys: 0x00000000 ~ 0xf8000000)</text><path d="M2050,648.0656 L2060,648.0656 C2075,648.0656 2075,591.7687 2090,591.7687 L2100,591.7687 " fill="none" style="stroke:#181818;stroke-width:1.0;"/><rect fill="#F1F1F1" height="36.2969" rx="12.5" ry="12.5" style="stroke:#181818;stroke-width:1.5;" width="242" x="2100" y="658.0656"/><text fill="#000000" font-family="sans-serif" font-size="14" lengthAdjust="spacing" textLength="222" x="2110" y="681.0607">High memory: beyond ~896MB</text><rect fill="#F1F1F1" height="36.2969" rx="12.5" ry="12.5" style="stroke:#181818;stroke-width:1.5;" width="148" x="2392" y="629.9171"/><text fill="#000000" font-family="sans-serif" font-size="14" lengthAdjust="spacing" textLength="128" x="2402" y="652.9122">No logical address</text><path d="M2342,676.214 L2352,676.214 C2367,676.214 2367,648.0656 2382,648.0656 L2392,648.0656 " fill="none" style="stroke:#181818;stroke-width:1.0;"/><rect fill="#F1F1F1" height="36.2969" rx="12.5" ry="12.5" style="stroke:#181818;stroke-width:1.5;" width="377" x="2392" y="686.214"/><text fill="#000000" font-family="sans-serif" font-size="14" lengthAdjust="spacing" textLength="357" x="2402" y="709.2091">Not physically contiguous when used in the kernel</text><path d="M2342,676.214 L2352,676.214 C2367,676.214 2367,704.3624 2382,704.3624 L2392,704.3624 " fill="none" style="stroke:#181818;stroke-width:1.0;"/><path d="M2050,648.0656 L2060,648.0656 C2075,648.0656 2075,676.214 2090,676.214 L2100,676.214 " fill="none" style="stroke:#181818;stroke-width:1.0;"/><path d="M1245,591.7687 L1255,591.7687 C1270,591.7687 1270,648.0656 1285,648.0656 L1295,648.0656 " fill="none" style="stroke:#181818;stroke-width:1.0;"/><rect fill="#F1F1F1" height="36.2969" rx="12.5" ry="12.5" style="stroke:#181818;stroke-width:1.5;" width="533" x="1295" y="686.214"/><text fill="#000000" font-family="sans-serif" font-size="14" lengthAdjust="spacing" textLength="513" x="1305" y="709.2091">-&gt; 这种情况只会在32bit中出现，kernel virtual memory &lt; physical memory</text><path d="M1245,591.7687 L1255,591.7687 C1270,591.7687 1270,704.3624 1285,704.3624 L1295,704.3624 " fill="none" style="stroke:#181818;stroke-width:1.0;"/><path d="M826,563.6202 L836,563.6202 C851,563.6202 851,591.7687 866,591.7687 L876,591.7687 " fill="none" style="stroke:#181818;stroke-width:1.0;"/><path d="M714,619.9171 L724,619.9171 C739,619.9171 739,563.6202 754,563.6202 L764,563.6202 " fill="none" style="stroke:#181818;stroke-width:1.0;"/><rect fill="#F1F1F1" height="36.2969" rx="12.5" ry="12.5" style="stroke:#181818;stroke-width:1.5;" width="62" x="764" y="742.5109"/><text fill="#000000" font-family="sans-serif" font-size="14" lengthAdjust="spacing" textLength="42" x="774" y="765.506">64 bit</text><rect fill="#F1F1F1" height="36.2969" rx="12.5" ry="12.5" style="stroke:#181818;stroke-width:1.5;" width="788" x="876" y="742.5109"/><text fill="#000000" font-family="sans-serif" font-size="14" lengthAdjust="spacing" textLength="491" x="886" y="765.506">always enough kernel address space to accommodate all the RAM -&gt;</text><text fill="#000000" font-family="sans-serif" font-size="14" font-weight="bold" lengthAdjust="spacing" textLength="273" x="1381" y="765.506">那岂不是没必要用virtual address了？</text><path d="M826,760.6593 L836,760.6593 C851,760.6593 851,760.6593 866,760.6593 L876,760.6593 " fill="none" style="stroke:#181818;stroke-width:1.0;"/><path d="M714,619.9171 L724,619.9171 C739,619.9171 739,760.6593 754,760.6593 L764,760.6593 " fill="none" style="stroke:#181818;stroke-width:1.0;"/><rect fill="#F1F1F1" height="36.2969" rx="12.5" ry="12.5" style="stroke:#181818;stroke-width:1.5;" width="1092" x="764" y="798.8077"/><text fill="#000000" font-family="sans-serif" font-size="14" lengthAdjust="spacing" textLength="1072" x="774" y="821.8029">just beacause physical addresses could have a kernel logical address, it doesn't mean the kernel is actually using every byte of memory on the system</text><path d="M714,619.9171 L724,619.9171 C739,619.9171 739,816.9562 754,816.9562 L764,816.9562 " fill="none" style="stroke:#181818;stroke-width:1.0;"/><path d="M582,427.5523 L592,427.5523 C607,427.5523 607,619.9171 622,619.9171 L632,619.9171 " fill="none" style="stroke:#181818;stroke-width:1.0;"/><path d="M350,568.2945 L360,568.2945 C375,568.2945 375,427.5523 390,427.5523 L400,427.5523 " fill="none" style="stroke:#181818;stroke-width:1.0;"/><rect fill="#ADD8E6" height="36.2969" rx="12.5" ry="12.5" style="stroke:#181818;stroke-width:1.5;" width="179" x="400" y="967.6984"/><text fill="#000000" font-family="sans-serif" font-size="14" lengthAdjust="spacing" textLength="159" x="410" y="990.6935">Kernel Virtual Address</text><rect fill="#F1F1F1" height="36.2969" rx="12.5" ry="12.5" style="stroke:#181818;stroke-width:1.5;" width="160" x="629" y="855.1046"/><text fill="#000000" font-family="sans-serif" font-size="14" lengthAdjust="spacing" textLength="25" x="639" y="878.0997">the</text><text fill="#000000" font-family="sans-serif" font-size="14" font-weight="bold" lengthAdjust="spacing" textLength="76" x="668" y="878.0997">vmalloc()</text><text fill="#000000" font-family="sans-serif" font-size="14" lengthAdjust="spacing" textLength="31" x="748" y="878.0997">area</text><path d="M579,985.8468 L589,985.8468 C604,985.8468 604,873.2531 619,873.2531 L629,873.2531 " fill="none" style="stroke:#181818;stroke-width:1.0;"/><rect fill="#F1F1F1" height="36.2969" rx="12.5" ry="12.5" style="stroke:#181818;stroke-width:1.5;" width="79" x="629" y="995.8468"/><text fill="#000000" font-family="sans-serif" font-size="14" lengthAdjust="spacing" textLength="59" x="639" y="1018.8419">Used for</text><rect fill="#F1F1F1" height="36.2969" rx="12.5" ry="12.5" style="stroke:#181818;stroke-width:1.5;" width="287" x="758" y="939.5499"/><text fill="#000000" font-family="sans-serif" font-size="14" font-weight="bold" lengthAdjust="spacing" textLength="128" x="768" y="962.545">Non-contiguous</text><text fill="#000000" font-family="sans-serif" font-size="14" lengthAdjust="spacing" textLength="135" x="900" y="962.545">memory mappings</text><rect fill="#F1F1F1" height="36.2969" rx="12.5" ry="12.5" style="stroke:#181818;stroke-width:1.5;" width="591" x="1095" y="911.4015"/><text fill="#000000" font-family="sans-serif" font-size="14" font-weight="bold" lengthAdjust="spacing" textLength="105" x="1105" y="934.3966">large buffers</text><text fill="#000000" font-family="sans-serif" font-size="14" lengthAdjust="spacing" textLength="462" x="1214" y="934.3966">which could protentially be too large to find contiguous memory</text><path d="M1045,957.6984 L1055,957.6984 C1070,957.6984 1070,929.5499 1085,929.5499 L1095,929.5499 " fill="none" style="stroke:#181818;stroke-width:1.0;"/><rect fill="#F1F1F1" height="36.2969" rx="12.5" ry="12.5" style="stroke:#181818;stroke-width:1.5;" width="96" x="1095" y="967.6984"/><text fill="#000000" font-family="sans-serif" font-size="14" font-weight="bold" lengthAdjust="spacing" textLength="76" x="1105" y="990.6935">vmalloc()</text><path d="M1045,957.6984 L1055,957.6984 C1070,957.6984 1070,985.8468 1085,985.8468 L1095,985.8468 " fill="none" style="stroke:#181818;stroke-width:1.0;"/><path d="M708,1013.9952 L718,1013.9952 C733,1013.9952 733,957.6984 748,957.6984 L758,957.6984 " fill="none" style="stroke:#181818;stroke-width:1.0;"/><rect fill="#F1F1F1" height="36.2969" rx="12.5" ry="12.5" style="stroke:#181818;stroke-width:1.5;" width="181" x="758" y="1052.1437"/><text fill="#000000" font-family="sans-serif" font-size="14" font-weight="bold" lengthAdjust="spacing" textLength="161" x="768" y="1075.1388">Memory-mapped I/O</text><rect fill="#F1F1F1" height="36.2969" rx="12.5" ry="12.5" style="stroke:#181818;stroke-width:1.5;" width="261" x="989" y="1023.9952"/><text fill="#000000" font-family="sans-serif" font-size="14" lengthAdjust="spacing" textLength="241" x="999" y="1046.9904">Map peripheral devices int kernel</text><path d="M939,1070.2921 L949,1070.2921 C964,1070.2921 964,1042.1437 979,1042.1437 L989,1042.1437 " fill="none" style="stroke:#181818;stroke-width:1.0;"/><rect fill="#F1F1F1" height="36.2969" rx="12.5" ry="12.5" style="stroke:#181818;stroke-width:1.5;" width="149" x="989" y="1080.2921"/><text fill="#000000" font-family="sans-serif" font-size="14" lengthAdjust="spacing" textLength="129" x="999" y="1103.2872">ioremap(), kmap()</text><path d="M939,1070.2921 L949,1070.2921 C964,1070.2921 964,1098.4406 979,1098.4406 L989,1098.4406 " fill="none" style="stroke:#181818;stroke-width:1.0;"/><path d="M708,1013.9952 L718,1013.9952 C733,1013.9952 733,1070.2921 748,1070.2921 L758,1070.2921 " fill="none" style="stroke:#181818;stroke-width:1.0;"/><path d="M579,985.8468 L589,985.8468 C604,985.8468 604,1013.9952 619,1013.9952 L629,1013.9952 " fill="none" style="stroke:#181818;stroke-width:1.0;"/><path d="M350,568.2945 L360,568.2945 C375,568.2945 375,985.8468 390,985.8468 L400,985.8468 " fill="none" style="stroke:#181818;stroke-width:1.0;"/><path d="M233,821.6304 L243,821.6304 C258,821.6304 258,568.2945 273,568.2945 L283,568.2945 " fill="none" style="stroke:#181818;stroke-width:1.0;"/><rect fill="#ADD8E6" height="36.2969" rx="12.5" ry="12.5" style="stroke:#181818;stroke-width:1.5;" width="163" x="283" y="1361.7765"/><text fill="#000000" font-family="sans-serif" font-size="14" lengthAdjust="spacing" textLength="143" x="293" y="1384.7716">User Virtual Address</text><rect fill="#F1F1F1" height="36.2969" rx="12.5" ry="12.5" style="stroke:#181818;stroke-width:1.5;" width="167" x="496" y="1136.589"/><text fill="#000000" font-family="sans-serif" font-size="14" lengthAdjust="spacing" textLength="147" x="506" y="1159.5841">below PAGE_OFFSET</text><path d="M446,1379.9249 L456,1379.9249 C471,1379.9249 471,1154.7374 486,1154.7374 L496,1154.7374 " fill="none" style="stroke:#181818;stroke-width:1.0;"/><rect fill="#F1F1F1" height="36.2969" rx="12.5" ry="12.5" style="stroke:#181818;stroke-width:1.5;" width="265" x="496" y="1192.8859"/><text fill="#000000" font-family="sans-serif" font-size="14" lengthAdjust="spacing" textLength="245" x="506" y="1215.881">Each process has its own mapping</text><rect fill="#F1F1F1" height="36.2969" rx="12.5" ry="12.5" style="stroke:#181818;stroke-width:1.5;" width="200" x="811" y="1136.589"/><text fill="#000000" font-family="sans-serif" font-size="14" lengthAdjust="spacing" textLength="180" x="821" y="1159.5841">Threads share a mapping</text><path d="M761,1211.0343 L771,1211.0343 C786,1211.0343 786,1154.7374 801,1154.7374 L811,1154.7374 " fill="none" style="stroke:#181818;stroke-width:1.0;"/><rect fill="#F1F1F1" height="36.2969" rx="12.5" ry="12.5" style="stroke:#181818;stroke-width:1.5;" width="256" x="811" y="1192.8859"/><text fill="#000000" font-family="sans-serif" font-size="14" lengthAdjust="spacing" textLength="166" x="821" y="1215.881">Complex behavior with</text><text fill="#000000" font-family="sans-serif" font-size="14" font-weight="bold" lengthAdjust="spacing" textLength="66" x="991" y="1215.881">clone(2)</text><path d="M761,1211.0343 L771,1211.0343 C786,1211.0343 786,1211.0343 801,1211.0343 L811,1211.0343 " fill="none" style="stroke:#181818;stroke-width:1.0;"/><rect fill="#F1F1F1" height="36.2969" rx="12.5" ry="12.5" style="stroke:#181818;stroke-width:1.5;" width="290" x="811" y="1249.1827"/><text fill="#000000" font-family="sans-serif" font-size="14" font-weight="bold" lengthAdjust="spacing" textLength="86" x="821" y="1272.1779">struct mm</text><text fill="#000000" font-family="sans-serif" font-size="14" lengthAdjust="spacing" textLength="86" x="907" y="1272.1779">, pointers in</text><text fill="#000000" font-family="sans-serif" font-size="14" font-weight="bold" lengthAdjust="spacing" textLength="94" x="997" y="1272.1779">task_struct</text><path d="M761,1211.0343 L771,1211.0343 C786,1211.0343 786,1267.3312 801,1267.3312 L811,1267.3312 " fill="none" style="stroke:#181818;stroke-width:1.0;"/><path d="M446,1379.9249 L456,1379.9249 C471,1379.9249 471,1211.0343 486,1211.0343 L496,1211.0343 " fill="none" style="stroke:#181818;stroke-width:1.0;"/><rect fill="#F1F1F1" height="36.2969" rx="12.5" ry="12.5" style="stroke:#181818;stroke-width:1.5;" width="197" x="496" y="1446.2218"/><text fill="#000000" font-family="sans-serif" font-size="14" lengthAdjust="spacing" textLength="177" x="506" y="1469.2169">Make the full use of MMU</text><rect fill="#F1F1F1" height="36.2969" rx="12.5" ry="12.5" style="stroke:#181818;stroke-width:1.5;" width="329" x="743" y="1305.4796"/><text fill="#000000" font-family="sans-serif" font-size="14" lengthAdjust="spacing" textLength="309" x="753" y="1328.4747">Only the used portions of RAM are mapped</text><path d="M693,1464.3702 L703,1464.3702 C718,1464.3702 718,1323.6281 733,1323.6281 L743,1323.6281 " fill="none" style="stroke:#181818;stroke-width:1.0;"/><rect fill="#F1F1F1" height="36.2969" rx="12.5" ry="12.5" style="stroke:#181818;stroke-width:1.5;" width="204" x="743" y="1361.7765"/><text fill="#000000" font-family="sans-serif" font-size="14" lengthAdjust="spacing" textLength="184" x="753" y="1384.7716">Memory is not contiguous</text><path d="M693,1464.3702 L703,1464.3702 C718,1464.3702 718,1379.9249 733,1379.9249 L743,1379.9249 " fill="none" style="stroke:#181818;stroke-width:1.0;"/><rect fill="#F1F1F1" height="36.2969" rx="12.5" ry="12.5" style="stroke:#181818;stroke-width:1.5;" width="231" x="743" y="1418.0734"/><text fill="#000000" font-family="sans-serif" font-size="14" lengthAdjust="spacing" textLength="211" x="753" y="1441.0685">Memory may be swapped out</text><path d="M693,1464.3702 L703,1464.3702 C718,1464.3702 718,1436.2218 733,1436.2218 L743,1436.2218 " fill="none" style="stroke:#181818;stroke-width:1.0;"/><rect fill="#F1F1F1" height="36.2969" rx="12.5" ry="12.5" style="stroke:#181818;stroke-width:1.5;" width="183" x="743" y="1474.3702"/><text fill="#000000" font-family="sans-serif" font-size="14" lengthAdjust="spacing" textLength="163" x="753" y="1497.3654">Memory can be moved</text><path d="M693,1464.3702 L703,1464.3702 C718,1464.3702 718,1492.5187 733,1492.5187 L743,1492.5187 " fill="none" style="stroke:#181818;stroke-width:1.0;"/><rect fill="#F1F1F1" height="36.2969" rx="12.5" ry="12.5" style="stroke:#181818;stroke-width:1.5;" width="352" x="743" y="1530.6671"/><text fill="#000000" font-family="sans-serif" font-size="14" lengthAdjust="spacing" textLength="332" x="753" y="1553.6622">Not suitable for use by the kernel (or for DMA)</text><path d="M693,1464.3702 L703,1464.3702 C718,1464.3702 718,1548.8156 733,1548.8156 L743,1548.8156 " fill="none" style="stroke:#181818;stroke-width:1.0;"/><rect fill="#F1F1F1" height="36.2969" rx="12.5" ry="12.5" style="stroke:#181818;stroke-width:1.5;" width="609" x="743" y="1586.964"/><text fill="#000000" font-family="sans-serif" font-size="14" lengthAdjust="spacing" textLength="589" x="753" y="1609.9591">At context switch time, the memory map is changed (this is part of the overhead)</text><path d="M693,1464.3702 L703,1464.3702 C718,1464.3702 718,1605.1124 733,1605.1124 L743,1605.1124 " fill="none" style="stroke:#181818;stroke-width:1.0;"/><path d="M446,1379.9249 L456,1379.9249 C471,1379.9249 471,1464.3702 486,1464.3702 L496,1464.3702 " fill="none" style="stroke:#181818;stroke-width:1.0;"/><path d="M233,821.6304 L243,821.6304 C258,821.6304 258,1379.9249 273,1379.9249 L283,1379.9249 " fill="none" style="stroke:#181818;stroke-width:1.0;"/><!--MD5=[6cf2ed47119a69e3b0f110867bfef71c]
@startmindmap
+ Virtual Addresses（3 kinds）
++ Kernel
+++[#lightblue] Kernel Logical Address
++++ Normal address space of kernel
*****[#moccasin]:<code>
kmalloc()
</code>;
+++++ Kernel stacks (per process)
++++ A **fixed offset** from their physical addresses
+++++_ Virt: 0xc0000000 -> Phys: 0x00000000
+++++ virtually-contiguous regions are by nature also physically contiguous
+++++ combined with the inablity to be swapped out, makes them suitable for **DMA** transfers
++++ easy to convert between virtual and physical
+++++ **__pa(x)**
+++++ **__va(x)**
++++ Can never be swapped out
++++ Mapping
+++++ 32 bit
++++++ for small-memory systems (below 1GB RAM)
+++++++ Kernel Logical address space starts at PAGE_OFFSET and goes through the **end of physical memory**
++++++ for large-memory systems (more than 1GB RAM)
+++++++ not all of the physical RAM can be mapped into kernel's address space
+++++++ kernel address space is the top 1GB of virtual address space, by default
+++++++ ~104 MB is reserved at the top of the kernel's memory space for non-contiguous allocations
+++++++ Only the **bottom part** of physical RAM (896MB, 0xc0000000 ~ 0xf800000) has a kernel logical address
++++++++ this memory is called Low Memory (phys: 0x00000000 ~ 0xf8000000)
++++++++ High memory: beyond ~896MB
+++++++++ No logical address
+++++++++ Not physically contiguous when used in the kernel
+++++++ -> 这种情况只会在32bit中出现，kernel virtual memory < physical memory
+++++ 64 bit
++++++ always enough kernel address space to accommodate all the RAM -> **那岂不是没必要用virtual address了？**
+++++ just beacause physical addresses could have a kernel logical address, it doesn't mean the kernel is actually using every byte of memory on the system
+++[#lightblue] Kernel Virtual Address
++++ the **vmalloc()** area
++++ Used for
+++++ **Non-contiguous** memory mappings
++++++ **large buffers** which could protentially be too large to find contiguous memory
++++++ **vmalloc()**
+++++ **Memory-mapped I/O**
++++++ Map peripheral devices int kernel
++++++ ioremap(), kmap()
++[#lightblue] User Virtual Address
+++ below PAGE_OFFSET
+++ Each process has its own mapping
++++ Threads share a mapping
++++ Complex behavior with **clone(2)**
++++ **struct mm**, pointers in **task_struct**
+++ Make the full use of MMU
++++ Only the used portions of RAM are mapped
++++ Memory is not contiguous
++++ Memory may be swapped out
++++ Memory can be moved
++++ Not suitable for use by the kernel (or for DMA)
++++ At context switch time, the memory map is changed (this is part of the overhead)
@endmindmap

PlantUML version 1.2022.4beta2(Unknown compile time)
(GPL source distribution)
Java Runtime: Java(TM) SE Runtime Environment
JVM: Java HotSpot(TM) 64-Bit Server VM
Default Encoding: UTF-8
Language: en
Country: US
--></g></svg>