<?xml version="1.0" encoding="UTF-8" standalone="no"?><svg xmlns="http://www.w3.org/2000/svg" xmlns:xlink="http://www.w3.org/1999/xlink" contentStyleType="text/css" height="361px" preserveAspectRatio="none" style="width:1308px;height:361px;background:#FFFFFF;" version="1.1" viewBox="0 0 1308 361" width="1308px" zoomAndPan="magnify"><defs/><g><rect fill="#FFA500" height="36.2969" rx="12.5" ry="12.5" style="stroke:#181818;stroke-width:1.5;" width="179" x="10" y="161.4968"/><text fill="#000000" font-family="sans-serif" font-size="14" lengthAdjust="spacing" textLength="159" x="20" y="184.4919">Kernel Virtual Address</text><rect fill="#F1F1F1" height="36.2969" rx="12.5" ry="12.5" style="stroke:#181818;stroke-width:1.5;" width="160" x="239" y="20"/><text fill="#000000" font-family="sans-serif" font-size="14" lengthAdjust="spacing" textLength="25" x="249" y="42.9951">the</text><text fill="#000000" font-family="sans-serif" font-size="14" font-weight="bold" lengthAdjust="spacing" textLength="76" x="278" y="42.9951">vmalloc()</text><text fill="#000000" font-family="sans-serif" font-size="14" lengthAdjust="spacing" textLength="31" x="358" y="42.9951">area</text><path d="M189,179.6452 L199,179.6452 C214,179.6452 214,38.1484 229,38.1484 L239,38.1484 " fill="none" style="stroke:#181818;stroke-width:1.0;"/><rect fill="#F1F1F1" height="36.2969" rx="12.5" ry="12.5" style="stroke:#181818;stroke-width:1.5;" width="79" x="239" y="189.6452"/><text fill="#000000" font-family="sans-serif" font-size="14" lengthAdjust="spacing" textLength="59" x="249" y="212.6403">Used for</text><rect fill="#F1F1F1" height="36.2969" rx="12.5" ry="12.5" style="stroke:#181818;stroke-width:1.5;" width="287" x="368" y="104.6968"/><text fill="#000000" font-family="sans-serif" font-size="14" font-weight="bold" lengthAdjust="spacing" textLength="128" x="378" y="127.692">Non-contiguous</text><text fill="#000000" font-family="sans-serif" font-size="14" lengthAdjust="spacing" textLength="135" x="510" y="127.692">memory mappings</text><rect fill="#F1F1F1" height="36.2969" rx="12.5" ry="12.5" style="stroke:#181818;stroke-width:1.5;" width="591" x="705" y="76.2969"/><text fill="#000000" font-family="sans-serif" font-size="14" font-weight="bold" lengthAdjust="spacing" textLength="105" x="715" y="99.292">large buffers</text><text fill="#000000" font-family="sans-serif" font-size="14" lengthAdjust="spacing" textLength="462" x="824" y="99.292">which could protentially be too large to find contiguous memory</text><path d="M655,122.8453 L665,122.8453 C680,122.8453 680,94.4453 695,94.4453 L705,94.4453 " fill="none" style="stroke:#181818;stroke-width:1.0;"/><rect fill="#FFE4B5" height="36.7999" rx="12.5" ry="12.5" style="stroke:#181818;stroke-width:1.5;" width="92" x="705" y="132.5938"/><text fill="#000000" font-family="monospace" font-size="14" lengthAdjust="spacing" textLength="72" x="715" y="155.5577">vmalloc()</text><path d="M655,122.8453 L665,122.8453 C680,122.8453 680,150.9937 695,150.9937 L705,150.9937 " fill="none" style="stroke:#181818;stroke-width:1.0;"/><path d="M318,207.7936 L328,207.7936 C343,207.7936 343,122.8453 358,122.8453 L368,122.8453 " fill="none" style="stroke:#181818;stroke-width:1.0;"/><rect fill="#F1F1F1" height="36.2969" rx="12.5" ry="12.5" style="stroke:#181818;stroke-width:1.5;" width="181" x="368" y="246.1936"/><text fill="#000000" font-family="sans-serif" font-size="14" font-weight="bold" lengthAdjust="spacing" textLength="161" x="378" y="269.1887">Memory-mapped I/O</text><rect fill="#F1F1F1" height="36.2969" rx="12.5" ry="12.5" style="stroke:#181818;stroke-width:1.5;" width="261" x="599" y="189.3937"/><text fill="#000000" font-family="sans-serif" font-size="14" lengthAdjust="spacing" textLength="241" x="609" y="212.3888">Map peripheral devices int kernel</text><path d="M549,264.342 L559,264.342 C574,264.342 574,207.5421 589,207.5421 L599,207.5421 " fill="none" style="stroke:#181818;stroke-width:1.0;"/><rect fill="#FFE4B5" height="36.7999" rx="12.5" ry="12.5" style="stroke:#181818;stroke-width:1.5;" width="92" x="599" y="245.6906"/><text fill="#000000" font-family="monospace" font-size="14" lengthAdjust="spacing" textLength="72" x="609" y="268.6545">ioremap()</text><path d="M549,264.342 L559,264.342 C574,264.342 574,264.0905 589,264.0905 L599,264.0905 " fill="none" style="stroke:#181818;stroke-width:1.0;"/><rect fill="#FFE4B5" height="36.7999" rx="12.5" ry="12.5" style="stroke:#181818;stroke-width:1.5;" width="68" x="599" y="302.4905"/><text fill="#000000" font-family="monospace" font-size="14" lengthAdjust="spacing" textLength="48" x="609" y="325.4544">kmap()</text><path d="M549,264.342 L559,264.342 C574,264.342 574,320.8904 589,320.8904 L599,320.8904 " fill="none" style="stroke:#181818;stroke-width:1.0;"/><path d="M318,207.7936 L328,207.7936 C343,207.7936 343,264.342 358,264.342 L368,264.342 " fill="none" style="stroke:#181818;stroke-width:1.0;"/><path d="M189,179.6452 L199,179.6452 C214,179.6452 214,207.7936 229,207.7936 L239,207.7936 " fill="none" style="stroke:#181818;stroke-width:1.0;"/><!--MD5=[4d9df2abd180156516b6951e155c129e]
@startmindmap
+[#orange] Kernel Virtual Address
++ the **vmalloc()** area
++ Used for
+++ **Non-contiguous** memory mappings
++++ **large buffers** which could protentially be too large to find contiguous memory
****[#moccasin]:<code>
vmalloc()
</code>;
+++ **Memory-mapped I/O**
++++ Map peripheral devices int kernel
****[#moccasin]:<code>
ioremap()
</code>;
****[#moccasin]:<code>
kmap()
</code>;
@endmindmap

PlantUML version 1.2022.4beta2(Unknown compile time)
(GPL source distribution)
Java Runtime: Java(TM) SE Runtime Environment
JVM: Java HotSpot(TM) 64-Bit Server VM
Default Encoding: UTF-8
Language: en
Country: US
--></g></svg>