<?xml version="1.0" encoding="UTF-8" standalone="no"?><svg xmlns="http://www.w3.org/2000/svg" xmlns:xlink="http://www.w3.org/1999/xlink" contentStyleType="text/css" height="270px" preserveAspectRatio="none" style="width:1614px;height:270px;background:#FFFFFF;" version="1.1" viewBox="0 0 1614 270" width="1614px" zoomAndPan="magnify"><defs/><g><rect fill="#F1F1F1" height="36.2969" rx="12.5" ry="12.5" style="stroke:#181818;stroke-width:1.5;" width="217" x="10" y="116.2969"/><text fill="#000000" font-family="sans-serif" font-size="14" lengthAdjust="spacing" textLength="197" x="20" y="139.292">High-Level implementation</text><rect fill="#FFE4B5" height="53.5999" rx="12.5" ry="12.5" style="stroke:#181818;stroke-width:1.5;" width="84" x="277" y="107.6454"/><text fill="#000000" font-family="monospace" font-size="14" lengthAdjust="spacing" textLength="64" x="287" y="130.6093">malloc()</text><text fill="#000000" font-family="monospace" font-size="14" lengthAdjust="spacing" textLength="64" x="287" y="147.4093">calloc()</text><rect fill="#F1F1F1" height="36.2969" rx="12.5" ry="12.5" style="stroke:#181818;stroke-width:1.5;" width="525" x="411" y="116.2969"/><text fill="#000000" font-family="sans-serif" font-size="14" lengthAdjust="spacing" textLength="505" x="421" y="139.292">use either brk() or mmap() depending on the requested allocation size</text><rect fill="#FFE4B5" height="20" rx="12.5" ry="12.5" style="stroke:#181818;stroke-width:1.5;" width="20" x="986" y="20"/><path d="M936,134.4453 L946,134.4453 C961,134.4453 961,30 976,30 L986,30 " fill="none" style="stroke:#181818;stroke-width:1.0;"/><rect fill="#F1F1F1" height="36.2969" rx="12.5" ry="12.5" style="stroke:#181818;stroke-width:1.5;" width="207" x="986" y="60"/><text fill="#000000" font-family="sans-serif" font-size="14" lengthAdjust="spacing" textLength="187" x="996" y="82.9951">Small allocations use brk()</text><path d="M936,134.4453 L946,134.4453 C961,134.4453 961,78.1484 976,78.1484 L986,78.1484 " fill="none" style="stroke:#181818;stroke-width:1.0;"/><rect fill="#FFE4B5" height="20" rx="12.5" ry="12.5" style="stroke:#181818;stroke-width:1.5;" width="20" x="986" y="116.2969"/><path d="M936,134.4453 L946,134.4453 C961,134.4453 961,126.2969 976,126.2969 L986,126.2969 " fill="none" style="stroke:#181818;stroke-width:1.0;"/><rect fill="#F1F1F1" height="36.2969" rx="12.5" ry="12.5" style="stroke:#181818;stroke-width:1.5;" width="229" x="986" y="156.2969"/><text fill="#000000" font-family="sans-serif" font-size="14" lengthAdjust="spacing" textLength="209" x="996" y="179.292">Large allocations use mmap()</text><path d="M936,134.4453 L946,134.4453 C961,134.4453 961,174.4453 976,174.4453 L986,174.4453 " fill="none" style="stroke:#181818;stroke-width:1.0;"/><rect fill="#F1F1F1" height="36.2969" rx="12.5" ry="12.5" style="stroke:#181818;stroke-width:1.5;" width="616" x="986" y="212.5938"/><text fill="#000000" font-family="sans-serif" font-size="14" lengthAdjust="spacing" textLength="165" x="996" y="235.5889">See mallopt(3) and the</text><text fill="#000000" font-family="sans-serif" font-size="14" font-weight="bold" lengthAdjust="spacing" textLength="172" x="1165" y="235.5889">M_MMAP_THRESHOLD</text><text fill="#000000" font-family="sans-serif" font-size="14" lengthAdjust="spacing" textLength="251" x="1341" y="235.5889">parameter to control this behavior</text><path d="M936,134.4453 L946,134.4453 C961,134.4453 961,230.7422 976,230.7422 L986,230.7422 " fill="none" style="stroke:#181818;stroke-width:1.0;"/><path d="M361,134.4453 L371,134.4453 C386,134.4453 386,134.4453 401,134.4453 L411,134.4453 " fill="none" style="stroke:#181818;stroke-width:1.0;"/><path d="M227,134.4453 L237,134.4453 C252,134.4453 252,134.4453 267,134.4453 L277,134.4453 " fill="none" style="stroke:#181818;stroke-width:1.0;"/><!--MD5=[623207a6f41214054ac958a7e153e648]
@startmindmap
+ High-Level implementation
**[#moccasin]:<code>
malloc()
calloc()
</code>;
+++ use either brk() or mmap() depending on the requested allocation size
****[#moccasin]:<code>
</code>;
++++ Small allocations use brk()
****[#moccasin]:<code>
</code>;
++++ Large allocations use mmap()
++++ See mallopt(3) and the **M_MMAP_THRESHOLD** parameter to control this behavior
@endmindmap

PlantUML version 1.2022.4beta2(Unknown compile time)
(GPL source distribution)
Java Runtime: Java(TM) SE Runtime Environment
JVM: Java HotSpot(TM) 64-Bit Server VM
Default Encoding: UTF-8
Language: en
Country: US
--></g></svg>