<?xml version="1.0" encoding="UTF-8" standalone="no"?><svg xmlns="http://www.w3.org/2000/svg" xmlns:xlink="http://www.w3.org/1999/xlink" contentStyleType="text/css" height="1640px" preserveAspectRatio="none" style="width:2781px;height:1640px;background:#FFFFFF;" version="1.1" viewBox="0 0 2781 1640" width="2781px" zoomAndPan="magnify"><defs/><g><rect fill="#F1F1F1" height="36.2969" rx="12.5" ry="12.5" style="stroke:#181818;stroke-width:1.5;" width="223" x="10" y="801.0304"/><text fill="#000000" font-family="sans-serif" font-size="14" lengthAdjust="spacing" textLength="203" x="20" y="824.0255">Virtual Addresses（3 kinds）</text><rect fill="#F1F1F1" height="36.2969" rx="12.5" ry="12.5" style="stroke:#181818;stroke-width:1.5;" width="67" x="283" y="547.6945"/><text fill="#000000" font-family="sans-serif" font-size="14" lengthAdjust="spacing" textLength="47" x="293" y="570.6896">Kernel</text><rect fill="#FFA500" height="36.2969" rx="12.5" ry="12.5" style="stroke:#181818;stroke-width:1.5;" width="182" x="400" y="406.9523"/><text fill="#000000" font-family="sans-serif" font-size="14" lengthAdjust="spacing" textLength="162" x="410" y="429.9474">Kernel Logical Address</text><rect fill="#F1F1F1" height="36.2969" rx="12.5" ry="12.5" style="stroke:#181818;stroke-width:1.5;" width="245" x="632" y="48.4"/><text fill="#000000" font-family="sans-serif" font-size="14" lengthAdjust="spacing" textLength="225" x="642" y="71.3951">Normal address space of kernel</text><rect fill="#FFE4B5" height="36.7999" rx="12.5" ry="12.5" style="stroke:#181818;stroke-width:1.5;" width="92" x="927" y="20"/><text fill="#000000" font-family="monospace" font-size="14" lengthAdjust="spacing" textLength="72" x="937" y="42.9639">kmalloc()</text><path d="M877,66.5484 L887,66.5484 C902,66.5484 902,38.4 917,38.4 L927,38.4 " fill="none" style="stroke:#181818;stroke-width:1.0;"/><rect fill="#F1F1F1" height="36.2969" rx="12.5" ry="12.5" style="stroke:#181818;stroke-width:1.5;" width="216" x="927" y="76.7999"/><text fill="#000000" font-family="sans-serif" font-size="14" lengthAdjust="spacing" textLength="196" x="937" y="99.795">Kernel stacks (per process)</text><path d="M877,66.5484 L887,66.5484 C902,66.5484 902,94.9484 917,94.9484 L927,94.9484 " fill="none" style="stroke:#181818;stroke-width:1.0;"/><path d="M582,425.1007 L592,425.1007 C607,425.1007 607,66.5484 622,66.5484 L632,66.5484 " fill="none" style="stroke:#181818;stroke-width:1.0;"/><rect fill="#F1F1F1" height="36.2969" rx="12.5" ry="12.5" style="stroke:#181818;stroke-width:1.5;" width="344" x="632" y="170.3937"/><text fill="#000000" font-family="sans-serif" font-size="14" lengthAdjust="spacing" textLength="10" x="642" y="193.3888">A</text><text fill="#000000" font-family="sans-serif" font-size="14" font-weight="bold" lengthAdjust="spacing" textLength="95" x="656" y="193.3888">fixed offset</text><text fill="#000000" font-family="sans-serif" font-size="14" lengthAdjust="spacing" textLength="211" x="755" y="193.3888">from their physical addresses</text><text fill="#000000" font-family="sans-serif" font-size="14" lengthAdjust="spacing" textLength="286" x="1029" y="137.0919">Virt: 0xc0000000 --&gt; Phys: 0x00000000</text><path d="M976,188.5421 L986,188.5421 C1001,188.5421 1001,132.2452 1016,132.2452 L1026,132.2452 " fill="none" style="stroke:#181818;stroke-width:1.0;"/><rect fill="#F1F1F1" height="36.2969" rx="12.5" ry="12.5" style="stroke:#181818;stroke-width:1.5;" width="506" x="1026" y="151.3937"/><text fill="#000000" font-family="sans-serif" font-size="14" lengthAdjust="spacing" textLength="486" x="1036" y="174.3888">virtually-contiguous regions are by nature also physically contiguous</text><path d="M976,188.5421 L986,188.5421 C1001,188.5421 1001,169.5421 1016,169.5421 L1026,169.5421 " fill="none" style="stroke:#181818;stroke-width:1.0;"/><rect fill="#F1F1F1" height="36.2969" rx="12.5" ry="12.5" style="stroke:#181818;stroke-width:1.5;" width="646" x="1026" y="207.6906"/><text fill="#000000" font-family="sans-serif" font-size="14" lengthAdjust="spacing" textLength="517" x="1036" y="230.6857">combined with the inablity to be swapped out, makes them suitable for</text><text fill="#000000" font-family="sans-serif" font-size="14" font-weight="bold" lengthAdjust="spacing" textLength="36" x="1557" y="230.6857">DMA</text><text fill="#000000" font-family="sans-serif" font-size="14" lengthAdjust="spacing" textLength="65" x="1597" y="230.6857">transfers</text><path d="M976,188.5421 L986,188.5421 C1001,188.5421 1001,225.839 1016,225.839 L1026,225.839 " fill="none" style="stroke:#181818;stroke-width:1.0;"/><path d="M582,425.1007 L592,425.1007 C607,425.1007 607,188.5421 622,188.5421 L632,188.5421 " fill="none" style="stroke:#181818;stroke-width:1.0;"/><rect fill="#F1F1F1" height="36.2969" rx="12.5" ry="12.5" style="stroke:#181818;stroke-width:1.5;" width="341" x="632" y="292.6389"/><text fill="#000000" font-family="sans-serif" font-size="14" lengthAdjust="spacing" textLength="321" x="642" y="315.634">easy to convert between virtual and physical</text><rect fill="#FFE4B5" height="36.7999" rx="12.5" ry="12.5" style="stroke:#181818;stroke-width:1.5;" width="76" x="1023" y="263.9874"/><text fill="#000000" font-family="monospace" font-size="14" lengthAdjust="spacing" textLength="56" x="1033" y="286.9514">__pa(x)</text><path d="M973,310.7874 L983,310.7874 C998,310.7874 998,282.3874 1013,282.3874 L1023,282.3874 " fill="none" style="stroke:#181818;stroke-width:1.0;"/><rect fill="#FFE4B5" height="36.7999" rx="12.5" ry="12.5" style="stroke:#181818;stroke-width:1.5;" width="76" x="1023" y="320.7874"/><text fill="#000000" font-family="monospace" font-size="14" lengthAdjust="spacing" textLength="56" x="1033" y="343.7513">__va(x)</text><path d="M973,310.7874 L983,310.7874 C998,310.7874 998,339.1873 1013,339.1873 L1023,339.1873 " fill="none" style="stroke:#181818;stroke-width:1.0;"/><path d="M582,425.1007 L592,425.1007 C607,425.1007 607,310.7874 622,310.7874 L632,310.7874 " fill="none" style="stroke:#181818;stroke-width:1.0;"/><rect fill="#F1F1F1" height="36.2969" rx="12.5" ry="12.5" style="stroke:#181818;stroke-width:1.5;" width="211" x="632" y="348.9358"/><text fill="#000000" font-family="sans-serif" font-size="14" lengthAdjust="spacing" textLength="191" x="642" y="371.9309">Can never be swapped out</text><path d="M582,425.1007 L592,425.1007 C607,425.1007 607,367.0842 622,367.0842 L632,367.0842 " fill="none" style="stroke:#181818;stroke-width:1.0;"/><rect fill="#F1F1F1" height="36.2969" rx="12.5" ry="12.5" style="stroke:#181818;stroke-width:1.5;" width="82" x="632" y="599.5686"/><text fill="#000000" font-family="sans-serif" font-size="14" lengthAdjust="spacing" textLength="62" x="642" y="622.5637">Mapping</text><rect fill="#F1F1F1" height="36.2969" rx="12.5" ry="12.5" style="stroke:#181818;stroke-width:1.5;" width="62" x="764" y="543.2717"/><text fill="#000000" font-family="sans-serif" font-size="14" lengthAdjust="spacing" textLength="42" x="774" y="566.2668">32 bit</text><rect fill="#F1F1F1" height="36.2969" rx="12.5" ry="12.5" style="stroke:#181818;stroke-width:1.5;" width="338" x="876" y="405.2327"/><text fill="#000000" font-family="sans-serif" font-size="14" lengthAdjust="spacing" textLength="318" x="886" y="428.2278">for small-memory systems (below 1GB RAM)</text><rect fill="#F1F1F1" height="36.2969" rx="12.5" ry="12.5" style="stroke:#181818;stroke-width:1.5;" width="759" x="1264" y="405.2327"/><text fill="#000000" font-family="sans-serif" font-size="14" lengthAdjust="spacing" textLength="271" x="1274" y="428.2278">Kernel Logical address space starts at</text><text fill="#000000" font-family="sans-serif" font-size="14" font-weight="bold" lengthAdjust="spacing" textLength="109" x="1549" y="428.2278">PAGE_OFFSET</text><text fill="#000000" font-family="sans-serif" font-size="14" lengthAdjust="spacing" textLength="154" x="1662" y="428.2278">and goes through the</text><text fill="#000000" font-family="sans-serif" font-size="14" font-weight="bold" lengthAdjust="spacing" textLength="193" x="1820" y="428.2278">end of physical memory</text><path d="M1214,423.3811 L1224,423.3811 C1239,423.3811 1239,423.3811 1254,423.3811 L1264,423.3811 " fill="none" style="stroke:#181818;stroke-width:1.0;"/><path d="M826,561.4202 L836,561.4202 C851,561.4202 851,423.3811 866,423.3811 L876,423.3811 " fill="none" style="stroke:#181818;stroke-width:1.0;"/><rect fill="#F1F1F1" height="36.2969" rx="12.5" ry="12.5" style="stroke:#181818;stroke-width:1.5;" width="369" x="876" y="571.4202"/><text fill="#000000" font-family="sans-serif" font-size="14" lengthAdjust="spacing" textLength="349" x="886" y="594.4153">for large-memory systems (more than 1GB RAM)</text><rect fill="#F1F1F1" height="36.2969" rx="12.5" ry="12.5" style="stroke:#181818;stroke-width:1.5;" width="526" x="1295" y="461.5295"/><text fill="#000000" font-family="sans-serif" font-size="14" lengthAdjust="spacing" textLength="506" x="1305" y="484.5247">not all of the physical RAM can be mapped into kernel's address space</text><path d="M1245,589.5686 L1255,589.5686 C1270,589.5686 1270,479.678 1285,479.678 L1295,479.678 " fill="none" style="stroke:#181818;stroke-width:1.0;"/><rect fill="#F1F1F1" height="36.2969" rx="12.5" ry="12.5" style="stroke:#181818;stroke-width:1.5;" width="533" x="1295" y="517.8264"/><text fill="#000000" font-family="sans-serif" font-size="14" lengthAdjust="spacing" textLength="513" x="1305" y="540.8215">kernel address space is the top 1GB of virtual address space, by default</text><path d="M1245,589.5686 L1255,589.5686 C1270,589.5686 1270,535.9749 1285,535.9749 L1295,535.9749 " fill="none" style="stroke:#181818;stroke-width:1.0;"/><rect fill="#F1F1F1" height="36.2969" rx="12.5" ry="12.5" style="stroke:#181818;stroke-width:1.5;" width="683" x="1295" y="574.1233"/><text fill="#000000" font-family="sans-serif" font-size="14" lengthAdjust="spacing" textLength="663" x="1305" y="597.1184">~104 MB is reserved at the top of the kernel's memory space for non-contiguous allocations</text><path d="M1245,589.5686 L1255,589.5686 C1270,589.5686 1270,592.2717 1285,592.2717 L1295,592.2717 " fill="none" style="stroke:#181818;stroke-width:1.0;"/><rect fill="#F1F1F1" height="68.8906" rx="12.5" ry="12.5" style="stroke:#181818;stroke-width:1.5;" width="755" x="1295" y="630.4202"/><text fill="#000000" font-family="sans-serif" font-size="14" lengthAdjust="spacing" textLength="61" x="1305" y="653.4153">Only the</text><text fill="#000000" font-family="sans-serif" font-size="14" font-weight="bold" lengthAdjust="spacing" textLength="101" x="1370" y="653.4153">bottom part</text><text fill="#000000" font-family="sans-serif" font-size="14" lengthAdjust="spacing" textLength="565" x="1475" y="653.4153">of physical RAM (896MB, 0xc0000000 ~ 0xf800000) has a kernel logical address</text><rect fill="#000000" height="3.5" style="stroke:#000000;stroke-width:0.0;" width="3.5" x="1412" y="665.0139"/><text fill="#000000" font-family="sans-serif" font-size="14" lengthAdjust="spacing" textLength="251" x="1417" y="669.7122">:this memory is called Low Memory</text><text fill="#000000" font-family="sans-serif" font-size="14" lengthAdjust="spacing" textLength="236" x="1305" y="686.009">phys: 0x00000000 ~ 0xf8000000</text><rect fill="#F1F1F1" height="36.2969" rx="12.5" ry="12.5" style="stroke:#181818;stroke-width:1.5;" width="242" x="2100" y="646.717"/><text fill="#000000" font-family="sans-serif" font-size="14" lengthAdjust="spacing" textLength="222" x="2110" y="669.7122">High memory: beyond ~896MB</text><rect fill="#F1F1F1" height="36.2969" rx="12.5" ry="12.5" style="stroke:#181818;stroke-width:1.5;" width="148" x="2392" y="618.5686"/><text fill="#000000" font-family="sans-serif" font-size="14" lengthAdjust="spacing" textLength="128" x="2402" y="641.5637">No logical address</text><path d="M2342,664.8655 L2352,664.8655 C2367,664.8655 2367,636.717 2382,636.717 L2392,636.717 " fill="none" style="stroke:#181818;stroke-width:1.0;"/><rect fill="#F1F1F1" height="36.2969" rx="12.5" ry="12.5" style="stroke:#181818;stroke-width:1.5;" width="377" x="2392" y="674.8655"/><text fill="#000000" font-family="sans-serif" font-size="14" lengthAdjust="spacing" textLength="357" x="2402" y="697.8606">Not physically contiguous when used in the kernel</text><path d="M2342,664.8655 L2352,664.8655 C2367,664.8655 2367,693.0139 2382,693.0139 L2392,693.0139 " fill="none" style="stroke:#181818;stroke-width:1.0;"/><path d="M2050,664.8655 L2060,664.8655 C2075,664.8655 2075,664.8655 2090,664.8655 L2100,664.8655 " fill="none" style="stroke:#181818;stroke-width:1.0;"/><path d="M1245,589.5686 L1255,589.5686 C1270,589.5686 1270,664.8655 1285,664.8655 L1295,664.8655 " fill="none" style="stroke:#181818;stroke-width:1.0;"/><text fill="#000000" font-family="sans-serif" font-size="14" lengthAdjust="spacing" textLength="513" x="1298" y="723.3059">-&gt; 这种情况只会在32bit中出现，kernel virtual memory &lt; physical memory</text><path d="M1245,589.5686 L1255,589.5686 C1270,589.5686 1270,718.4592 1285,718.4592 L1295,718.4592 " fill="none" style="stroke:#181818;stroke-width:1.0;"/><path d="M826,561.4202 L836,561.4202 C851,561.4202 851,589.5686 866,589.5686 L876,589.5686 " fill="none" style="stroke:#181818;stroke-width:1.0;"/><path d="M714,617.717 L724,617.717 C739,617.717 739,561.4202 754,561.4202 L764,561.4202 " fill="none" style="stroke:#181818;stroke-width:1.0;"/><rect fill="#F1F1F1" height="36.2969" rx="12.5" ry="12.5" style="stroke:#181818;stroke-width:1.5;" width="62" x="764" y="737.6077"/><text fill="#000000" font-family="sans-serif" font-size="14" lengthAdjust="spacing" textLength="42" x="774" y="760.6028">64 bit</text><rect fill="#F1F1F1" height="36.2969" rx="12.5" ry="12.5" style="stroke:#181818;stroke-width:1.5;" width="788" x="876" y="737.6077"/><text fill="#000000" font-family="sans-serif" font-size="14" lengthAdjust="spacing" textLength="491" x="886" y="760.6028">always enough kernel address space to accommodate all the RAM -&gt;</text><text fill="#000000" font-family="sans-serif" font-size="14" font-weight="bold" lengthAdjust="spacing" textLength="273" x="1381" y="760.6028">那岂不是没必要用virtual address了？</text><path d="M826,755.7561 L836,755.7561 C851,755.7561 851,755.7561 866,755.7561 L876,755.7561 " fill="none" style="stroke:#181818;stroke-width:1.0;"/><path d="M714,617.717 L724,617.717 C739,617.717 739,755.7561 754,755.7561 L764,755.7561 " fill="none" style="stroke:#181818;stroke-width:1.0;"/><rect fill="#F1F1F1" height="36.2969" rx="12.5" ry="12.5" style="stroke:#181818;stroke-width:1.5;" width="1092" x="764" y="793.9045"/><text fill="#000000" font-family="sans-serif" font-size="14" lengthAdjust="spacing" textLength="1072" x="774" y="816.8997">just beacause physical addresses could have a kernel logical address, it doesn't mean the kernel is actually using every byte of memory on the system</text><path d="M714,617.717 L724,617.717 C739,617.717 739,812.053 754,812.053 L764,812.053 " fill="none" style="stroke:#181818;stroke-width:1.0;"/><path d="M582,425.1007 L592,425.1007 C607,425.1007 607,617.717 622,617.717 L632,617.717 " fill="none" style="stroke:#181818;stroke-width:1.0;"/><path d="M350,565.8429 L360,565.8429 C375,565.8429 375,425.1007 390,425.1007 L400,425.1007 " fill="none" style="stroke:#181818;stroke-width:1.0;"/><rect fill="#FFA500" height="36.2969" rx="12.5" ry="12.5" style="stroke:#181818;stroke-width:1.5;" width="179" x="400" y="962.7952"/><text fill="#000000" font-family="sans-serif" font-size="14" lengthAdjust="spacing" textLength="159" x="410" y="985.7903">Kernel Virtual Address</text><rect fill="#F1F1F1" height="36.2969" rx="12.5" ry="12.5" style="stroke:#181818;stroke-width:1.5;" width="160" x="629" y="850.2014"/><text fill="#000000" font-family="sans-serif" font-size="14" lengthAdjust="spacing" textLength="25" x="639" y="873.1965">the</text><text fill="#000000" font-family="sans-serif" font-size="14" font-weight="bold" lengthAdjust="spacing" textLength="76" x="668" y="873.1965">vmalloc()</text><text fill="#000000" font-family="sans-serif" font-size="14" lengthAdjust="spacing" textLength="31" x="748" y="873.1965">area</text><path d="M579,980.9436 L589,980.9436 C604,980.9436 604,868.3499 619,868.3499 L629,868.3499 " fill="none" style="stroke:#181818;stroke-width:1.0;"/><rect fill="#F1F1F1" height="36.2969" rx="12.5" ry="12.5" style="stroke:#181818;stroke-width:1.5;" width="79" x="629" y="990.9436"/><text fill="#000000" font-family="sans-serif" font-size="14" lengthAdjust="spacing" textLength="59" x="639" y="1013.9387">Used for</text><rect fill="#F1F1F1" height="36.2969" rx="12.5" ry="12.5" style="stroke:#181818;stroke-width:1.5;" width="287" x="758" y="934.6467"/><text fill="#000000" font-family="sans-serif" font-size="14" font-weight="bold" lengthAdjust="spacing" textLength="128" x="768" y="957.6418">Non-contiguous</text><text fill="#000000" font-family="sans-serif" font-size="14" lengthAdjust="spacing" textLength="135" x="900" y="957.6418">memory mappings</text><rect fill="#F1F1F1" height="36.2969" rx="12.5" ry="12.5" style="stroke:#181818;stroke-width:1.5;" width="591" x="1095" y="906.4983"/><text fill="#000000" font-family="sans-serif" font-size="14" font-weight="bold" lengthAdjust="spacing" textLength="105" x="1105" y="929.4934">large buffers</text><text fill="#000000" font-family="sans-serif" font-size="14" lengthAdjust="spacing" textLength="462" x="1214" y="929.4934">which could protentially be too large to find contiguous memory</text><path d="M1045,952.7952 L1055,952.7952 C1070,952.7952 1070,924.6467 1085,924.6467 L1095,924.6467 " fill="none" style="stroke:#181818;stroke-width:1.0;"/><rect fill="#F1F1F1" height="36.2969" rx="12.5" ry="12.5" style="stroke:#181818;stroke-width:1.5;" width="96" x="1095" y="962.7952"/><text fill="#000000" font-family="sans-serif" font-size="14" font-weight="bold" lengthAdjust="spacing" textLength="76" x="1105" y="985.7903">vmalloc()</text><path d="M1045,952.7952 L1055,952.7952 C1070,952.7952 1070,980.9436 1085,980.9436 L1095,980.9436 " fill="none" style="stroke:#181818;stroke-width:1.0;"/><path d="M708,1009.092 L718,1009.092 C733,1009.092 733,952.7952 748,952.7952 L758,952.7952 " fill="none" style="stroke:#181818;stroke-width:1.0;"/><rect fill="#F1F1F1" height="36.2969" rx="12.5" ry="12.5" style="stroke:#181818;stroke-width:1.5;" width="181" x="758" y="1047.2405"/><text fill="#000000" font-family="sans-serif" font-size="14" font-weight="bold" lengthAdjust="spacing" textLength="161" x="768" y="1070.2356">Memory-mapped I/O</text><rect fill="#F1F1F1" height="36.2969" rx="12.5" ry="12.5" style="stroke:#181818;stroke-width:1.5;" width="261" x="989" y="1019.092"/><text fill="#000000" font-family="sans-serif" font-size="14" lengthAdjust="spacing" textLength="241" x="999" y="1042.0872">Map peripheral devices int kernel</text><path d="M939,1065.3889 L949,1065.3889 C964,1065.3889 964,1037.2405 979,1037.2405 L989,1037.2405 " fill="none" style="stroke:#181818;stroke-width:1.0;"/><rect fill="#F1F1F1" height="36.2969" rx="12.5" ry="12.5" style="stroke:#181818;stroke-width:1.5;" width="149" x="989" y="1075.3889"/><text fill="#000000" font-family="sans-serif" font-size="14" lengthAdjust="spacing" textLength="129" x="999" y="1098.384">ioremap(), kmap()</text><path d="M939,1065.3889 L949,1065.3889 C964,1065.3889 964,1093.5374 979,1093.5374 L989,1093.5374 " fill="none" style="stroke:#181818;stroke-width:1.0;"/><path d="M708,1009.092 L718,1009.092 C733,1009.092 733,1065.3889 748,1065.3889 L758,1065.3889 " fill="none" style="stroke:#181818;stroke-width:1.0;"/><path d="M579,980.9436 L589,980.9436 C604,980.9436 604,1009.092 619,1009.092 L629,1009.092 " fill="none" style="stroke:#181818;stroke-width:1.0;"/><path d="M350,565.8429 L360,565.8429 C375,565.8429 375,980.9436 390,980.9436 L400,980.9436 " fill="none" style="stroke:#181818;stroke-width:1.0;"/><path d="M233,819.1788 L243,819.1788 C258,819.1788 258,565.8429 273,565.8429 L283,565.8429 " fill="none" style="stroke:#181818;stroke-width:1.0;"/><rect fill="#FFA500" height="36.2969" rx="12.5" ry="12.5" style="stroke:#181818;stroke-width:1.5;" width="163" x="283" y="1356.8733"/><text fill="#000000" font-family="sans-serif" font-size="14" lengthAdjust="spacing" textLength="143" x="293" y="1379.8684">User Virtual Address</text><rect fill="#F1F1F1" height="36.2969" rx="12.5" ry="12.5" style="stroke:#181818;stroke-width:1.5;" width="167" x="496" y="1131.6858"/><text fill="#000000" font-family="sans-serif" font-size="14" lengthAdjust="spacing" textLength="147" x="506" y="1154.6809">below PAGE_OFFSET</text><path d="M446,1375.0217 L456,1375.0217 C471,1375.0217 471,1149.8342 486,1149.8342 L496,1149.8342 " fill="none" style="stroke:#181818;stroke-width:1.0;"/><rect fill="#F1F1F1" height="36.2969" rx="12.5" ry="12.5" style="stroke:#181818;stroke-width:1.5;" width="265" x="496" y="1187.9827"/><text fill="#000000" font-family="sans-serif" font-size="14" lengthAdjust="spacing" textLength="245" x="506" y="1210.9778">Each process has its own mapping</text><rect fill="#F1F1F1" height="36.2969" rx="12.5" ry="12.5" style="stroke:#181818;stroke-width:1.5;" width="200" x="811" y="1131.6858"/><text fill="#000000" font-family="sans-serif" font-size="14" lengthAdjust="spacing" textLength="180" x="821" y="1154.6809">Threads share a mapping</text><path d="M761,1206.1311 L771,1206.1311 C786,1206.1311 786,1149.8342 801,1149.8342 L811,1149.8342 " fill="none" style="stroke:#181818;stroke-width:1.0;"/><rect fill="#F1F1F1" height="36.2969" rx="12.5" ry="12.5" style="stroke:#181818;stroke-width:1.5;" width="256" x="811" y="1187.9827"/><text fill="#000000" font-family="sans-serif" font-size="14" lengthAdjust="spacing" textLength="166" x="821" y="1210.9778">Complex behavior with</text><text fill="#000000" font-family="sans-serif" font-size="14" font-weight="bold" lengthAdjust="spacing" textLength="66" x="991" y="1210.9778">clone(2)</text><path d="M761,1206.1311 L771,1206.1311 C786,1206.1311 786,1206.1311 801,1206.1311 L811,1206.1311 " fill="none" style="stroke:#181818;stroke-width:1.0;"/><rect fill="#F1F1F1" height="36.2969" rx="12.5" ry="12.5" style="stroke:#181818;stroke-width:1.5;" width="290" x="811" y="1244.2795"/><text fill="#000000" font-family="sans-serif" font-size="14" font-weight="bold" lengthAdjust="spacing" textLength="86" x="821" y="1267.2747">struct mm</text><text fill="#000000" font-family="sans-serif" font-size="14" lengthAdjust="spacing" textLength="86" x="907" y="1267.2747">, pointers in</text><text fill="#000000" font-family="sans-serif" font-size="14" font-weight="bold" lengthAdjust="spacing" textLength="94" x="997" y="1267.2747">task_struct</text><path d="M761,1206.1311 L771,1206.1311 C786,1206.1311 786,1262.428 801,1262.428 L811,1262.428 " fill="none" style="stroke:#181818;stroke-width:1.0;"/><path d="M446,1375.0217 L456,1375.0217 C471,1375.0217 471,1206.1311 486,1206.1311 L496,1206.1311 " fill="none" style="stroke:#181818;stroke-width:1.0;"/><rect fill="#F1F1F1" height="36.2969" rx="12.5" ry="12.5" style="stroke:#181818;stroke-width:1.5;" width="197" x="496" y="1441.3186"/><text fill="#000000" font-family="sans-serif" font-size="14" lengthAdjust="spacing" textLength="177" x="506" y="1464.3137">Make the full use of MMU</text><rect fill="#F1F1F1" height="36.2969" rx="12.5" ry="12.5" style="stroke:#181818;stroke-width:1.5;" width="329" x="743" y="1300.5764"/><text fill="#000000" font-family="sans-serif" font-size="14" lengthAdjust="spacing" textLength="309" x="753" y="1323.5715">Only the used portions of RAM are mapped</text><path d="M693,1459.467 L703,1459.467 C718,1459.467 718,1318.7249 733,1318.7249 L743,1318.7249 " fill="none" style="stroke:#181818;stroke-width:1.0;"/><rect fill="#F1F1F1" height="36.2969" rx="12.5" ry="12.5" style="stroke:#181818;stroke-width:1.5;" width="204" x="743" y="1356.8733"/><text fill="#000000" font-family="sans-serif" font-size="14" lengthAdjust="spacing" textLength="184" x="753" y="1379.8684">Memory is not contiguous</text><path d="M693,1459.467 L703,1459.467 C718,1459.467 718,1375.0217 733,1375.0217 L743,1375.0217 " fill="none" style="stroke:#181818;stroke-width:1.0;"/><rect fill="#F1F1F1" height="36.2969" rx="12.5" ry="12.5" style="stroke:#181818;stroke-width:1.5;" width="231" x="743" y="1413.1702"/><text fill="#000000" font-family="sans-serif" font-size="14" lengthAdjust="spacing" textLength="211" x="753" y="1436.1653">Memory may be swapped out</text><path d="M693,1459.467 L703,1459.467 C718,1459.467 718,1431.3186 733,1431.3186 L743,1431.3186 " fill="none" style="stroke:#181818;stroke-width:1.0;"/><rect fill="#F1F1F1" height="36.2969" rx="12.5" ry="12.5" style="stroke:#181818;stroke-width:1.5;" width="183" x="743" y="1469.467"/><text fill="#000000" font-family="sans-serif" font-size="14" lengthAdjust="spacing" textLength="163" x="753" y="1492.4622">Memory can be moved</text><path d="M693,1459.467 L703,1459.467 C718,1459.467 718,1487.6155 733,1487.6155 L743,1487.6155 " fill="none" style="stroke:#181818;stroke-width:1.0;"/><rect fill="#F1F1F1" height="36.2969" rx="12.5" ry="12.5" style="stroke:#181818;stroke-width:1.5;" width="352" x="743" y="1525.7639"/><text fill="#000000" font-family="sans-serif" font-size="14" lengthAdjust="spacing" textLength="332" x="753" y="1548.759">Not suitable for use by the kernel (or for DMA)</text><path d="M693,1459.467 L703,1459.467 C718,1459.467 718,1543.9124 733,1543.9124 L743,1543.9124 " fill="none" style="stroke:#181818;stroke-width:1.0;"/><rect fill="#F1F1F1" height="36.2969" rx="12.5" ry="12.5" style="stroke:#181818;stroke-width:1.5;" width="609" x="743" y="1582.0608"/><text fill="#000000" font-family="sans-serif" font-size="14" lengthAdjust="spacing" textLength="589" x="753" y="1605.0559">At context switch time, the memory map is changed (this is part of the overhead)</text><path d="M693,1459.467 L703,1459.467 C718,1459.467 718,1600.2092 733,1600.2092 L743,1600.2092 " fill="none" style="stroke:#181818;stroke-width:1.0;"/><path d="M446,1375.0217 L456,1375.0217 C471,1375.0217 471,1459.467 486,1459.467 L496,1459.467 " fill="none" style="stroke:#181818;stroke-width:1.0;"/><path d="M233,819.1788 L243,819.1788 C258,819.1788 258,1375.0217 273,1375.0217 L283,1375.0217 " fill="none" style="stroke:#181818;stroke-width:1.0;"/><!--MD5=[bc8461c42ddaf13ee861facce1175747]
@startmindmap
+ Virtual Addresses（3 kinds）
++ Kernel
+++[#orange] Kernel Logical Address
++++ Normal address space of kernel
*****[#moccasin]:<code>
kmalloc()
</code>;
+++++ Kernel stacks (per process)
++++ A **fixed offset** from their physical addresses
+++++_ Virt: 0xc0000000 - -> Phys: 0x00000000
+++++ virtually-contiguous regions are by nature also physically contiguous
+++++ combined with the inablity to be swapped out, makes them suitable for **DMA** transfers
++++ easy to convert between virtual and physical
*****[#moccasin]:<code>
__pa(x)
</code>;
*****[#moccasin]:<code>
__va(x)
</code>;
++++ Can never be swapped out
++++ Mapping
+++++ 32 bit
++++++ for small-memory systems (below 1GB RAM)
+++++++ Kernel Logical address space starts at **PAGE_OFFSET** and goes through the **end of physical memory**
++++++ for large-memory systems (more than 1GB RAM)
+++++++ not all of the physical RAM can be mapped into kernel's address space
+++++++ kernel address space is the top 1GB of virtual address space, by default
+++++++ ~104 MB is reserved at the top of the kernel's memory space for non-contiguous allocations
*******:Only the **bottom part** of physical RAM (896MB, 0xc0000000 ~ 0xf800000) has a kernel logical address
********:this memory is called Low Memory
phys: 0x00000000 ~ 0xf8000000;
++++++++ High memory: beyond ~896MB
+++++++++ No logical address
+++++++++ Not physically contiguous when used in the kernel
+++++++_ -> 这种情况只会在32bit中出现，kernel virtual memory < physical memory
+++++ 64 bit
++++++ always enough kernel address space to accommodate all the RAM -> **那岂不是没必要用virtual address了？**
+++++ just beacause physical addresses could have a kernel logical address, it doesn't mean the kernel is actually using every byte of memory on the system
+++[#orange] Kernel Virtual Address
++++ the **vmalloc()** area
++++ Used for
+++++ **Non-contiguous** memory mappings
++++++ **large buffers** which could protentially be too large to find contiguous memory
++++++ **vmalloc()**
+++++ **Memory-mapped I/O**
++++++ Map peripheral devices int kernel
++++++ ioremap(), kmap()
++[#orange] User Virtual Address
+++ below PAGE_OFFSET
+++ Each process has its own mapping
++++ Threads share a mapping
++++ Complex behavior with **clone(2)**
++++ **struct mm**, pointers in **task_struct**
+++ Make the full use of MMU
++++ Only the used portions of RAM are mapped
++++ Memory is not contiguous
++++ Memory may be swapped out
++++ Memory can be moved
++++ Not suitable for use by the kernel (or for DMA)
++++ At context switch time, the memory map is changed (this is part of the overhead)
@endmindmap

PlantUML version 1.2022.4beta2(Unknown compile time)
(GPL source distribution)
Java Runtime: Java(TM) SE Runtime Environment
JVM: Java HotSpot(TM) 64-Bit Server VM
Default Encoding: UTF-8
Language: en
Country: US
--></g></svg>