<?xml version="1.0" encoding="UTF-8" standalone="no"?><svg xmlns="http://www.w3.org/2000/svg" xmlns:xlink="http://www.w3.org/1999/xlink" contentStyleType="text/css" height="190px" preserveAspectRatio="none" style="width:594px;height:190px;background:#FFFFFF;" version="1.1" viewBox="0 0 594 190" width="594px" zoomAndPan="magnify"><defs/><g><rect fill="#F1F1F1" height="36.2969" rx="12.5" ry="12.5" style="stroke:#181818;stroke-width:1.5;" width="223" x="10" y="76.2969"/><text fill="#000000" font-family="sans-serif" font-size="14" lengthAdjust="spacing" textLength="203" x="20" y="99.292">Virtual Addresses（3 kinds）</text><rect fill="#F1F1F1" height="36.2969" rx="12.5" ry="12.5" style="stroke:#181818;stroke-width:1.5;" width="67" x="283" y="48.1484"/><text fill="#000000" font-family="sans-serif" font-size="14" lengthAdjust="spacing" textLength="47" x="293" y="71.1436">Kernel</text><rect fill="#FFA500" height="36.2969" rx="12.5" ry="12.5" style="stroke:#181818;stroke-width:1.5;" width="182" x="400" y="20"/><text fill="#000000" font-family="sans-serif" font-size="14" lengthAdjust="spacing" textLength="162" x="410" y="42.9951">Kernel Logical Address</text><path d="M350,66.2969 L360,66.2969 C375,66.2969 375,38.1484 390,38.1484 L400,38.1484 " fill="none" style="stroke:#181818;stroke-width:1.0;"/><rect fill="#FFA500" height="36.2969" rx="12.5" ry="12.5" style="stroke:#181818;stroke-width:1.5;" width="179" x="400" y="76.2969"/><text fill="#000000" font-family="sans-serif" font-size="14" lengthAdjust="spacing" textLength="159" x="410" y="99.292">Kernel Virtual Address</text><path d="M350,66.2969 L360,66.2969 C375,66.2969 375,94.4453 390,94.4453 L400,94.4453 " fill="none" style="stroke:#181818;stroke-width:1.0;"/><path d="M233,94.4453 L243,94.4453 C258,94.4453 258,66.2969 273,66.2969 L283,66.2969 " fill="none" style="stroke:#181818;stroke-width:1.0;"/><rect fill="#F1F1F1" height="36.2969" rx="12.5" ry="12.5" style="stroke:#181818;stroke-width:1.5;" width="51" x="283" y="132.5938"/><text fill="#000000" font-family="sans-serif" font-size="14" lengthAdjust="spacing" textLength="31" x="293" y="155.5889">User</text><rect fill="#FFA500" height="36.2969" rx="12.5" ry="12.5" style="stroke:#181818;stroke-width:1.5;" width="163" x="384" y="132.5938"/><text fill="#000000" font-family="sans-serif" font-size="14" lengthAdjust="spacing" textLength="143" x="394" y="155.5889">User Virtual Address</text><path d="M334,150.7422 L344,150.7422 C359,150.7422 359,150.7422 374,150.7422 L384,150.7422 " fill="none" style="stroke:#181818;stroke-width:1.0;"/><path d="M233,94.4453 L243,94.4453 C258,94.4453 258,150.7422 273,150.7422 L283,150.7422 " fill="none" style="stroke:#181818;stroke-width:1.0;"/><!--MD5=[6903ad43f4f10ec56f881fa4aa75bd0b]
@startmindmap
+ Virtual Addresses（3 kinds）
++ Kernel
+++[#orange] Kernel Logical Address
+++[#orange] Kernel Virtual Address
++ User
+++[#orange] User Virtual Address
@endmindmap

PlantUML version 1.2022.4beta2(Unknown compile time)
(GPL source distribution)
Java Runtime: Java(TM) SE Runtime Environment
JVM: Java HotSpot(TM) 64-Bit Server VM
Default Encoding: UTF-8
Language: en
Country: US
--></g></svg>