<?xml version="1.0" encoding="UTF-8" standalone="no"?><svg xmlns="http://www.w3.org/2000/svg" xmlns:xlink="http://www.w3.org/1999/xlink" contentStyleType="text/css" height="1645px" preserveAspectRatio="none" style="width:2781px;height:1645px;background:#FFFFFF;" version="1.1" viewBox="0 0 2781 1645" width="2781px" zoomAndPan="magnify"><defs/><g><rect fill="#F1F1F1" height="36.2969" rx="12.5" ry="12.5" style="stroke:#181818;stroke-width:1.5;" width="223" x="10" y="803.7335"/><text fill="#000000" font-family="sans-serif" font-size="14" lengthAdjust="spacing" textLength="203" x="20" y="826.7286">Virtual Addresses（3 kinds）</text><rect fill="#F1F1F1" height="36.2969" rx="12.5" ry="12.5" style="stroke:#181818;stroke-width:1.5;" width="67" x="283" y="550.3976"/><text fill="#000000" font-family="sans-serif" font-size="14" lengthAdjust="spacing" textLength="47" x="293" y="573.3927">Kernel</text><rect fill="#FFA500" height="36.2969" rx="12.5" ry="12.5" style="stroke:#181818;stroke-width:1.5;" width="182" x="400" y="409.6554"/><text fill="#000000" font-family="sans-serif" font-size="14" lengthAdjust="spacing" textLength="162" x="410" y="432.6505">Kernel Logical Address</text><rect fill="#F1F1F1" height="36.2969" rx="12.5" ry="12.5" style="stroke:#181818;stroke-width:1.5;" width="245" x="632" y="48.4"/><text fill="#000000" font-family="sans-serif" font-size="14" lengthAdjust="spacing" textLength="225" x="642" y="71.3951">Normal address space of kernel</text><rect fill="#FFE4B5" height="36.7999" rx="12.5" ry="12.5" style="stroke:#181818;stroke-width:1.5;" width="92" x="927" y="20"/><text fill="#000000" font-family="monospace" font-size="14" lengthAdjust="spacing" textLength="72" x="937" y="42.9639">kmalloc()</text><path d="M877,66.5484 L887,66.5484 C902,66.5484 902,38.4 917,38.4 L927,38.4 " fill="none" style="stroke:#181818;stroke-width:1.0;"/><rect fill="#F1F1F1" height="36.2969" rx="12.5" ry="12.5" style="stroke:#181818;stroke-width:1.5;" width="216" x="927" y="76.7999"/><text fill="#000000" font-family="sans-serif" font-size="14" lengthAdjust="spacing" textLength="196" x="937" y="99.795">Kernel stacks (per process)</text><path d="M877,66.5484 L887,66.5484 C902,66.5484 902,94.9484 917,94.9484 L927,94.9484 " fill="none" style="stroke:#181818;stroke-width:1.0;"/><path d="M582,427.8038 L592,427.8038 C607,427.8038 607,66.5484 622,66.5484 L632,66.5484 " fill="none" style="stroke:#181818;stroke-width:1.0;"/><rect fill="#F1F1F1" height="36.2969" rx="12.5" ry="12.5" style="stroke:#181818;stroke-width:1.5;" width="344" x="632" y="170.3937"/><text fill="#000000" font-family="sans-serif" font-size="14" lengthAdjust="spacing" textLength="10" x="642" y="193.3888">A</text><text fill="#000000" font-family="sans-serif" font-size="14" font-weight="bold" lengthAdjust="spacing" textLength="95" x="656" y="193.3888">fixed offset</text><text fill="#000000" font-family="sans-serif" font-size="14" lengthAdjust="spacing" textLength="211" x="755" y="193.3888">from their physical addresses</text><text fill="#000000" font-family="sans-serif" font-size="14" lengthAdjust="spacing" textLength="286" x="1029" y="137.0919">Virt: 0xc0000000 --&gt; Phys: 0x00000000</text><path d="M976,188.5421 L986,188.5421 C1001,188.5421 1001,132.2452 1016,132.2452 L1026,132.2452 " fill="none" style="stroke:#181818;stroke-width:1.0;"/><rect fill="#F1F1F1" height="36.2969" rx="12.5" ry="12.5" style="stroke:#181818;stroke-width:1.5;" width="506" x="1026" y="151.3937"/><text fill="#000000" font-family="sans-serif" font-size="14" lengthAdjust="spacing" textLength="486" x="1036" y="174.3888">virtually-contiguous regions are by nature also physically contiguous</text><path d="M976,188.5421 L986,188.5421 C1001,188.5421 1001,169.5421 1016,169.5421 L1026,169.5421 " fill="none" style="stroke:#181818;stroke-width:1.0;"/><rect fill="#F1F1F1" height="36.2969" rx="12.5" ry="12.5" style="stroke:#181818;stroke-width:1.5;" width="646" x="1026" y="207.6906"/><text fill="#000000" font-family="sans-serif" font-size="14" lengthAdjust="spacing" textLength="517" x="1036" y="230.6857">combined with the inablity to be swapped out, makes them suitable for</text><text fill="#000000" font-family="sans-serif" font-size="14" font-weight="bold" lengthAdjust="spacing" textLength="36" x="1557" y="230.6857">DMA</text><text fill="#000000" font-family="sans-serif" font-size="14" lengthAdjust="spacing" textLength="65" x="1597" y="230.6857">transfers</text><path d="M976,188.5421 L986,188.5421 C1001,188.5421 1001,225.839 1016,225.839 L1026,225.839 " fill="none" style="stroke:#181818;stroke-width:1.0;"/><path d="M582,427.8038 L592,427.8038 C607,427.8038 607,188.5421 622,188.5421 L632,188.5421 " fill="none" style="stroke:#181818;stroke-width:1.0;"/><rect fill="#F1F1F1" height="36.2969" rx="12.5" ry="12.5" style="stroke:#181818;stroke-width:1.5;" width="341" x="632" y="292.6389"/><text fill="#000000" font-family="sans-serif" font-size="14" lengthAdjust="spacing" textLength="321" x="642" y="315.634">easy to convert between virtual and physical</text><rect fill="#FFE4B5" height="36.7999" rx="12.5" ry="12.5" style="stroke:#181818;stroke-width:1.5;" width="76" x="1023" y="263.9874"/><text fill="#000000" font-family="monospace" font-size="14" lengthAdjust="spacing" textLength="56" x="1033" y="286.9514">__pa(x)</text><path d="M973,310.7874 L983,310.7874 C998,310.7874 998,282.3874 1013,282.3874 L1023,282.3874 " fill="none" style="stroke:#181818;stroke-width:1.0;"/><rect fill="#FFE4B5" height="36.7999" rx="12.5" ry="12.5" style="stroke:#181818;stroke-width:1.5;" width="76" x="1023" y="320.7874"/><text fill="#000000" font-family="monospace" font-size="14" lengthAdjust="spacing" textLength="56" x="1033" y="343.7513">__va(x)</text><path d="M973,310.7874 L983,310.7874 C998,310.7874 998,339.1873 1013,339.1873 L1023,339.1873 " fill="none" style="stroke:#181818;stroke-width:1.0;"/><path d="M582,427.8038 L592,427.8038 C607,427.8038 607,310.7874 622,310.7874 L632,310.7874 " fill="none" style="stroke:#181818;stroke-width:1.0;"/><rect fill="#F1F1F1" height="36.2969" rx="12.5" ry="12.5" style="stroke:#181818;stroke-width:1.5;" width="211" x="632" y="348.9358"/><text fill="#000000" font-family="sans-serif" font-size="14" lengthAdjust="spacing" textLength="191" x="642" y="371.9309">Can never be swapped out</text><path d="M582,427.8038 L592,427.8038 C607,427.8038 607,367.0842 622,367.0842 L632,367.0842 " fill="none" style="stroke:#181818;stroke-width:1.0;"/><rect fill="#F1F1F1" height="36.2969" rx="12.5" ry="12.5" style="stroke:#181818;stroke-width:1.5;" width="82" x="632" y="602.2717"/><text fill="#000000" font-family="sans-serif" font-size="14" lengthAdjust="spacing" textLength="62" x="642" y="625.2668">Mapping</text><rect fill="#F1F1F1" height="36.2969" rx="12.5" ry="12.5" style="stroke:#181818;stroke-width:1.5;" width="62" x="764" y="545.9749"/><text fill="#000000" font-family="sans-serif" font-size="14" lengthAdjust="spacing" textLength="42" x="774" y="568.97">32 bit</text><rect fill="#F1F1F1" height="36.2969" rx="12.5" ry="12.5" style="stroke:#181818;stroke-width:1.5;" width="338" x="876" y="405.2327"/><text fill="#000000" font-family="sans-serif" font-size="14" lengthAdjust="spacing" textLength="318" x="886" y="428.2278">for small-memory systems (below 1GB RAM)</text><rect fill="#F1F1F1" height="36.2969" rx="12.5" ry="12.5" style="stroke:#181818;stroke-width:1.5;" width="759" x="1264" y="405.2327"/><text fill="#000000" font-family="sans-serif" font-size="14" lengthAdjust="spacing" textLength="271" x="1274" y="428.2278">Kernel Logical address space starts at</text><text fill="#000000" font-family="sans-serif" font-size="14" font-weight="bold" lengthAdjust="spacing" textLength="109" x="1549" y="428.2278">PAGE_OFFSET</text><text fill="#000000" font-family="sans-serif" font-size="14" lengthAdjust="spacing" textLength="154" x="1662" y="428.2278">and goes through the</text><text fill="#000000" font-family="sans-serif" font-size="14" font-weight="bold" lengthAdjust="spacing" textLength="193" x="1820" y="428.2278">end of physical memory</text><path d="M1214,423.3811 L1224,423.3811 C1239,423.3811 1239,423.3811 1254,423.3811 L1264,423.3811 " fill="none" style="stroke:#181818;stroke-width:1.0;"/><path d="M826,564.1233 L836,564.1233 C851,564.1233 851,423.3811 866,423.3811 L876,423.3811 " fill="none" style="stroke:#181818;stroke-width:1.0;"/><rect fill="#F1F1F1" height="36.2969" rx="12.5" ry="12.5" style="stroke:#181818;stroke-width:1.5;" width="369" x="876" y="574.1233"/><text fill="#000000" font-family="sans-serif" font-size="14" lengthAdjust="spacing" textLength="349" x="886" y="597.1184">for large-memory systems (more than 1GB RAM)</text><rect fill="#F1F1F1" height="36.2969" rx="12.5" ry="12.5" style="stroke:#181818;stroke-width:1.5;" width="526" x="1295" y="461.5295"/><text fill="#000000" font-family="sans-serif" font-size="14" lengthAdjust="spacing" textLength="506" x="1305" y="484.5247">not all of the physical RAM can be mapped into kernel's address space</text><path d="M1245,592.2717 L1255,592.2717 C1270,592.2717 1270,479.678 1285,479.678 L1295,479.678 " fill="none" style="stroke:#181818;stroke-width:1.0;"/><rect fill="#F1F1F1" height="36.2969" rx="12.5" ry="12.5" style="stroke:#181818;stroke-width:1.5;" width="533" x="1295" y="517.8264"/><text fill="#000000" font-family="sans-serif" font-size="14" lengthAdjust="spacing" textLength="513" x="1305" y="540.8215">kernel address space is the top 1GB of virtual address space, by default</text><path d="M1245,592.2717 L1255,592.2717 C1270,592.2717 1270,535.9749 1285,535.9749 L1295,535.9749 " fill="none" style="stroke:#181818;stroke-width:1.0;"/><rect fill="#F1F1F1" height="36.2969" rx="12.5" ry="12.5" style="stroke:#181818;stroke-width:1.5;" width="683" x="1295" y="574.1233"/><text fill="#000000" font-family="sans-serif" font-size="14" lengthAdjust="spacing" textLength="663" x="1305" y="597.1184">~104 MB is reserved at the top of the kernel's memory space for non-contiguous allocations</text><path d="M1245,592.2717 L1255,592.2717 C1270,592.2717 1270,592.2717 1285,592.2717 L1295,592.2717 " fill="none" style="stroke:#181818;stroke-width:1.0;"/><rect fill="#F1F1F1" height="36.2969" rx="12.5" ry="12.5" style="stroke:#181818;stroke-width:1.5;" width="755" x="1295" y="630.4202"/><text fill="#000000" font-family="sans-serif" font-size="14" lengthAdjust="spacing" textLength="61" x="1305" y="653.4153">Only the</text><text fill="#000000" font-family="sans-serif" font-size="14" font-weight="bold" lengthAdjust="spacing" textLength="101" x="1370" y="653.4153">bottom part</text><text fill="#000000" font-family="sans-serif" font-size="14" lengthAdjust="spacing" textLength="565" x="1475" y="653.4153">of physical RAM (896MB, 0xc0000000 ~ 0xf800000) has a kernel logical address</text><rect fill="#F1F1F1" height="36.2969" rx="12.5" ry="12.5" style="stroke:#181818;stroke-width:1.5;" width="516" x="2100" y="574.1233"/><text fill="#000000" font-family="sans-serif" font-size="14" lengthAdjust="spacing" textLength="496" x="2110" y="597.1184">this memory is called Low Memory (phys: 0x00000000 ~ 0xf8000000)</text><path d="M2050,648.5686 L2060,648.5686 C2075,648.5686 2075,592.2717 2090,592.2717 L2100,592.2717 " fill="none" style="stroke:#181818;stroke-width:1.0;"/><rect fill="#F1F1F1" height="36.2969" rx="12.5" ry="12.5" style="stroke:#181818;stroke-width:1.5;" width="242" x="2100" y="658.5686"/><text fill="#000000" font-family="sans-serif" font-size="14" lengthAdjust="spacing" textLength="222" x="2110" y="681.5637">High memory: beyond ~896MB</text><rect fill="#F1F1F1" height="36.2969" rx="12.5" ry="12.5" style="stroke:#181818;stroke-width:1.5;" width="148" x="2392" y="630.4202"/><text fill="#000000" font-family="sans-serif" font-size="14" lengthAdjust="spacing" textLength="128" x="2402" y="653.4153">No logical address</text><path d="M2342,676.717 L2352,676.717 C2367,676.717 2367,648.5686 2382,648.5686 L2392,648.5686 " fill="none" style="stroke:#181818;stroke-width:1.0;"/><rect fill="#F1F1F1" height="36.2969" rx="12.5" ry="12.5" style="stroke:#181818;stroke-width:1.5;" width="377" x="2392" y="686.717"/><text fill="#000000" font-family="sans-serif" font-size="14" lengthAdjust="spacing" textLength="357" x="2402" y="709.7122">Not physically contiguous when used in the kernel</text><path d="M2342,676.717 L2352,676.717 C2367,676.717 2367,704.8655 2382,704.8655 L2392,704.8655 " fill="none" style="stroke:#181818;stroke-width:1.0;"/><path d="M2050,648.5686 L2060,648.5686 C2075,648.5686 2075,676.717 2090,676.717 L2100,676.717 " fill="none" style="stroke:#181818;stroke-width:1.0;"/><path d="M1245,592.2717 L1255,592.2717 C1270,592.2717 1270,648.5686 1285,648.5686 L1295,648.5686 " fill="none" style="stroke:#181818;stroke-width:1.0;"/><text fill="#000000" font-family="sans-serif" font-size="14" lengthAdjust="spacing" textLength="513" x="1298" y="690.7122">-&gt; 这种情况只会在32bit中出现，kernel virtual memory &lt; physical memory</text><path d="M1245,592.2717 L1255,592.2717 C1270,592.2717 1270,685.8655 1285,685.8655 L1295,685.8655 " fill="none" style="stroke:#181818;stroke-width:1.0;"/><path d="M826,564.1233 L836,564.1233 C851,564.1233 851,592.2717 866,592.2717 L876,592.2717 " fill="none" style="stroke:#181818;stroke-width:1.0;"/><path d="M714,620.4202 L724,620.4202 C739,620.4202 739,564.1233 754,564.1233 L764,564.1233 " fill="none" style="stroke:#181818;stroke-width:1.0;"/><rect fill="#F1F1F1" height="36.2969" rx="12.5" ry="12.5" style="stroke:#181818;stroke-width:1.5;" width="62" x="764" y="743.0139"/><text fill="#000000" font-family="sans-serif" font-size="14" lengthAdjust="spacing" textLength="42" x="774" y="766.009">64 bit</text><rect fill="#F1F1F1" height="36.2969" rx="12.5" ry="12.5" style="stroke:#181818;stroke-width:1.5;" width="788" x="876" y="743.0139"/><text fill="#000000" font-family="sans-serif" font-size="14" lengthAdjust="spacing" textLength="491" x="886" y="766.009">always enough kernel address space to accommodate all the RAM -&gt;</text><text fill="#000000" font-family="sans-serif" font-size="14" font-weight="bold" lengthAdjust="spacing" textLength="273" x="1381" y="766.009">那岂不是没必要用virtual address了？</text><path d="M826,761.1624 L836,761.1624 C851,761.1624 851,761.1624 866,761.1624 L876,761.1624 " fill="none" style="stroke:#181818;stroke-width:1.0;"/><path d="M714,620.4202 L724,620.4202 C739,620.4202 739,761.1624 754,761.1624 L764,761.1624 " fill="none" style="stroke:#181818;stroke-width:1.0;"/><rect fill="#F1F1F1" height="36.2969" rx="12.5" ry="12.5" style="stroke:#181818;stroke-width:1.5;" width="1092" x="764" y="799.3108"/><text fill="#000000" font-family="sans-serif" font-size="14" lengthAdjust="spacing" textLength="1072" x="774" y="822.3059">just beacause physical addresses could have a kernel logical address, it doesn't mean the kernel is actually using every byte of memory on the system</text><path d="M714,620.4202 L724,620.4202 C739,620.4202 739,817.4592 754,817.4592 L764,817.4592 " fill="none" style="stroke:#181818;stroke-width:1.0;"/><path d="M582,427.8038 L592,427.8038 C607,427.8038 607,620.4202 622,620.4202 L632,620.4202 " fill="none" style="stroke:#181818;stroke-width:1.0;"/><path d="M350,568.546 L360,568.546 C375,568.546 375,427.8038 390,427.8038 L400,427.8038 " fill="none" style="stroke:#181818;stroke-width:1.0;"/><rect fill="#FFA500" height="36.2969" rx="12.5" ry="12.5" style="stroke:#181818;stroke-width:1.5;" width="179" x="400" y="968.2014"/><text fill="#000000" font-family="sans-serif" font-size="14" lengthAdjust="spacing" textLength="159" x="410" y="991.1965">Kernel Virtual Address</text><rect fill="#F1F1F1" height="36.2969" rx="12.5" ry="12.5" style="stroke:#181818;stroke-width:1.5;" width="160" x="629" y="855.6077"/><text fill="#000000" font-family="sans-serif" font-size="14" lengthAdjust="spacing" textLength="25" x="639" y="878.6028">the</text><text fill="#000000" font-family="sans-serif" font-size="14" font-weight="bold" lengthAdjust="spacing" textLength="76" x="668" y="878.6028">vmalloc()</text><text fill="#000000" font-family="sans-serif" font-size="14" lengthAdjust="spacing" textLength="31" x="748" y="878.6028">area</text><path d="M579,986.3499 L589,986.3499 C604,986.3499 604,873.7561 619,873.7561 L629,873.7561 " fill="none" style="stroke:#181818;stroke-width:1.0;"/><rect fill="#F1F1F1" height="36.2969" rx="12.5" ry="12.5" style="stroke:#181818;stroke-width:1.5;" width="79" x="629" y="996.3499"/><text fill="#000000" font-family="sans-serif" font-size="14" lengthAdjust="spacing" textLength="59" x="639" y="1019.345">Used for</text><rect fill="#F1F1F1" height="36.2969" rx="12.5" ry="12.5" style="stroke:#181818;stroke-width:1.5;" width="287" x="758" y="940.053"/><text fill="#000000" font-family="sans-serif" font-size="14" font-weight="bold" lengthAdjust="spacing" textLength="128" x="768" y="963.0481">Non-contiguous</text><text fill="#000000" font-family="sans-serif" font-size="14" lengthAdjust="spacing" textLength="135" x="900" y="963.0481">memory mappings</text><rect fill="#F1F1F1" height="36.2969" rx="12.5" ry="12.5" style="stroke:#181818;stroke-width:1.5;" width="591" x="1095" y="911.9045"/><text fill="#000000" font-family="sans-serif" font-size="14" font-weight="bold" lengthAdjust="spacing" textLength="105" x="1105" y="934.8997">large buffers</text><text fill="#000000" font-family="sans-serif" font-size="14" lengthAdjust="spacing" textLength="462" x="1214" y="934.8997">which could protentially be too large to find contiguous memory</text><path d="M1045,958.2014 L1055,958.2014 C1070,958.2014 1070,930.053 1085,930.053 L1095,930.053 " fill="none" style="stroke:#181818;stroke-width:1.0;"/><rect fill="#F1F1F1" height="36.2969" rx="12.5" ry="12.5" style="stroke:#181818;stroke-width:1.5;" width="96" x="1095" y="968.2014"/><text fill="#000000" font-family="sans-serif" font-size="14" font-weight="bold" lengthAdjust="spacing" textLength="76" x="1105" y="991.1965">vmalloc()</text><path d="M1045,958.2014 L1055,958.2014 C1070,958.2014 1070,986.3499 1085,986.3499 L1095,986.3499 " fill="none" style="stroke:#181818;stroke-width:1.0;"/><path d="M708,1014.4983 L718,1014.4983 C733,1014.4983 733,958.2014 748,958.2014 L758,958.2014 " fill="none" style="stroke:#181818;stroke-width:1.0;"/><rect fill="#F1F1F1" height="36.2969" rx="12.5" ry="12.5" style="stroke:#181818;stroke-width:1.5;" width="181" x="758" y="1052.6467"/><text fill="#000000" font-family="sans-serif" font-size="14" font-weight="bold" lengthAdjust="spacing" textLength="161" x="768" y="1075.6418">Memory-mapped I/O</text><rect fill="#F1F1F1" height="36.2969" rx="12.5" ry="12.5" style="stroke:#181818;stroke-width:1.5;" width="261" x="989" y="1024.4983"/><text fill="#000000" font-family="sans-serif" font-size="14" lengthAdjust="spacing" textLength="241" x="999" y="1047.4934">Map peripheral devices int kernel</text><path d="M939,1070.7952 L949,1070.7952 C964,1070.7952 964,1042.6467 979,1042.6467 L989,1042.6467 " fill="none" style="stroke:#181818;stroke-width:1.0;"/><rect fill="#F1F1F1" height="36.2969" rx="12.5" ry="12.5" style="stroke:#181818;stroke-width:1.5;" width="149" x="989" y="1080.7952"/><text fill="#000000" font-family="sans-serif" font-size="14" lengthAdjust="spacing" textLength="129" x="999" y="1103.7903">ioremap(), kmap()</text><path d="M939,1070.7952 L949,1070.7952 C964,1070.7952 964,1098.9436 979,1098.9436 L989,1098.9436 " fill="none" style="stroke:#181818;stroke-width:1.0;"/><path d="M708,1014.4983 L718,1014.4983 C733,1014.4983 733,1070.7952 748,1070.7952 L758,1070.7952 " fill="none" style="stroke:#181818;stroke-width:1.0;"/><path d="M579,986.3499 L589,986.3499 C604,986.3499 604,1014.4983 619,1014.4983 L629,1014.4983 " fill="none" style="stroke:#181818;stroke-width:1.0;"/><path d="M350,568.546 L360,568.546 C375,568.546 375,986.3499 390,986.3499 L400,986.3499 " fill="none" style="stroke:#181818;stroke-width:1.0;"/><path d="M233,821.882 L243,821.882 C258,821.882 258,568.546 273,568.546 L283,568.546 " fill="none" style="stroke:#181818;stroke-width:1.0;"/><rect fill="#FFA500" height="36.2969" rx="12.5" ry="12.5" style="stroke:#181818;stroke-width:1.5;" width="163" x="283" y="1362.2795"/><text fill="#000000" font-family="sans-serif" font-size="14" lengthAdjust="spacing" textLength="143" x="293" y="1385.2747">User Virtual Address</text><rect fill="#F1F1F1" height="36.2969" rx="12.5" ry="12.5" style="stroke:#181818;stroke-width:1.5;" width="167" x="496" y="1137.092"/><text fill="#000000" font-family="sans-serif" font-size="14" lengthAdjust="spacing" textLength="147" x="506" y="1160.0872">below PAGE_OFFSET</text><path d="M446,1380.428 L456,1380.428 C471,1380.428 471,1155.2405 486,1155.2405 L496,1155.2405 " fill="none" style="stroke:#181818;stroke-width:1.0;"/><rect fill="#F1F1F1" height="36.2969" rx="12.5" ry="12.5" style="stroke:#181818;stroke-width:1.5;" width="265" x="496" y="1193.3889"/><text fill="#000000" font-family="sans-serif" font-size="14" lengthAdjust="spacing" textLength="245" x="506" y="1216.384">Each process has its own mapping</text><rect fill="#F1F1F1" height="36.2969" rx="12.5" ry="12.5" style="stroke:#181818;stroke-width:1.5;" width="200" x="811" y="1137.092"/><text fill="#000000" font-family="sans-serif" font-size="14" lengthAdjust="spacing" textLength="180" x="821" y="1160.0872">Threads share a mapping</text><path d="M761,1211.5374 L771,1211.5374 C786,1211.5374 786,1155.2405 801,1155.2405 L811,1155.2405 " fill="none" style="stroke:#181818;stroke-width:1.0;"/><rect fill="#F1F1F1" height="36.2969" rx="12.5" ry="12.5" style="stroke:#181818;stroke-width:1.5;" width="256" x="811" y="1193.3889"/><text fill="#000000" font-family="sans-serif" font-size="14" lengthAdjust="spacing" textLength="166" x="821" y="1216.384">Complex behavior with</text><text fill="#000000" font-family="sans-serif" font-size="14" font-weight="bold" lengthAdjust="spacing" textLength="66" x="991" y="1216.384">clone(2)</text><path d="M761,1211.5374 L771,1211.5374 C786,1211.5374 786,1211.5374 801,1211.5374 L811,1211.5374 " fill="none" style="stroke:#181818;stroke-width:1.0;"/><rect fill="#F1F1F1" height="36.2969" rx="12.5" ry="12.5" style="stroke:#181818;stroke-width:1.5;" width="290" x="811" y="1249.6858"/><text fill="#000000" font-family="sans-serif" font-size="14" font-weight="bold" lengthAdjust="spacing" textLength="86" x="821" y="1272.6809">struct mm</text><text fill="#000000" font-family="sans-serif" font-size="14" lengthAdjust="spacing" textLength="86" x="907" y="1272.6809">, pointers in</text><text fill="#000000" font-family="sans-serif" font-size="14" font-weight="bold" lengthAdjust="spacing" textLength="94" x="997" y="1272.6809">task_struct</text><path d="M761,1211.5374 L771,1211.5374 C786,1211.5374 786,1267.8342 801,1267.8342 L811,1267.8342 " fill="none" style="stroke:#181818;stroke-width:1.0;"/><path d="M446,1380.428 L456,1380.428 C471,1380.428 471,1211.5374 486,1211.5374 L496,1211.5374 " fill="none" style="stroke:#181818;stroke-width:1.0;"/><rect fill="#F1F1F1" height="36.2969" rx="12.5" ry="12.5" style="stroke:#181818;stroke-width:1.5;" width="197" x="496" y="1446.7249"/><text fill="#000000" font-family="sans-serif" font-size="14" lengthAdjust="spacing" textLength="177" x="506" y="1469.72">Make the full use of MMU</text><rect fill="#F1F1F1" height="36.2969" rx="12.5" ry="12.5" style="stroke:#181818;stroke-width:1.5;" width="329" x="743" y="1305.9827"/><text fill="#000000" font-family="sans-serif" font-size="14" lengthAdjust="spacing" textLength="309" x="753" y="1328.9778">Only the used portions of RAM are mapped</text><path d="M693,1464.8733 L703,1464.8733 C718,1464.8733 718,1324.1311 733,1324.1311 L743,1324.1311 " fill="none" style="stroke:#181818;stroke-width:1.0;"/><rect fill="#F1F1F1" height="36.2969" rx="12.5" ry="12.5" style="stroke:#181818;stroke-width:1.5;" width="204" x="743" y="1362.2795"/><text fill="#000000" font-family="sans-serif" font-size="14" lengthAdjust="spacing" textLength="184" x="753" y="1385.2747">Memory is not contiguous</text><path d="M693,1464.8733 L703,1464.8733 C718,1464.8733 718,1380.428 733,1380.428 L743,1380.428 " fill="none" style="stroke:#181818;stroke-width:1.0;"/><rect fill="#F1F1F1" height="36.2969" rx="12.5" ry="12.5" style="stroke:#181818;stroke-width:1.5;" width="231" x="743" y="1418.5764"/><text fill="#000000" font-family="sans-serif" font-size="14" lengthAdjust="spacing" textLength="211" x="753" y="1441.5715">Memory may be swapped out</text><path d="M693,1464.8733 L703,1464.8733 C718,1464.8733 718,1436.7249 733,1436.7249 L743,1436.7249 " fill="none" style="stroke:#181818;stroke-width:1.0;"/><rect fill="#F1F1F1" height="36.2969" rx="12.5" ry="12.5" style="stroke:#181818;stroke-width:1.5;" width="183" x="743" y="1474.8733"/><text fill="#000000" font-family="sans-serif" font-size="14" lengthAdjust="spacing" textLength="163" x="753" y="1497.8684">Memory can be moved</text><path d="M693,1464.8733 L703,1464.8733 C718,1464.8733 718,1493.0217 733,1493.0217 L743,1493.0217 " fill="none" style="stroke:#181818;stroke-width:1.0;"/><rect fill="#F1F1F1" height="36.2969" rx="12.5" ry="12.5" style="stroke:#181818;stroke-width:1.5;" width="352" x="743" y="1531.1702"/><text fill="#000000" font-family="sans-serif" font-size="14" lengthAdjust="spacing" textLength="332" x="753" y="1554.1653">Not suitable for use by the kernel (or for DMA)</text><path d="M693,1464.8733 L703,1464.8733 C718,1464.8733 718,1549.3186 733,1549.3186 L743,1549.3186 " fill="none" style="stroke:#181818;stroke-width:1.0;"/><rect fill="#F1F1F1" height="36.2969" rx="12.5" ry="12.5" style="stroke:#181818;stroke-width:1.5;" width="609" x="743" y="1587.467"/><text fill="#000000" font-family="sans-serif" font-size="14" lengthAdjust="spacing" textLength="589" x="753" y="1610.4622">At context switch time, the memory map is changed (this is part of the overhead)</text><path d="M693,1464.8733 L703,1464.8733 C718,1464.8733 718,1605.6155 733,1605.6155 L743,1605.6155 " fill="none" style="stroke:#181818;stroke-width:1.0;"/><path d="M446,1380.428 L456,1380.428 C471,1380.428 471,1464.8733 486,1464.8733 L496,1464.8733 " fill="none" style="stroke:#181818;stroke-width:1.0;"/><path d="M233,821.882 L243,821.882 C258,821.882 258,1380.428 273,1380.428 L283,1380.428 " fill="none" style="stroke:#181818;stroke-width:1.0;"/><!--MD5=[864347c6126f94ea03b9dc4bfab3ee3d]
@startmindmap
+ Virtual Addresses（3 kinds）
++ Kernel
+++[#orange] Kernel Logical Address
++++ Normal address space of kernel
*****[#moccasin]:<code>
kmalloc()
</code>;
+++++ Kernel stacks (per process)
++++ A **fixed offset** from their physical addresses
+++++_ Virt: 0xc0000000 - -> Phys: 0x00000000
+++++ virtually-contiguous regions are by nature also physically contiguous
+++++ combined with the inablity to be swapped out, makes them suitable for **DMA** transfers
++++ easy to convert between virtual and physical
*****[#moccasin]:<code>
__pa(x)
</code>;
*****[#moccasin]:<code>
__va(x)
</code>;
++++ Can never be swapped out
++++ Mapping
+++++ 32 bit
++++++ for small-memory systems (below 1GB RAM)
+++++++ Kernel Logical address space starts at **PAGE_OFFSET** and goes through the **end of physical memory**
++++++ for large-memory systems (more than 1GB RAM)
+++++++ not all of the physical RAM can be mapped into kernel's address space
+++++++ kernel address space is the top 1GB of virtual address space, by default
+++++++ ~104 MB is reserved at the top of the kernel's memory space for non-contiguous allocations
+++++++ Only the **bottom part** of physical RAM (896MB, 0xc0000000 ~ 0xf800000) has a kernel logical address
++++++++ this memory is called Low Memory (phys: 0x00000000 ~ 0xf8000000)
++++++++ High memory: beyond ~896MB
+++++++++ No logical address
+++++++++ Not physically contiguous when used in the kernel
+++++++_ -> 这种情况只会在32bit中出现，kernel virtual memory < physical memory
+++++ 64 bit
++++++ always enough kernel address space to accommodate all the RAM -> **那岂不是没必要用virtual address了？**
+++++ just beacause physical addresses could have a kernel logical address, it doesn't mean the kernel is actually using every byte of memory on the system
+++[#orange] Kernel Virtual Address
++++ the **vmalloc()** area
++++ Used for
+++++ **Non-contiguous** memory mappings
++++++ **large buffers** which could protentially be too large to find contiguous memory
++++++ **vmalloc()**
+++++ **Memory-mapped I/O**
++++++ Map peripheral devices int kernel
++++++ ioremap(), kmap()
++[#orange] User Virtual Address
+++ below PAGE_OFFSET
+++ Each process has its own mapping
++++ Threads share a mapping
++++ Complex behavior with **clone(2)**
++++ **struct mm**, pointers in **task_struct**
+++ Make the full use of MMU
++++ Only the used portions of RAM are mapped
++++ Memory is not contiguous
++++ Memory may be swapped out
++++ Memory can be moved
++++ Not suitable for use by the kernel (or for DMA)
++++ At context switch time, the memory map is changed (this is part of the overhead)
@endmindmap

PlantUML version 1.2022.4beta2(Unknown compile time)
(GPL source distribution)
Java Runtime: Java(TM) SE Runtime Environment
JVM: Java HotSpot(TM) 64-Bit Server VM
Default Encoding: UTF-8
Language: en
Country: US
--></g></svg>