<?xml version="1.0" encoding="UTF-8" standalone="no"?><svg xmlns="http://www.w3.org/2000/svg" xmlns:xlink="http://www.w3.org/1999/xlink" contentStyleType="text/css" height="487px" preserveAspectRatio="none" style="width:950px;height:487px;background:#FFFFFF;" version="1.1" viewBox="0 0 950 487" width="950px" zoomAndPan="magnify"><defs/><g><rect fill="#F1F1F1" height="36.2969" rx="12.5" ry="12.5" style="stroke:#181818;stroke-width:1.5;" width="173" x="10" y="224.4844"/><text fill="#000000" font-family="sans-serif" font-size="14" lengthAdjust="spacing" textLength="153" x="20" y="247.4795">Single Address Space</text><text fill="#000000" font-family="sans-serif" font-size="14" lengthAdjust="spacing" textLength="400" x="236" y="23.9951">Address Mapping的一种方式，和下面的Virtual Memory对应</text><path d="M183,242.6328 L193,242.6328 C208,242.6328 208,19.1484 223,19.1484 L233,19.1484 " fill="none" style="stroke:#181818;stroke-width:1.0;"/><rect fill="#F1F1F1" height="36.2969" rx="12.5" ry="12.5" style="stroke:#181818;stroke-width:1.5;" width="193" x="233" y="55.5938"/><text fill="#000000" font-family="sans-serif" font-size="14" lengthAdjust="spacing" textLength="173" x="243" y="78.5889">Memory and Peripherals</text><rect fill="#F1F1F1" height="52.5938" rx="12.5" ry="12.5" style="stroke:#181818;stroke-width:1.5;" width="375" x="476" y="38.2969"/><text fill="#000000" font-family="sans-serif" font-size="14" lengthAdjust="spacing" textLength="355" x="486" y="61.292">share the same space, mapped to different parts</text><text fill="#000000" font-family="sans-serif" font-size="14" lengthAdjust="spacing" textLength="280" x="486" y="77.5889">不同的硬件在同一地址空间中，占据不同部分</text><path d="M426,73.7422 L436,73.7422 C451,73.7422 451,64.5938 466,64.5938 L476,64.5938 " fill="none" style="stroke:#181818;stroke-width:1.0;"/><text fill="#000000" font-family="sans-serif" font-size="14" lengthAdjust="spacing" textLength="118" x="479" y="114.8857">Peripherals: 外设</text><path d="M426,73.7422 L436,73.7422 C451,73.7422 451,110.0391 466,110.0391 L476,110.0391 " fill="none" style="stroke:#181818;stroke-width:1.0;"/><path d="M183,242.6328 L193,242.6328 C208,242.6328 208,73.7422 223,73.7422 L233,73.7422 " fill="none" style="stroke:#181818;stroke-width:1.0;"/><rect fill="#F1F1F1" height="36.2969" rx="12.5" ry="12.5" style="stroke:#181818;stroke-width:1.5;" width="392" x="233" y="194.6328"/><text fill="#000000" font-family="sans-serif" font-size="14" lengthAdjust="spacing" textLength="372" x="243" y="217.6279">All processes and OS share the same memory space</text><text fill="#000000" font-family="sans-serif" font-size="14" lengthAdjust="spacing" textLength="154" x="678" y="133.1826">共享地址空间带来的问题</text><path d="M625,212.7813 L635,212.7813 C650,212.7813 650,128.3359 665,128.3359 L675,128.3359 " fill="none" style="stroke:#181818;stroke-width:1.0;"/><rect fill="#F1F1F1" height="36.2969" rx="12.5" ry="12.5" style="stroke:#181818;stroke-width:1.5;" width="185" x="675" y="147.4844"/><text fill="#000000" font-family="sans-serif" font-size="14" lengthAdjust="spacing" textLength="165" x="685" y="170.4795">No memory protection</text><path d="M625,212.7813 L635,212.7813 C650,212.7813 650,165.6328 665,165.6328 L675,165.6328 " fill="none" style="stroke:#181818;stroke-width:1.0;"/><rect fill="#F1F1F1" height="36.2969" rx="12.5" ry="12.5" style="stroke:#181818;stroke-width:1.5;" width="263" x="675" y="203.7813"/><text fill="#000000" font-family="sans-serif" font-size="14" lengthAdjust="spacing" textLength="243" x="685" y="226.7764">Processes can stomp one another</text><path d="M625,212.7813 L635,212.7813 C650,212.7813 650,221.9297 665,221.9297 L675,221.9297 " fill="none" style="stroke:#181818;stroke-width:1.0;"/><rect fill="#F1F1F1" height="36.2969" rx="12.5" ry="12.5" style="stroke:#181818;stroke-width:1.5;" width="227" x="675" y="260.0781"/><text fill="#000000" font-family="sans-serif" font-size="14" lengthAdjust="spacing" textLength="207" x="685" y="283.0732">User space can stomp kernel</text><path d="M625,212.7813 L635,212.7813 C650,212.7813 650,278.2266 665,278.2266 L675,278.2266 " fill="none" style="stroke:#181818;stroke-width:1.0;"/><path d="M183,242.6328 L193,242.6328 C208,242.6328 208,212.7813 223,212.7813 L233,212.7813 " fill="none" style="stroke:#181818;stroke-width:1.0;"/><rect fill="#F1F1F1" height="36.2969" rx="12.5" ry="12.5" style="stroke:#181818;stroke-width:1.5;" width="101" x="233" y="372.6719"/><text fill="#000000" font-family="sans-serif" font-size="14" lengthAdjust="spacing" textLength="81" x="243" y="395.667">Limitations</text><rect fill="#F1F1F1" height="36.2969" rx="12.5" ry="12.5" style="stroke:#181818;stroke-width:1.5;" width="317" x="384" y="316.375"/><text fill="#000000" font-family="sans-serif" font-size="14" lengthAdjust="spacing" textLength="297" x="394" y="339.3701">Portable C programs expect flat memory</text><path d="M334,390.8203 L344,390.8203 C359,390.8203 359,334.5234 374,334.5234 L384,334.5234 " fill="none" style="stroke:#181818;stroke-width:1.0;"/><rect fill="#F1F1F1" height="36.2969" rx="12.5" ry="12.5" style="stroke:#181818;stroke-width:1.5;" width="162" x="384" y="372.6719"/><text fill="#000000" font-family="sans-serif" font-size="14" lengthAdjust="spacing" textLength="142" x="394" y="395.667">tricky management</text><path d="M334,390.8203 L344,390.8203 C359,390.8203 359,390.8203 374,390.8203 L384,390.8203 " fill="none" style="stroke:#181818;stroke-width:1.0;"/><rect fill="#F1F1F1" height="36.2969" rx="12.5" ry="12.5" style="stroke:#181818;stroke-width:1.5;" width="120" x="384" y="428.9688"/><text fill="#000000" font-family="sans-serif" font-size="14" lengthAdjust="spacing" textLength="100" x="394" y="451.9639">no protection</text><path d="M334,390.8203 L344,390.8203 C359,390.8203 359,447.1172 374,447.1172 L384,447.1172 " fill="none" style="stroke:#181818;stroke-width:1.0;"/><path d="M183,242.6328 L193,242.6328 C208,242.6328 208,390.8203 223,390.8203 L233,390.8203 " fill="none" style="stroke:#181818;stroke-width:1.0;"/><!--MD5=[12fc7ca26bb888ff388e0f18e802838e]
@startmindmap
+ Single Address Space
++_ Address Mapping的一种方式，和下面的Virtual Memory对应
++ Memory and Peripherals
***:share the same space, mapped to different parts
不同的硬件在同一地址空间中，占据不同部分;
+++_ Peripherals: 外设
++ All processes and OS share the same memory space
+++_ 共享地址空间带来的问题
+++ No memory protection
+++ Processes can stomp one another
+++ User space can stomp kernel
++ Limitations
+++ Portable C programs expect flat memory
+++ tricky management
+++ no protection
@endmindmap

PlantUML version 1.2022.4beta2(Unknown compile time)
(GPL source distribution)
Java Runtime: Java(TM) SE Runtime Environment
JVM: Java HotSpot(TM) 64-Bit Server VM
Default Encoding: UTF-8
Language: en
Country: US
--></g></svg>