<?xml version="1.0" encoding="UTF-8" standalone="no"?><svg xmlns="http://www.w3.org/2000/svg" xmlns:xlink="http://www.w3.org/1999/xlink" contentStyleType="text/css" height="1005px" preserveAspectRatio="none" style="width:1572px;height:1005px;background:#FFFFFF;" version="1.1" viewBox="0 0 1572 1005" width="1572px" zoomAndPan="magnify"><defs/><g><rect fill="#F1F1F1" height="36.2969" rx="12.5" ry="12.5" style="stroke:#181818;stroke-width:1.5;" width="135" x="10" y="483.7461"/><text fill="#000000" font-family="sans-serif" font-size="14" lengthAdjust="spacing" textLength="115" x="20" y="506.7412">Virtural Memory</text><rect fill="#F1F1F1" height="36.2969" rx="12.5" ry="12.5" style="stroke:#181818;stroke-width:1.5;" width="389" x="195" y="75.5938"/><text fill="#000000" font-family="sans-serif" font-size="14" lengthAdjust="spacing" textLength="369" x="205" y="98.5889">Defination: A system that uses an address mapping</text><rect fill="#F1F1F1" height="36.2969" rx="12.5" ry="12.5" style="stroke:#181818;stroke-width:1.5;" width="398" x="634" y="20"/><text fill="#000000" font-family="sans-serif" font-size="14" lengthAdjust="spacing" textLength="378" x="644" y="42.9951">Maps virtual address space to physical address space</text><path d="M584,93.7422 L594,93.7422 C609,93.7422 609,38.1484 624,38.1484 L634,38.1484 " fill="none" style="stroke:#181818;stroke-width:1.0;"/><text fill="#000000" font-family="sans-serif" font-size="14" lengthAdjust="spacing" textLength="413" x="637" y="80.292">和Single Addressing相比，virtual address不是真实的物理地址</text><path d="M584,93.7422 L594,93.7422 C609,93.7422 609,75.4453 624,75.4453 L634,75.4453 " fill="none" style="stroke:#181818;stroke-width:1.0;"/><rect fill="#F1F1F1" height="36.2969" rx="12.5" ry="12.5" style="stroke:#181818;stroke-width:1.5;" width="76" x="634" y="112.8906"/><text fill="#000000" font-family="sans-serif" font-size="14" lengthAdjust="spacing" textLength="56" x="644" y="135.8857">硬件资源</text><rect fill="#F1F1F1" height="36.2969" rx="12.5" ry="12.5" style="stroke:#181818;stroke-width:1.5;" width="114" x="760" y="94.5938"/><text fill="#000000" font-family="sans-serif" font-size="14" lengthAdjust="spacing" textLength="94" x="770" y="117.5889">physical RAM</text><path d="M710,131.0391 L720,131.0391 C735,131.0391 735,112.7422 750,112.7422 L760,112.7422 " fill="none" style="stroke:#181818;stroke-width:1.0;"/><text fill="#000000" font-family="sans-serif" font-size="14" lengthAdjust="spacing" textLength="124" x="763" y="154.8857">hardware devices</text><text fill="#000000" font-family="sans-serif" font-size="14" lengthAdjust="spacing" textLength="81" x="940" y="136.5889">PCI devices</text><path d="M887,150.0391 L897,150.0391 C912,150.0391 912,131.7422 927,131.7422 L937,131.7422 " fill="none" style="stroke:#181818;stroke-width:1.0;"/><text fill="#000000" font-family="sans-serif" font-size="14" lengthAdjust="spacing" textLength="65" x="940" y="154.8857">GPU RAM</text><path d="M887,150.0391 L897,150.0391 C912,150.0391 912,150.0391 927,150.0391 L937,150.0391 " fill="none" style="stroke:#181818;stroke-width:1.0;"/><text fill="#000000" font-family="sans-serif" font-size="14" lengthAdjust="spacing" textLength="122" x="940" y="173.1826">On-SoC IP blocks</text><path d="M887,150.0391 L897,150.0391 C912,150.0391 912,168.3359 927,168.3359 L937,168.3359 " fill="none" style="stroke:#181818;stroke-width:1.0;"/><path d="M710,131.0391 L720,131.0391 C735,131.0391 735,150.0391 750,150.0391 L760,150.0391 " fill="none" style="stroke:#181818;stroke-width:1.0;"/><path d="M584,93.7422 L594,93.7422 C609,93.7422 609,131.0391 624,131.0391 L634,131.0391 " fill="none" style="stroke:#181818;stroke-width:1.0;"/><path d="M145,501.8945 L155,501.8945 C170,501.8945 170,93.7422 185,93.7422 L195,93.7422 " fill="none" style="stroke:#181818;stroke-width:1.0;"/><rect fill="#F1F1F1" height="36.2969" rx="12.5" ry="12.5" style="stroke:#181818;stroke-width:1.5;" width="104" x="195" y="342.3008"/><text fill="#000000" font-family="sans-serif" font-size="14" lengthAdjust="spacing" textLength="84" x="205" y="365.2959">Advantages</text><rect fill="#F1F1F1" height="36.2969" rx="12.5" ry="12.5" style="stroke:#181818;stroke-width:1.5;" width="656" x="349" y="215.6328"/><text fill="#000000" font-family="sans-serif" font-size="14" lengthAdjust="spacing" textLength="411" x="359" y="238.6279">Each processes can have a different memory mapping -&gt;</text><text fill="#000000" font-family="sans-serif" font-size="14" font-weight="bold" lengthAdjust="spacing" textLength="221" x="774" y="238.6279">Built-in memory protection</text><rect fill="#F1F1F1" height="36.2969" rx="12.5" ry="12.5" style="stroke:#181818;stroke-width:1.5;" width="505" x="1055" y="187.4844"/><text fill="#000000" font-family="sans-serif" font-size="14" lengthAdjust="spacing" textLength="485" x="1065" y="210.4795">One process's RAM is inaccessible (and invisible) to other processes</text><path d="M1005,233.7813 L1015,233.7813 C1030,233.7813 1030,205.6328 1045,205.6328 L1055,205.6328 " fill="none" style="stroke:#181818;stroke-width:1.0;"/><rect fill="#F1F1F1" height="36.2969" rx="12.5" ry="12.5" style="stroke:#181818;stroke-width:1.5;" width="356" x="1055" y="243.7813"/><text fill="#000000" font-family="sans-serif" font-size="14" lengthAdjust="spacing" textLength="336" x="1065" y="266.7764">kernel RAM is invisible to user space processes</text><path d="M1005,233.7813 L1015,233.7813 C1030,233.7813 1030,261.9297 1045,261.9297 L1055,261.9297 " fill="none" style="stroke:#181818;stroke-width:1.0;"/><path d="M299,360.4492 L309,360.4492 C324,360.4492 324,233.7813 339,233.7813 L349,233.7813 " fill="none" style="stroke:#181818;stroke-width:1.0;"/><rect fill="#F1F1F1" height="36.2969" rx="12.5" ry="12.5" style="stroke:#181818;stroke-width:1.5;" width="183" x="349" y="271.9297"/><text fill="#000000" font-family="sans-serif" font-size="14" lengthAdjust="spacing" textLength="163" x="359" y="294.9248">Memory can be moved</text><path d="M299,360.4492 L309,360.4492 C324,360.4492 324,290.0781 339,290.0781 L349,290.0781 " fill="none" style="stroke:#181818;stroke-width:1.0;"/><rect fill="#F1F1F1" height="36.2969" rx="12.5" ry="12.5" style="stroke:#181818;stroke-width:1.5;" width="251" x="349" y="328.2266"/><text fill="#000000" font-family="sans-serif" font-size="14" lengthAdjust="spacing" textLength="231" x="359" y="351.2217">Memory can be swapped to disk</text><path d="M299,360.4492 L309,360.4492 C324,360.4492 324,346.375 339,346.375 L349,346.375 " fill="none" style="stroke:#181818;stroke-width:1.0;"/><rect fill="#F1F1F1" height="36.2969" rx="12.5" ry="12.5" style="stroke:#181818;stroke-width:1.5;" width="518" x="349" y="384.5234"/><text fill="#000000" font-family="sans-serif" font-size="14" lengthAdjust="spacing" textLength="498" x="359" y="407.5186">Map hardware device memory to a process's address space (GPU E.g.)</text><path d="M299,360.4492 L309,360.4492 C324,360.4492 324,402.6719 339,402.6719 L349,402.6719 " fill="none" style="stroke:#181818;stroke-width:1.0;"/><rect fill="#F1F1F1" height="36.2969" rx="12.5" ry="12.5" style="stroke:#181818;stroke-width:1.5;" width="611" x="349" y="440.8203"/><text fill="#000000" font-family="sans-serif" font-size="14" lengthAdjust="spacing" textLength="461" x="359" y="463.8154">Physical RAM can be mapped into multiple processes at once -&gt;</text><text fill="#000000" font-family="sans-serif" font-size="14" font-weight="bold" lengthAdjust="spacing" textLength="126" x="824" y="463.8154">Shared memory</text><path d="M299,360.4492 L309,360.4492 C324,360.4492 324,458.9688 339,458.9688 L349,458.9688 " fill="none" style="stroke:#181818;stroke-width:1.0;"/><rect fill="#F1F1F1" height="36.2969" rx="12.5" ry="12.5" style="stroke:#181818;stroke-width:1.5;" width="462" x="349" y="497.1172"/><text fill="#000000" font-family="sans-serif" font-size="14" lengthAdjust="spacing" textLength="442" x="359" y="520.1123">Access permissions for memory regions (read, write, execute)</text><path d="M299,360.4492 L309,360.4492 C324,360.4492 324,515.2656 339,515.2656 L349,515.2656 " fill="none" style="stroke:#181818;stroke-width:1.0;"/><path d="M145,501.8945 L155,501.8945 C170,501.8945 170,360.4492 185,360.4492 L195,360.4492 " fill="none" style="stroke:#181818;stroke-width:1.0;"/><rect fill="#F1F1F1" height="36.2969" rx="12.5" ry="12.5" style="stroke:#181818;stroke-width:1.5;" width="161" x="195" y="637.8594"/><text fill="#000000" font-family="sans-serif" font-size="14" lengthAdjust="spacing" textLength="141" x="205" y="660.8545">Two address spaces</text><rect fill="#F1F1F1" height="36.2969" rx="12.5" ry="12.5" style="stroke:#181818;stroke-width:1.5;" width="301" x="406" y="581.5625"/><text fill="#000000" font-family="sans-serif" font-size="14" lengthAdjust="spacing" textLength="196" x="416" y="604.5576">Physical addresses (used by</text><text fill="#000000" font-family="sans-serif" font-size="14" font-weight="bold" lengthAdjust="spacing" textLength="76" x="616" y="604.5576">hardware</text><text fill="#000000" font-family="sans-serif" font-size="14" lengthAdjust="spacing" textLength="5" x="692" y="604.5576">)</text><rect fill="#F1F1F1" height="36.2969" rx="12.5" ry="12.5" style="stroke:#181818;stroke-width:1.5;" width="53" x="757" y="553.4141"/><text fill="#000000" font-family="sans-serif" font-size="14" lengthAdjust="spacing" textLength="33" x="767" y="576.4092">DMA</text><path d="M707,599.7109 L717,599.7109 C732,599.7109 732,571.5625 747,571.5625 L757,571.5625 " fill="none" style="stroke:#181818;stroke-width:1.0;"/><rect fill="#F1F1F1" height="36.2969" rx="12.5" ry="12.5" style="stroke:#181818;stroke-width:1.5;" width="102" x="757" y="609.7109"/><text fill="#000000" font-family="sans-serif" font-size="14" lengthAdjust="spacing" textLength="82" x="767" y="632.7061">peripherals</text><path d="M707,599.7109 L717,599.7109 C732,599.7109 732,627.8594 747,627.8594 L757,627.8594 " fill="none" style="stroke:#181818;stroke-width:1.0;"/><path d="M356,656.0078 L366,656.0078 C381,656.0078 381,599.7109 396,599.7109 L406,599.7109 " fill="none" style="stroke:#181818;stroke-width:1.0;"/><rect fill="#F1F1F1" height="36.2969" rx="12.5" ry="12.5" style="stroke:#181818;stroke-width:1.5;" width="288" x="406" y="694.1563"/><text fill="#000000" font-family="sans-serif" font-size="14" lengthAdjust="spacing" textLength="186" x="416" y="717.1514">Virtual addresses (used by</text><text fill="#000000" font-family="sans-serif" font-size="14" font-weight="bold" lengthAdjust="spacing" textLength="73" x="606" y="717.1514">software</text><text fill="#000000" font-family="sans-serif" font-size="14" lengthAdjust="spacing" textLength="5" x="679" y="717.1514">)</text><rect fill="#F1F1F1" height="36.2969" rx="12.5" ry="12.5" style="stroke:#181818;stroke-width:1.5;" width="229" x="744" y="666.0078"/><text fill="#000000" font-family="sans-serif" font-size="14" lengthAdjust="spacing" textLength="209" x="754" y="689.0029">load/store instructions (RISC)</text><path d="M694,712.3047 L704,712.3047 C719,712.3047 719,684.1563 734,684.1563 L744,684.1563 " fill="none" style="stroke:#181818;stroke-width:1.0;"/><rect fill="#F1F1F1" height="36.2969" rx="12.5" ry="12.5" style="stroke:#181818;stroke-width:1.5;" width="313" x="744" y="722.3047"/><text fill="#000000" font-family="sans-serif" font-size="14" lengthAdjust="spacing" textLength="293" x="754" y="745.2998">Any instruction accessing memory (CISC)</text><path d="M694,712.3047 L704,712.3047 C719,712.3047 719,740.4531 734,740.4531 L744,740.4531 " fill="none" style="stroke:#181818;stroke-width:1.0;"/><path d="M356,656.0078 L366,656.0078 C381,656.0078 381,712.3047 396,712.3047 L406,712.3047 " fill="none" style="stroke:#181818;stroke-width:1.0;"/><path d="M145,501.8945 L155,501.8945 C170,501.8945 170,656.0078 185,656.0078 L195,656.0078 " fill="none" style="stroke:#181818;stroke-width:1.0;"/><rect fill="#F1F1F1" height="36.2969" rx="12.5" ry="12.5" style="stroke:#181818;stroke-width:1.5;" width="330" x="195" y="863.0469"/><text fill="#000000" font-family="sans-serif" font-size="14" lengthAdjust="spacing" textLength="267" x="205" y="886.042">Mapping is performed in hardware -&gt;</text><text fill="#000000" font-family="sans-serif" font-size="14" font-weight="bold" lengthAdjust="spacing" textLength="39" x="476" y="886.042">MMU</text><rect fill="#F1F1F1" height="36.2969" rx="12.5" ry="12.5" style="stroke:#181818;stroke-width:1.5;" width="523" x="575" y="778.6016"/><text fill="#000000" font-family="sans-serif" font-size="14" lengthAdjust="spacing" textLength="503" x="585" y="801.5967">No performance penalty for accessing *already-mapped* RAM regions</text><path d="M525,881.1953 L535,881.1953 C550,881.1953 550,796.75 565,796.75 L575,796.75 " fill="none" style="stroke:#181818;stroke-width:1.0;"/><rect fill="#F1F1F1" height="36.2969" rx="12.5" ry="12.5" style="stroke:#181818;stroke-width:1.5;" width="311" x="575" y="834.8984"/><text fill="#000000" font-family="sans-serif" font-size="14" lengthAdjust="spacing" textLength="291" x="585" y="857.8936">Permissions are handled without penalty</text><path d="M525,881.1953 L535,881.1953 C550,881.1953 550,853.0469 565,853.0469 L575,853.0469 " fill="none" style="stroke:#181818;stroke-width:1.0;"/><rect fill="#F1F1F1" height="36.2969" rx="12.5" ry="12.5" style="stroke:#181818;stroke-width:1.5;" width="572" x="575" y="891.1953"/><text fill="#000000" font-family="sans-serif" font-size="14" lengthAdjust="spacing" textLength="552" x="585" y="914.1904">The same CPU instructions are used for accessing RAM and mapped hardware</text><path d="M525,881.1953 L535,881.1953 C550,881.1953 550,909.3438 565,909.3438 L575,909.3438 " fill="none" style="stroke:#181818;stroke-width:1.0;"/><rect fill="#F1F1F1" height="36.2969" rx="12.5" ry="12.5" style="stroke:#181818;stroke-width:1.5;" width="925" x="575" y="947.4922"/><text fill="#000000" font-family="sans-serif" font-size="14" lengthAdjust="spacing" textLength="905" x="585" y="970.4873">Software, during its normal operation, will only use virtual addressed. (include kernel and user space, this is not true of all OS's)</text><path d="M525,881.1953 L535,881.1953 C550,881.1953 550,965.6406 565,965.6406 L575,965.6406 " fill="none" style="stroke:#181818;stroke-width:1.0;"/><path d="M145,501.8945 L155,501.8945 C170,501.8945 170,881.1953 185,881.1953 L195,881.1953 " fill="none" style="stroke:#181818;stroke-width:1.0;"/><!--MD5=[ef9fa2871adea620337da3ae22c22e55]
@startmindmap
+ Virtural Memory
++ Defination: A system that uses an address mapping
+++ Maps virtual address space to physical address space
+++_ 和Single Addressing相比，virtual address不是真实的物理地址
+++ 硬件资源
++++ physical RAM
++++_ hardware devices
+++++_ PCI devices
+++++_ GPU RAM
+++++_ On-SoC IP blocks
++ Advantages
+++ Each processes can have a different memory mapping -> **Built-in memory protection**
++++ One process's RAM is inaccessible (and invisible) to other processes
++++ kernel RAM is invisible to user space processes
+++ Memory can be moved
+++ Memory can be swapped to disk
+++ Map hardware device memory to a process's address space (GPU E.g.)
+++ Physical RAM can be mapped into multiple processes at once -> **Shared memory**
+++ Access permissions for memory regions (read, write, execute)
++ Two address spaces
+++ Physical addresses (used by **hardware**)
++++ DMA
++++ peripherals
+++ Virtual addresses (used by **software**)
++++ load/store instructions (RISC)
++++ Any instruction accessing memory (CISC)
++ Mapping is performed in hardware -> **MMU**
+++ No performance penalty for accessing *already-mapped* RAM regions
+++ Permissions are handled without penalty
+++ The same CPU instructions are used for accessing RAM and mapped hardware
+++ Software, during its normal operation, will only use virtual addressed. (include kernel and user space, this is not true of all OS's)
@endmindmap

PlantUML version 1.2022.4beta2(Unknown compile time)
(GPL source distribution)
Java Runtime: Java(TM) SE Runtime Environment
JVM: Java HotSpot(TM) 64-Bit Server VM
Default Encoding: UTF-8
Language: en
Country: US
--></g></svg>