<?xml version="1.0" encoding="UTF-8" standalone="no"?><svg xmlns="http://www.w3.org/2000/svg" xmlns:xlink="http://www.w3.org/1999/xlink" contentStyleType="text/css" height="472px" preserveAspectRatio="none" style="width:925px;height:472px;background:#FFFFFF;" version="1.1" viewBox="0 0 925 472" width="925px" zoomAndPan="magnify"><defs/><g><rect fill="#F1F1F1" height="36.2969" rx="12.5" ry="12.5" style="stroke:#181818;stroke-width:1.5;" width="223" x="10" y="217.0391"/><text fill="#000000" font-family="sans-serif" font-size="14" lengthAdjust="spacing" textLength="203" x="20" y="240.0342">Virtual address space is split</text><rect fill="#F1F1F1" height="36.2969" rx="12.5" ry="12.5" style="stroke:#181818;stroke-width:1.5;" width="271" x="283" y="48.1484"/><text fill="#000000" font-family="sans-serif" font-size="14" lengthAdjust="spacing" textLength="72" x="293" y="71.1436">splited by</text><text fill="#000000" font-family="sans-serif" font-size="14" font-weight="bold" lengthAdjust="spacing" textLength="175" x="369" y="71.1436">CONFIG_PAGE_OFFSET</text><rect fill="#F1F1F1" height="36.2969" rx="12.5" ry="12.5" style="stroke:#181818;stroke-width:1.5;" width="283" x="604" y="20"/><text fill="#000000" font-family="sans-serif" font-size="14" lengthAdjust="spacing" textLength="263" x="614" y="42.9951">the upper part is used for the kernel</text><path d="M554,66.2969 L564,66.2969 C579,66.2969 579,38.1484 594,38.1484 L604,38.1484 " fill="none" style="stroke:#181818;stroke-width:1.0;"/><rect fill="#F1F1F1" height="36.2969" rx="12.5" ry="12.5" style="stroke:#181818;stroke-width:1.5;" width="309" x="604" y="76.2969"/><text fill="#000000" font-family="sans-serif" font-size="14" lengthAdjust="spacing" textLength="289" x="614" y="99.292">the lower part is used for the user space</text><path d="M554,66.2969 L564,66.2969 C579,66.2969 579,94.4453 594,94.4453 L604,94.4453 " fill="none" style="stroke:#181818;stroke-width:1.0;"/><path d="M233,235.1875 L243,235.1875 C258,235.1875 258,66.2969 273,66.2969 L283,66.2969 " fill="none" style="stroke:#181818;stroke-width:1.0;"/><rect fill="#F1F1F1" height="36.2969" rx="12.5" ry="12.5" style="stroke:#181818;stroke-width:1.5;" width="62" x="283" y="217.0391"/><text fill="#000000" font-family="sans-serif" font-size="14" lengthAdjust="spacing" textLength="42" x="293" y="240.0342">32 bit</text><rect fill="#F1F1F1" height="36.2969" rx="12.5" ry="12.5" style="stroke:#181818;stroke-width:1.5;" width="170" x="395" y="132.5938"/><text fill="#000000" font-family="sans-serif" font-size="14" lengthAdjust="spacing" textLength="150" x="405" y="155.5889">the default split is at</text><text fill="#000000" font-family="sans-serif" font-size="14" font-weight="bold" lengthAdjust="spacing" textLength="99" x="618" y="155.5889">0xC0000000</text><text fill="#000000" font-family="sans-serif" font-size="14" lengthAdjust="spacing" textLength="40" x="721" y="155.5889">(3GB)</text><path d="M565,150.7422 L575,150.7422 C590,150.7422 590,150.7422 605,150.7422 L615,150.7422 " fill="none" style="stroke:#181818;stroke-width:1.0;"/><path d="M345,235.1875 L355,235.1875 C370,235.1875 370,150.7422 385,150.7422 L395,150.7422 " fill="none" style="stroke:#181818;stroke-width:1.0;"/><rect fill="#F1F1F1" height="36.2969" rx="12.5" ry="12.5" style="stroke:#181818;stroke-width:1.5;" width="355" x="395" y="188.8906"/><text fill="#000000" font-family="sans-serif" font-size="14" lengthAdjust="spacing" textLength="335" x="405" y="211.8857">kernel space: 0xC0000000 ~ 0xFFFFFFFF (1GB)</text><path d="M345,235.1875 L355,235.1875 C370,235.1875 370,207.0391 385,207.0391 L395,207.0391 " fill="none" style="stroke:#181818;stroke-width:1.0;"/><rect fill="#F1F1F1" height="36.2969" rx="12.5" ry="12.5" style="stroke:#181818;stroke-width:1.5;" width="340" x="395" y="245.1875"/><text fill="#000000" font-family="sans-serif" font-size="14" lengthAdjust="spacing" textLength="320" x="405" y="268.1826">user space: 0x00000000 ~ 0xBFFFFFFF (3GB)</text><path d="M345,235.1875 L355,235.1875 C370,235.1875 370,263.3359 385,263.3359 L395,263.3359 " fill="none" style="stroke:#181818;stroke-width:1.0;"/><rect fill="#F1F1F1" height="36.2969" rx="12.5" ry="12.5" style="stroke:#181818;stroke-width:1.5;" width="425" x="395" y="301.4844"/><text fill="#000000" font-family="sans-serif" font-size="14" lengthAdjust="spacing" textLength="405" x="405" y="324.4795">See also CONFIG_VMSPLIT_1G, CONFIG_VMSPLIT_2G, etc.</text><path d="M345,235.1875 L355,235.1875 C370,235.1875 370,319.6328 385,319.6328 L395,319.6328 " fill="none" style="stroke:#181818;stroke-width:1.0;"/><path d="M233,235.1875 L243,235.1875 C258,235.1875 258,235.1875 273,235.1875 L283,235.1875 " fill="none" style="stroke:#181818;stroke-width:1.0;"/><rect fill="#F1F1F1" height="36.2969" rx="12.5" ry="12.5" style="stroke:#181818;stroke-width:1.5;" width="62" x="283" y="385.9297"/><text fill="#000000" font-family="sans-serif" font-size="14" lengthAdjust="spacing" textLength="42" x="293" y="408.9248">64 bit</text><rect fill="#F1F1F1" height="36.2969" rx="12.5" ry="12.5" style="stroke:#181818;stroke-width:1.5;" width="69" x="395" y="357.7813"/><text fill="#000000" font-family="sans-serif" font-size="14" lengthAdjust="spacing" textLength="49" x="405" y="380.7764">ARM64</text><text fill="#000000" font-family="sans-serif" font-size="14" lengthAdjust="spacing" textLength="176" x="517" y="380.7764">0x 8000 0000 0000 0000</text><path d="M464,375.9297 L474,375.9297 C489,375.9297 489,375.9297 504,375.9297 L514,375.9297 " fill="none" style="stroke:#181818;stroke-width:1.0;"/><path d="M345,404.0781 L355,404.0781 C370,404.0781 370,375.9297 385,375.9297 L395,375.9297 " fill="none" style="stroke:#181818;stroke-width:1.0;"/><rect fill="#F1F1F1" height="36.2969" rx="12.5" ry="12.5" style="stroke:#181818;stroke-width:1.5;" width="69" x="395" y="414.0781"/><text fill="#000000" font-family="sans-serif" font-size="14" lengthAdjust="spacing" textLength="49" x="405" y="437.0732">x86_64</text><text fill="#000000" font-family="sans-serif" font-size="14" lengthAdjust="spacing" textLength="171" x="517" y="437.0732">0x FFFF 8800 0000 0000</text><path d="M464,432.2266 L474,432.2266 C489,432.2266 489,432.2266 504,432.2266 L514,432.2266 " fill="none" style="stroke:#181818;stroke-width:1.0;"/><path d="M345,404.0781 L355,404.0781 C370,404.0781 370,432.2266 385,432.2266 L395,432.2266 " fill="none" style="stroke:#181818;stroke-width:1.0;"/><path d="M233,235.1875 L243,235.1875 C258,235.1875 258,404.0781 273,404.0781 L283,404.0781 " fill="none" style="stroke:#181818;stroke-width:1.0;"/><!--MD5=[ac64dde2457ea04c939a138f8dc98388]
@startmindmap
+ Virtual address space is split
++ splited by **CONFIG_PAGE_OFFSET**
+++ the upper part is used for the kernel
+++ the lower part is used for the user space
++ 32 bit
+++ the default split is at
++++_ **0xC0000000** (3GB)
+++ kernel space: 0xC0000000 ~ 0xFFFFFFFF (1GB)
+++ user space: 0x00000000 ~ 0xBFFFFFFF (3GB)
+++ See also CONFIG_VMSPLIT_1G, CONFIG_VMSPLIT_2G, etc.
++ 64 bit
+++ ARM64
++++_ 0x 8000 0000 0000 0000
+++ x86_64
++++_ 0x FFFF 8800 0000 0000
@endmindmap

PlantUML version 1.2022.4beta2(Unknown compile time)
(GPL source distribution)
Java Runtime: Java(TM) SE Runtime Environment
JVM: Java HotSpot(TM) 64-Bit Server VM
Default Encoding: UTF-8
Language: en
Country: US
--></g></svg>