<?xml version="1.0" encoding="UTF-8" standalone="no"?><svg xmlns="http://www.w3.org/2000/svg" xmlns:xlink="http://www.w3.org/1999/xlink" contentStyleType="text/css" height="190px" preserveAspectRatio="none" style="width:1758px;height:190px;background:#FFFFFF;" version="1.1" viewBox="0 0 1758 190" width="1758px" zoomAndPan="magnify"><defs/><g><rect fill="#F1F1F1" height="36.2969" rx="12.5" ry="12.5" style="stroke:#181818;stroke-width:1.5;" width="61" x="10" y="76.2969"/><text fill="#000000" font-family="sans-serif" font-size="14" lengthAdjust="spacing" textLength="41" x="20" y="99.292">Stack</text><rect fill="#F1F1F1" height="36.2969" rx="12.5" ry="12.5" style="stroke:#181818;stroke-width:1.5;" width="138" x="121" y="76.2969"/><text fill="#000000" font-family="sans-serif" font-size="14" lengthAdjust="spacing" textLength="118" x="131" y="99.292">Stack Expansion</text><rect fill="#F1F1F1" height="36.2969" rx="12.5" ry="12.5" style="stroke:#181818;stroke-width:1.5;" width="596" x="309" y="20"/><text fill="#000000" font-family="sans-serif" font-size="14" lengthAdjust="spacing" textLength="576" x="319" y="42.9951">if a process accesses memory beyond its stack, the CPU will trigger a page fault.</text><path d="M259,94.4453 L269,94.4453 C284,94.4453 284,38.1484 299,38.1484 L309,38.1484 " fill="none" style="stroke:#181818;stroke-width:1.0;"/><rect fill="#F1F1F1" height="36.2969" rx="12.5" ry="12.5" style="stroke:#181818;stroke-width:1.5;" width="844" x="309" y="76.2969"/><text fill="#000000" font-family="sans-serif" font-size="14" lengthAdjust="spacing" textLength="824" x="319" y="99.292">The page fault handler detects the address is just beyond the stack, and allocates a new page to extend the stack.</text><rect fill="#F1F1F1" height="36.2969" rx="12.5" ry="12.5" style="stroke:#181818;stroke-width:1.5;" width="543" x="1203" y="76.2969"/><text fill="#000000" font-family="sans-serif" font-size="14" lengthAdjust="spacing" textLength="523" x="1213" y="99.292">The new page will not be physically contiguous with the rest of the stack</text><path d="M1153,94.4453 L1163,94.4453 C1178,94.4453 1178,94.4453 1193,94.4453 L1203,94.4453 " fill="none" style="stroke:#181818;stroke-width:1.0;"/><path d="M259,94.4453 L269,94.4453 C284,94.4453 284,94.4453 299,94.4453 L309,94.4453 " fill="none" style="stroke:#181818;stroke-width:1.0;"/><rect fill="#F1F1F1" height="36.2969" rx="12.5" ry="12.5" style="stroke:#181818;stroke-width:1.5;" width="345" x="309" y="132.5938"/><text fill="#000000" font-family="sans-serif" font-size="14" lengthAdjust="spacing" textLength="325" x="319" y="155.5889">See __do_page_fault() in arch/arm/mm/fault.c</text><path d="M259,94.4453 L269,94.4453 C284,94.4453 284,150.7422 299,150.7422 L309,150.7422 " fill="none" style="stroke:#181818;stroke-width:1.0;"/><path d="M71,94.4453 L81,94.4453 C96,94.4453 96,94.4453 111,94.4453 L121,94.4453 " fill="none" style="stroke:#181818;stroke-width:1.0;"/><!--MD5=[051a25ddc96e3b4cb9f5f390776e7138]
@startmindmap
+ Stack
++ Stack Expansion
+++ if a process accesses memory beyond its stack, the CPU will trigger a page fault.
+++ The page fault handler detects the address is just beyond the stack, and allocates a new page to extend the stack.
++++ The new page will not be physically contiguous with the rest of the stack
+++ See __do_page_fault() in arch/arm/mm/fault.c
@endmindmap

PlantUML version 1.2022.4beta2(Unknown compile time)
(GPL source distribution)
Java Runtime: Java(TM) SE Runtime Environment
JVM: Java HotSpot(TM) 64-Bit Server VM
Default Encoding: UTF-8
Language: en
Country: US
--></g></svg>