<?xml version="1.0" encoding="UTF-8" standalone="no"?><svg xmlns="http://www.w3.org/2000/svg" xmlns:xlink="http://www.w3.org/1999/xlink" contentStyleType="text/css" height="581px" preserveAspectRatio="none" style="width:975px;height:581px;background:#FFFFFF;" version="1.1" viewBox="0 0 975 581" width="975px" zoomAndPan="magnify"><defs/><g><rect fill="#F1F1F1" height="36.2969" rx="12.5" ry="12.5" style="stroke:#181818;stroke-width:1.5;" width="173" x="10" y="271.6328"/><text fill="#000000" font-family="sans-serif" font-size="14" lengthAdjust="spacing" textLength="153" x="20" y="294.6279">Single Address Space</text><text fill="#000000" font-family="sans-serif" font-size="14" lengthAdjust="spacing" textLength="400" x="236" y="33.8467">Address Mapping的一种方式，和下面的Virtual Memory对应</text><path d="M183,289.7813 L193,289.7813 C208,289.7813 208,29 223,29 L233,29 " fill="none" style="stroke:#181818;stroke-width:1.0;"/><rect fill="#F1F1F1" height="36.2969" rx="12.5" ry="12.5" style="stroke:#181818;stroke-width:1.5;" width="482" x="233" y="48.1484"/><text fill="#000000" font-family="sans-serif" font-size="14" lengthAdjust="spacing" textLength="462" x="243" y="71.1436">顾名思义，将所有的硬件资源（这里不局限内存）映射到单一的地址空间中</text><rect fill="#F1F1F1" height="36.2969" rx="12.5" ry="12.5" style="stroke:#181818;stroke-width:1.5;" width="146" x="765" y="20"/><text fill="#000000" font-family="sans-serif" font-size="14" lengthAdjust="spacing" textLength="126" x="775" y="42.9951">硬件资源不局限内存</text><path d="M715,66.2969 L725,66.2969 C740,66.2969 740,38.1484 755,38.1484 L765,38.1484 " fill="none" style="stroke:#181818;stroke-width:1.0;"/><rect fill="#F1F1F1" height="36.2969" rx="12.5" ry="12.5" style="stroke:#181818;stroke-width:1.5;" width="164" x="765" y="76.2969"/><text fill="#000000" font-family="sans-serif" font-size="14" lengthAdjust="spacing" textLength="144" x="775" y="99.292">Single修饰的是Space</text><path d="M715,66.2969 L725,66.2969 C740,66.2969 740,94.4453 755,94.4453 L765,94.4453 " fill="none" style="stroke:#181818;stroke-width:1.0;"/><path d="M183,289.7813 L193,289.7813 C208,289.7813 208,66.2969 223,66.2969 L233,66.2969 " fill="none" style="stroke:#181818;stroke-width:1.0;"/><rect fill="#F1F1F1" height="36.2969" rx="12.5" ry="12.5" style="stroke:#181818;stroke-width:1.5;" width="305" x="233" y="149.8906"/><text fill="#000000" font-family="sans-serif" font-size="14" lengthAdjust="spacing" textLength="285" x="243" y="172.8857">映射地址的硬件：Memory and Peripherals</text><rect fill="#F1F1F1" height="52.5938" rx="12.5" ry="12.5" style="stroke:#181818;stroke-width:1.5;" width="375" x="588" y="132.5938"/><text fill="#000000" font-family="sans-serif" font-size="14" lengthAdjust="spacing" textLength="355" x="598" y="155.5889">share the same space, mapped to different parts</text><text fill="#000000" font-family="sans-serif" font-size="14" lengthAdjust="spacing" textLength="280" x="598" y="171.8857">不同的硬件在同一地址空间中，占据不同部分</text><path d="M538,168.0391 L548,168.0391 C563,168.0391 563,158.8906 578,158.8906 L588,158.8906 " fill="none" style="stroke:#181818;stroke-width:1.0;"/><text fill="#000000" font-family="sans-serif" font-size="14" lengthAdjust="spacing" textLength="118" x="591" y="209.1826">Peripherals: 外设</text><path d="M538,168.0391 L548,168.0391 C563,168.0391 563,204.3359 578,204.3359 L588,204.3359 " fill="none" style="stroke:#181818;stroke-width:1.0;"/><path d="M183,289.7813 L193,289.7813 C208,289.7813 208,168.0391 223,168.0391 L233,168.0391 " fill="none" style="stroke:#181818;stroke-width:1.0;"/><rect fill="#F1F1F1" height="36.2969" rx="12.5" ry="12.5" style="stroke:#181818;stroke-width:1.5;" width="392" x="233" y="288.9297"/><text fill="#000000" font-family="sans-serif" font-size="14" lengthAdjust="spacing" textLength="372" x="243" y="311.9248">All processes and OS share the same memory space</text><text fill="#000000" font-family="sans-serif" font-size="14" lengthAdjust="spacing" textLength="154" x="678" y="227.4795">共享地址空间带来的问题</text><path d="M625,307.0781 L635,307.0781 C650,307.0781 650,222.6328 665,222.6328 L675,222.6328 " fill="none" style="stroke:#181818;stroke-width:1.0;"/><rect fill="#F1F1F1" height="36.2969" rx="12.5" ry="12.5" style="stroke:#181818;stroke-width:1.5;" width="185" x="675" y="241.7813"/><text fill="#000000" font-family="sans-serif" font-size="14" lengthAdjust="spacing" textLength="165" x="685" y="264.7764">No memory protection</text><path d="M625,307.0781 L635,307.0781 C650,307.0781 650,259.9297 665,259.9297 L675,259.9297 " fill="none" style="stroke:#181818;stroke-width:1.0;"/><rect fill="#F1F1F1" height="36.2969" rx="12.5" ry="12.5" style="stroke:#181818;stroke-width:1.5;" width="263" x="675" y="298.0781"/><text fill="#000000" font-family="sans-serif" font-size="14" lengthAdjust="spacing" textLength="243" x="685" y="321.0732">Processes can stomp one another</text><path d="M625,307.0781 L635,307.0781 C650,307.0781 650,316.2266 665,316.2266 L675,316.2266 " fill="none" style="stroke:#181818;stroke-width:1.0;"/><rect fill="#F1F1F1" height="36.2969" rx="12.5" ry="12.5" style="stroke:#181818;stroke-width:1.5;" width="227" x="675" y="354.375"/><text fill="#000000" font-family="sans-serif" font-size="14" lengthAdjust="spacing" textLength="207" x="685" y="377.3701">User space can stomp kernel</text><path d="M625,307.0781 L635,307.0781 C650,307.0781 650,372.5234 665,372.5234 L675,372.5234 " fill="none" style="stroke:#181818;stroke-width:1.0;"/><path d="M183,289.7813 L193,289.7813 C208,289.7813 208,307.0781 223,307.0781 L233,307.0781 " fill="none" style="stroke:#181818;stroke-width:1.0;"/><rect fill="#F1F1F1" height="36.2969" rx="12.5" ry="12.5" style="stroke:#181818;stroke-width:1.5;" width="101" x="233" y="466.9688"/><text fill="#000000" font-family="sans-serif" font-size="14" lengthAdjust="spacing" textLength="81" x="243" y="489.9639">Limitations</text><rect fill="#F1F1F1" height="36.2969" rx="12.5" ry="12.5" style="stroke:#181818;stroke-width:1.5;" width="317" x="384" y="410.6719"/><text fill="#000000" font-family="sans-serif" font-size="14" lengthAdjust="spacing" textLength="297" x="394" y="433.667">Portable C programs expect flat memory</text><path d="M334,485.1172 L344,485.1172 C359,485.1172 359,428.8203 374,428.8203 L384,428.8203 " fill="none" style="stroke:#181818;stroke-width:1.0;"/><rect fill="#F1F1F1" height="36.2969" rx="12.5" ry="12.5" style="stroke:#181818;stroke-width:1.5;" width="162" x="384" y="466.9688"/><text fill="#000000" font-family="sans-serif" font-size="14" lengthAdjust="spacing" textLength="142" x="394" y="489.9639">tricky management</text><path d="M334,485.1172 L344,485.1172 C359,485.1172 359,485.1172 374,485.1172 L384,485.1172 " fill="none" style="stroke:#181818;stroke-width:1.0;"/><rect fill="#F1F1F1" height="36.2969" rx="12.5" ry="12.5" style="stroke:#181818;stroke-width:1.5;" width="120" x="384" y="523.2656"/><text fill="#000000" font-family="sans-serif" font-size="14" lengthAdjust="spacing" textLength="100" x="394" y="546.2607">no protection</text><path d="M334,485.1172 L344,485.1172 C359,485.1172 359,541.4141 374,541.4141 L384,541.4141 " fill="none" style="stroke:#181818;stroke-width:1.0;"/><path d="M183,289.7813 L193,289.7813 C208,289.7813 208,485.1172 223,485.1172 L233,485.1172 " fill="none" style="stroke:#181818;stroke-width:1.0;"/><!--MD5=[ec614f9b7b48549535a30590026af589]
@startmindmap
+ Single Address Space
++_ Address Mapping的一种方式，和下面的Virtual Memory对应
++ 顾名思义，将所有的硬件资源（这里不局限内存）映射到单一的地址空间中
+++ 硬件资源不局限内存
+++ Single修饰的是Space
++ 映射地址的硬件：Memory and Peripherals
***:share the same space, mapped to different parts
不同的硬件在同一地址空间中，占据不同部分;
+++_ Peripherals: 外设
++ All processes and OS share the same memory space
+++_ 共享地址空间带来的问题
+++ No memory protection
+++ Processes can stomp one another
+++ User space can stomp kernel
++ Limitations
+++ Portable C programs expect flat memory
+++ tricky management
+++ no protection
@endmindmap

PlantUML version 1.2022.4beta2(Unknown compile time)
(GPL source distribution)
Java Runtime: Java(TM) SE Runtime Environment
JVM: Java HotSpot(TM) 64-Bit Server VM
Default Encoding: UTF-8
Language: en
Country: US
--></g></svg>