<?xml version="1.0" encoding="UTF-8" standalone="no"?><svg xmlns="http://www.w3.org/2000/svg" xmlns:xlink="http://www.w3.org/1999/xlink" contentStyleType="text/css" height="1736px" preserveAspectRatio="none" style="width:2125px;height:1736px;background:#FFFFFF;" version="1.1" viewBox="0 0 2125 1736" width="2125px" zoomAndPan="magnify"><defs/><g><rect fill="#F1F1F1" height="36.2969" rx="12.5" ry="12.5" style="stroke:#181818;stroke-width:1.5;" width="223" x="10" y="849.1788"/><text fill="#000000" font-family="sans-serif" font-size="14" lengthAdjust="spacing" textLength="203" x="20" y="872.174">Virtual Addresses（3 kinds）</text><rect fill="#F1F1F1" height="36.2969" rx="12.5" ry="12.5" style="stroke:#181818;stroke-width:1.5;" width="67" x="283" y="595.8429"/><text fill="#000000" font-family="sans-serif" font-size="14" lengthAdjust="spacing" textLength="47" x="293" y="618.838">Kernel</text><rect fill="#FFA500" height="36.2969" rx="12.5" ry="12.5" style="stroke:#181818;stroke-width:1.5;" width="182" x="400" y="455.1007"/><text fill="#000000" font-family="sans-serif" font-size="14" lengthAdjust="spacing" textLength="162" x="410" y="478.0958">Kernel Logical Address</text><rect fill="#F1F1F1" height="36.2969" rx="12.5" ry="12.5" style="stroke:#181818;stroke-width:1.5;" width="245" x="632" y="48.4"/><text fill="#000000" font-family="sans-serif" font-size="14" lengthAdjust="spacing" textLength="225" x="642" y="71.3951">Normal address space of kernel</text><rect fill="#FFE4B5" height="36.7999" rx="12.5" ry="12.5" style="stroke:#181818;stroke-width:1.5;" width="92" x="927" y="20"/><text fill="#000000" font-family="monospace" font-size="14" lengthAdjust="spacing" textLength="72" x="937" y="42.9639">kmalloc()</text><path d="M877,66.5484 L887,66.5484 C902,66.5484 902,38.4 917,38.4 L927,38.4 " fill="none" style="stroke:#181818;stroke-width:1.0;"/><rect fill="#F1F1F1" height="36.2969" rx="12.5" ry="12.5" style="stroke:#181818;stroke-width:1.5;" width="216" x="927" y="76.7999"/><text fill="#000000" font-family="sans-serif" font-size="14" lengthAdjust="spacing" textLength="196" x="937" y="99.795">Kernel stacks (per process)</text><path d="M877,66.5484 L887,66.5484 C902,66.5484 902,94.9484 917,94.9484 L927,94.9484 " fill="none" style="stroke:#181818;stroke-width:1.0;"/><path d="M582,473.2491 L592,473.2491 C607,473.2491 607,66.5484 622,66.5484 L632,66.5484 " fill="none" style="stroke:#181818;stroke-width:1.0;"/><rect fill="#F1F1F1" height="36.2969" rx="12.5" ry="12.5" style="stroke:#181818;stroke-width:1.5;" width="344" x="632" y="170.3937"/><text fill="#000000" font-family="sans-serif" font-size="14" lengthAdjust="spacing" textLength="10" x="642" y="193.3888">A</text><text fill="#000000" font-family="sans-serif" font-size="14" font-weight="bold" lengthAdjust="spacing" textLength="95" x="656" y="193.3888">fixed offset</text><text fill="#000000" font-family="sans-serif" font-size="14" lengthAdjust="spacing" textLength="211" x="755" y="193.3888">from their physical addresses</text><text fill="#000000" font-family="sans-serif" font-size="14" lengthAdjust="spacing" textLength="286" x="1029" y="137.0919">Virt: 0xc0000000 --&gt; Phys: 0x00000000</text><path d="M976,188.5421 L986,188.5421 C1001,188.5421 1001,132.2452 1016,132.2452 L1026,132.2452 " fill="none" style="stroke:#181818;stroke-width:1.0;"/><rect fill="#F1F1F1" height="36.2969" rx="12.5" ry="12.5" style="stroke:#181818;stroke-width:1.5;" width="506" x="1026" y="151.3937"/><text fill="#000000" font-family="sans-serif" font-size="14" lengthAdjust="spacing" textLength="486" x="1036" y="174.3888">virtually-contiguous regions are by nature also physically contiguous</text><path d="M976,188.5421 L986,188.5421 C1001,188.5421 1001,169.5421 1016,169.5421 L1026,169.5421 " fill="none" style="stroke:#181818;stroke-width:1.0;"/><rect fill="#F1F1F1" height="36.2969" rx="12.5" ry="12.5" style="stroke:#181818;stroke-width:1.5;" width="646" x="1026" y="207.6906"/><text fill="#000000" font-family="sans-serif" font-size="14" lengthAdjust="spacing" textLength="517" x="1036" y="230.6857">combined with the inablity to be swapped out, makes them suitable for</text><text fill="#000000" font-family="sans-serif" font-size="14" font-weight="bold" lengthAdjust="spacing" textLength="36" x="1557" y="230.6857">DMA</text><text fill="#000000" font-family="sans-serif" font-size="14" lengthAdjust="spacing" textLength="65" x="1597" y="230.6857">transfers</text><path d="M976,188.5421 L986,188.5421 C1001,188.5421 1001,225.839 1016,225.839 L1026,225.839 " fill="none" style="stroke:#181818;stroke-width:1.0;"/><path d="M582,473.2491 L592,473.2491 C607,473.2491 607,188.5421 622,188.5421 L632,188.5421 " fill="none" style="stroke:#181818;stroke-width:1.0;"/><rect fill="#F1F1F1" height="36.2969" rx="12.5" ry="12.5" style="stroke:#181818;stroke-width:1.5;" width="341" x="632" y="292.6389"/><text fill="#000000" font-family="sans-serif" font-size="14" lengthAdjust="spacing" textLength="321" x="642" y="315.634">easy to convert between virtual and physical</text><rect fill="#FFE4B5" height="36.7999" rx="12.5" ry="12.5" style="stroke:#181818;stroke-width:1.5;" width="76" x="1023" y="263.9874"/><text fill="#000000" font-family="monospace" font-size="14" lengthAdjust="spacing" textLength="56" x="1033" y="286.9514">__pa(x)</text><path d="M973,310.7874 L983,310.7874 C998,310.7874 998,282.3874 1013,282.3874 L1023,282.3874 " fill="none" style="stroke:#181818;stroke-width:1.0;"/><rect fill="#FFE4B5" height="36.7999" rx="12.5" ry="12.5" style="stroke:#181818;stroke-width:1.5;" width="76" x="1023" y="320.7874"/><text fill="#000000" font-family="monospace" font-size="14" lengthAdjust="spacing" textLength="56" x="1033" y="343.7513">__va(x)</text><path d="M973,310.7874 L983,310.7874 C998,310.7874 998,339.1873 1013,339.1873 L1023,339.1873 " fill="none" style="stroke:#181818;stroke-width:1.0;"/><path d="M582,473.2491 L592,473.2491 C607,473.2491 607,310.7874 622,310.7874 L632,310.7874 " fill="none" style="stroke:#181818;stroke-width:1.0;"/><rect fill="#F1F1F1" height="36.2969" rx="12.5" ry="12.5" style="stroke:#181818;stroke-width:1.5;" width="211" x="632" y="348.9358"/><text fill="#000000" font-family="sans-serif" font-size="14" lengthAdjust="spacing" textLength="191" x="642" y="371.9309">Can never be swapped out</text><path d="M582,473.2491 L592,473.2491 C607,473.2491 607,367.0842 622,367.0842 L632,367.0842 " fill="none" style="stroke:#181818;stroke-width:1.0;"/><rect fill="#F1F1F1" height="36.2969" rx="12.5" ry="12.5" style="stroke:#181818;stroke-width:1.5;" width="82" x="632" y="647.717"/><text fill="#000000" font-family="sans-serif" font-size="14" lengthAdjust="spacing" textLength="62" x="642" y="670.7122">Mapping</text><rect fill="#F1F1F1" height="36.2969" rx="12.5" ry="12.5" style="stroke:#181818;stroke-width:1.5;" width="62" x="764" y="591.4202"/><text fill="#000000" font-family="sans-serif" font-size="14" lengthAdjust="spacing" textLength="42" x="774" y="614.4153">32 bit</text><rect fill="#F1F1F1" height="36.2969" rx="12.5" ry="12.5" style="stroke:#181818;stroke-width:1.5;" width="338" x="876" y="405.2327"/><text fill="#000000" font-family="sans-serif" font-size="14" lengthAdjust="spacing" textLength="318" x="886" y="428.2278">for small-memory systems (below 1GB RAM)</text><rect fill="#F1F1F1" height="36.2969" rx="12.5" ry="12.5" style="stroke:#181818;stroke-width:1.5;" width="759" x="1264" y="405.2327"/><text fill="#000000" font-family="sans-serif" font-size="14" lengthAdjust="spacing" textLength="271" x="1274" y="428.2278">Kernel Logical address space starts at</text><text fill="#000000" font-family="sans-serif" font-size="14" font-weight="bold" lengthAdjust="spacing" textLength="109" x="1549" y="428.2278">PAGE_OFFSET</text><text fill="#000000" font-family="sans-serif" font-size="14" lengthAdjust="spacing" textLength="154" x="1662" y="428.2278">and goes through the</text><text fill="#000000" font-family="sans-serif" font-size="14" font-weight="bold" lengthAdjust="spacing" textLength="193" x="1820" y="428.2278">end of physical memory</text><path d="M1214,423.3811 L1224,423.3811 C1239,423.3811 1239,423.3811 1254,423.3811 L1264,423.3811 " fill="none" style="stroke:#181818;stroke-width:1.0;"/><path d="M826,609.5686 L836,609.5686 C851,609.5686 851,423.3811 866,423.3811 L876,423.3811 " fill="none" style="stroke:#181818;stroke-width:1.0;"/><rect fill="#F1F1F1" height="36.2969" rx="12.5" ry="12.5" style="stroke:#181818;stroke-width:1.5;" width="369" x="876" y="619.5686"/><text fill="#000000" font-family="sans-serif" font-size="14" lengthAdjust="spacing" textLength="349" x="886" y="642.5637">for large-memory systems (more than 1GB RAM)</text><rect fill="#F1F1F1" height="36.2969" rx="12.5" ry="12.5" style="stroke:#181818;stroke-width:1.5;" width="526" x="1295" y="461.5295"/><text fill="#000000" font-family="sans-serif" font-size="14" lengthAdjust="spacing" textLength="506" x="1305" y="484.5247">not all of the physical RAM can be mapped into kernel's address space</text><path d="M1245,637.717 L1255,637.717 C1270,637.717 1270,479.678 1285,479.678 L1295,479.678 " fill="none" style="stroke:#181818;stroke-width:1.0;"/><rect fill="#F1F1F1" height="36.2969" rx="12.5" ry="12.5" style="stroke:#181818;stroke-width:1.5;" width="533" x="1295" y="517.8264"/><text fill="#000000" font-family="sans-serif" font-size="14" lengthAdjust="spacing" textLength="513" x="1305" y="540.8215">kernel address space is the top 1GB of virtual address space, by default</text><path d="M1245,637.717 L1255,637.717 C1270,637.717 1270,535.9749 1285,535.9749 L1295,535.9749 " fill="none" style="stroke:#181818;stroke-width:1.0;"/><rect fill="#F1F1F1" height="36.2969" rx="12.5" ry="12.5" style="stroke:#181818;stroke-width:1.5;" width="683" x="1295" y="574.1233"/><text fill="#000000" font-family="sans-serif" font-size="14" lengthAdjust="spacing" textLength="663" x="1305" y="597.1184">~104 MB is reserved at the top of the kernel's memory space for non-contiguous allocations</text><path d="M1245,637.717 L1255,637.717 C1270,637.717 1270,592.2717 1285,592.2717 L1295,592.2717 " fill="none" style="stroke:#181818;stroke-width:1.0;"/><rect fill="#F1F1F1" height="52.5938" rx="12.5" ry="12.5" style="stroke:#181818;stroke-width:1.5;" width="502" x="1295" y="630.4202"/><text fill="#000000" font-family="sans-serif" font-size="14" lengthAdjust="spacing" textLength="61" x="1305" y="653.4153">Only the</text><text fill="#000000" font-family="sans-serif" font-size="14" font-weight="bold" lengthAdjust="spacing" textLength="101" x="1370" y="653.4153">bottom part</text><text fill="#000000" font-family="sans-serif" font-size="14" lengthAdjust="spacing" textLength="312" x="1475" y="653.4153">of physical RAM has a kernel logical address</text><text fill="#000000" font-family="sans-serif" font-size="14" lengthAdjust="spacing" textLength="249" x="1305" y="669.7122">(896MB, 0xc0000000 ~ 0xf800000)</text><rect fill="#F1F1F1" height="52.5938" rx="12.5" ry="12.5" style="stroke:#181818;stroke-width:1.5;" width="266" x="1847" y="630.4202"/><text fill="#000000" font-family="sans-serif" font-size="14" lengthAdjust="spacing" textLength="246" x="1857" y="653.4153">this memory is called Low Memory</text><text fill="#000000" font-family="sans-serif" font-size="14" lengthAdjust="spacing" textLength="236" x="1857" y="669.7122">phys: 0x00000000 ~ 0xf8000000</text><path d="M1797,656.717 L1807,656.717 C1822,656.717 1822,656.717 1837,656.717 L1847,656.717 " fill="none" style="stroke:#181818;stroke-width:1.0;"/><path d="M1245,637.717 L1255,637.717 C1270,637.717 1270,656.717 1285,656.717 L1295,656.717 " fill="none" style="stroke:#181818;stroke-width:1.0;"/><rect fill="#F1F1F1" height="36.2969" rx="12.5" ry="12.5" style="stroke:#181818;stroke-width:1.5;" width="242" x="1295" y="731.1624"/><text fill="#000000" font-family="sans-serif" font-size="14" lengthAdjust="spacing" textLength="222" x="1305" y="754.1575">High memory: beyond ~896MB</text><rect fill="#F1F1F1" height="36.2969" rx="12.5" ry="12.5" style="stroke:#181818;stroke-width:1.5;" width="148" x="1587" y="703.0139"/><text fill="#000000" font-family="sans-serif" font-size="14" lengthAdjust="spacing" textLength="128" x="1597" y="726.009">No logical address</text><path d="M1537,749.3108 L1547,749.3108 C1562,749.3108 1562,721.1624 1577,721.1624 L1587,721.1624 " fill="none" style="stroke:#181818;stroke-width:1.0;"/><rect fill="#F1F1F1" height="36.2969" rx="12.5" ry="12.5" style="stroke:#181818;stroke-width:1.5;" width="377" x="1587" y="759.3108"/><text fill="#000000" font-family="sans-serif" font-size="14" lengthAdjust="spacing" textLength="357" x="1597" y="782.3059">Not physically contiguous when used in the kernel</text><path d="M1537,749.3108 L1547,749.3108 C1562,749.3108 1562,777.4592 1577,777.4592 L1587,777.4592 " fill="none" style="stroke:#181818;stroke-width:1.0;"/><path d="M1245,637.717 L1255,637.717 C1270,637.717 1270,749.3108 1285,749.3108 L1295,749.3108 " fill="none" style="stroke:#181818;stroke-width:1.0;"/><text fill="#000000" font-family="sans-serif" font-size="14" lengthAdjust="spacing" textLength="513" x="1298" y="819.6028">-&gt; 这种情况只会在32bit中出现，kernel virtual memory &lt; physical memory</text><path d="M1245,637.717 L1255,637.717 C1270,637.717 1270,814.7561 1285,814.7561 L1295,814.7561 " fill="none" style="stroke:#181818;stroke-width:1.0;"/><path d="M826,609.5686 L836,609.5686 C851,609.5686 851,637.717 866,637.717 L876,637.717 " fill="none" style="stroke:#181818;stroke-width:1.0;"/><path d="M714,665.8655 L724,665.8655 C739,665.8655 739,609.5686 754,609.5686 L764,609.5686 " fill="none" style="stroke:#181818;stroke-width:1.0;"/><rect fill="#F1F1F1" height="36.2969" rx="12.5" ry="12.5" style="stroke:#181818;stroke-width:1.5;" width="62" x="764" y="833.9045"/><text fill="#000000" font-family="sans-serif" font-size="14" lengthAdjust="spacing" textLength="42" x="774" y="856.8997">64 bit</text><rect fill="#F1F1F1" height="36.2969" rx="12.5" ry="12.5" style="stroke:#181818;stroke-width:1.5;" width="788" x="876" y="833.9045"/><text fill="#000000" font-family="sans-serif" font-size="14" lengthAdjust="spacing" textLength="491" x="886" y="856.8997">always enough kernel address space to accommodate all the RAM -&gt;</text><text fill="#000000" font-family="sans-serif" font-size="14" font-weight="bold" lengthAdjust="spacing" textLength="273" x="1381" y="856.8997">那岂不是没必要用virtual address了？</text><path d="M826,852.053 L836,852.053 C851,852.053 851,852.053 866,852.053 L876,852.053 " fill="none" style="stroke:#181818;stroke-width:1.0;"/><path d="M714,665.8655 L724,665.8655 C739,665.8655 739,852.053 754,852.053 L764,852.053 " fill="none" style="stroke:#181818;stroke-width:1.0;"/><rect fill="#F1F1F1" height="36.2969" rx="12.5" ry="12.5" style="stroke:#181818;stroke-width:1.5;" width="1092" x="764" y="890.2014"/><text fill="#000000" font-family="sans-serif" font-size="14" lengthAdjust="spacing" textLength="1072" x="774" y="913.1965">just beacause physical addresses could have a kernel logical address, it doesn't mean the kernel is actually using every byte of memory on the system</text><path d="M714,665.8655 L724,665.8655 C739,665.8655 739,908.3499 754,908.3499 L764,908.3499 " fill="none" style="stroke:#181818;stroke-width:1.0;"/><path d="M582,473.2491 L592,473.2491 C607,473.2491 607,665.8655 622,665.8655 L632,665.8655 " fill="none" style="stroke:#181818;stroke-width:1.0;"/><path d="M350,613.9913 L360,613.9913 C375,613.9913 375,473.2491 390,473.2491 L400,473.2491 " fill="none" style="stroke:#181818;stroke-width:1.0;"/><rect fill="#FFA500" height="36.2969" rx="12.5" ry="12.5" style="stroke:#181818;stroke-width:1.5;" width="179" x="400" y="1059.092"/><text fill="#000000" font-family="sans-serif" font-size="14" lengthAdjust="spacing" textLength="159" x="410" y="1082.0872">Kernel Virtual Address</text><rect fill="#F1F1F1" height="36.2969" rx="12.5" ry="12.5" style="stroke:#181818;stroke-width:1.5;" width="160" x="629" y="946.4983"/><text fill="#000000" font-family="sans-serif" font-size="14" lengthAdjust="spacing" textLength="25" x="639" y="969.4934">the</text><text fill="#000000" font-family="sans-serif" font-size="14" font-weight="bold" lengthAdjust="spacing" textLength="76" x="668" y="969.4934">vmalloc()</text><text fill="#000000" font-family="sans-serif" font-size="14" lengthAdjust="spacing" textLength="31" x="748" y="969.4934">area</text><path d="M579,1077.2405 L589,1077.2405 C604,1077.2405 604,964.6467 619,964.6467 L629,964.6467 " fill="none" style="stroke:#181818;stroke-width:1.0;"/><rect fill="#F1F1F1" height="36.2969" rx="12.5" ry="12.5" style="stroke:#181818;stroke-width:1.5;" width="79" x="629" y="1087.2405"/><text fill="#000000" font-family="sans-serif" font-size="14" lengthAdjust="spacing" textLength="59" x="639" y="1110.2356">Used for</text><rect fill="#F1F1F1" height="36.2969" rx="12.5" ry="12.5" style="stroke:#181818;stroke-width:1.5;" width="287" x="758" y="1030.9436"/><text fill="#000000" font-family="sans-serif" font-size="14" font-weight="bold" lengthAdjust="spacing" textLength="128" x="768" y="1053.9387">Non-contiguous</text><text fill="#000000" font-family="sans-serif" font-size="14" lengthAdjust="spacing" textLength="135" x="900" y="1053.9387">memory mappings</text><rect fill="#F1F1F1" height="36.2969" rx="12.5" ry="12.5" style="stroke:#181818;stroke-width:1.5;" width="591" x="1095" y="1002.7952"/><text fill="#000000" font-family="sans-serif" font-size="14" font-weight="bold" lengthAdjust="spacing" textLength="105" x="1105" y="1025.7903">large buffers</text><text fill="#000000" font-family="sans-serif" font-size="14" lengthAdjust="spacing" textLength="462" x="1214" y="1025.7903">which could protentially be too large to find contiguous memory</text><path d="M1045,1049.092 L1055,1049.092 C1070,1049.092 1070,1020.9436 1085,1020.9436 L1095,1020.9436 " fill="none" style="stroke:#181818;stroke-width:1.0;"/><rect fill="#F1F1F1" height="36.2969" rx="12.5" ry="12.5" style="stroke:#181818;stroke-width:1.5;" width="96" x="1095" y="1059.092"/><text fill="#000000" font-family="sans-serif" font-size="14" font-weight="bold" lengthAdjust="spacing" textLength="76" x="1105" y="1082.0872">vmalloc()</text><path d="M1045,1049.092 L1055,1049.092 C1070,1049.092 1070,1077.2405 1085,1077.2405 L1095,1077.2405 " fill="none" style="stroke:#181818;stroke-width:1.0;"/><path d="M708,1105.3889 L718,1105.3889 C733,1105.3889 733,1049.092 748,1049.092 L758,1049.092 " fill="none" style="stroke:#181818;stroke-width:1.0;"/><rect fill="#F1F1F1" height="36.2969" rx="12.5" ry="12.5" style="stroke:#181818;stroke-width:1.5;" width="181" x="758" y="1143.5374"/><text fill="#000000" font-family="sans-serif" font-size="14" font-weight="bold" lengthAdjust="spacing" textLength="161" x="768" y="1166.5325">Memory-mapped I/O</text><rect fill="#F1F1F1" height="36.2969" rx="12.5" ry="12.5" style="stroke:#181818;stroke-width:1.5;" width="261" x="989" y="1115.3889"/><text fill="#000000" font-family="sans-serif" font-size="14" lengthAdjust="spacing" textLength="241" x="999" y="1138.384">Map peripheral devices int kernel</text><path d="M939,1161.6858 L949,1161.6858 C964,1161.6858 964,1133.5374 979,1133.5374 L989,1133.5374 " fill="none" style="stroke:#181818;stroke-width:1.0;"/><rect fill="#F1F1F1" height="36.2969" rx="12.5" ry="12.5" style="stroke:#181818;stroke-width:1.5;" width="149" x="989" y="1171.6858"/><text fill="#000000" font-family="sans-serif" font-size="14" lengthAdjust="spacing" textLength="129" x="999" y="1194.6809">ioremap(), kmap()</text><path d="M939,1161.6858 L949,1161.6858 C964,1161.6858 964,1189.8342 979,1189.8342 L989,1189.8342 " fill="none" style="stroke:#181818;stroke-width:1.0;"/><path d="M708,1105.3889 L718,1105.3889 C733,1105.3889 733,1161.6858 748,1161.6858 L758,1161.6858 " fill="none" style="stroke:#181818;stroke-width:1.0;"/><path d="M579,1077.2405 L589,1077.2405 C604,1077.2405 604,1105.3889 619,1105.3889 L629,1105.3889 " fill="none" style="stroke:#181818;stroke-width:1.0;"/><path d="M350,613.9913 L360,613.9913 C375,613.9913 375,1077.2405 390,1077.2405 L400,1077.2405 " fill="none" style="stroke:#181818;stroke-width:1.0;"/><path d="M233,867.3273 L243,867.3273 C258,867.3273 258,613.9913 273,613.9913 L283,613.9913 " fill="none" style="stroke:#181818;stroke-width:1.0;"/><rect fill="#FFA500" height="36.2969" rx="12.5" ry="12.5" style="stroke:#181818;stroke-width:1.5;" width="163" x="283" y="1453.1702"/><text fill="#000000" font-family="sans-serif" font-size="14" lengthAdjust="spacing" textLength="143" x="293" y="1476.1653">User Virtual Address</text><rect fill="#F1F1F1" height="36.2969" rx="12.5" ry="12.5" style="stroke:#181818;stroke-width:1.5;" width="167" x="496" y="1227.9827"/><text fill="#000000" font-family="sans-serif" font-size="14" lengthAdjust="spacing" textLength="147" x="506" y="1250.9778">below PAGE_OFFSET</text><path d="M446,1471.3186 L456,1471.3186 C471,1471.3186 471,1246.1311 486,1246.1311 L496,1246.1311 " fill="none" style="stroke:#181818;stroke-width:1.0;"/><rect fill="#F1F1F1" height="36.2969" rx="12.5" ry="12.5" style="stroke:#181818;stroke-width:1.5;" width="265" x="496" y="1284.2795"/><text fill="#000000" font-family="sans-serif" font-size="14" lengthAdjust="spacing" textLength="245" x="506" y="1307.2747">Each process has its own mapping</text><rect fill="#F1F1F1" height="36.2969" rx="12.5" ry="12.5" style="stroke:#181818;stroke-width:1.5;" width="200" x="811" y="1227.9827"/><text fill="#000000" font-family="sans-serif" font-size="14" lengthAdjust="spacing" textLength="180" x="821" y="1250.9778">Threads share a mapping</text><path d="M761,1302.428 L771,1302.428 C786,1302.428 786,1246.1311 801,1246.1311 L811,1246.1311 " fill="none" style="stroke:#181818;stroke-width:1.0;"/><rect fill="#F1F1F1" height="36.2969" rx="12.5" ry="12.5" style="stroke:#181818;stroke-width:1.5;" width="256" x="811" y="1284.2795"/><text fill="#000000" font-family="sans-serif" font-size="14" lengthAdjust="spacing" textLength="166" x="821" y="1307.2747">Complex behavior with</text><text fill="#000000" font-family="sans-serif" font-size="14" font-weight="bold" lengthAdjust="spacing" textLength="66" x="991" y="1307.2747">clone(2)</text><path d="M761,1302.428 L771,1302.428 C786,1302.428 786,1302.428 801,1302.428 L811,1302.428 " fill="none" style="stroke:#181818;stroke-width:1.0;"/><rect fill="#F1F1F1" height="36.2969" rx="12.5" ry="12.5" style="stroke:#181818;stroke-width:1.5;" width="290" x="811" y="1340.5764"/><text fill="#000000" font-family="sans-serif" font-size="14" font-weight="bold" lengthAdjust="spacing" textLength="86" x="821" y="1363.5715">struct mm</text><text fill="#000000" font-family="sans-serif" font-size="14" lengthAdjust="spacing" textLength="86" x="907" y="1363.5715">, pointers in</text><text fill="#000000" font-family="sans-serif" font-size="14" font-weight="bold" lengthAdjust="spacing" textLength="94" x="997" y="1363.5715">task_struct</text><path d="M761,1302.428 L771,1302.428 C786,1302.428 786,1358.7249 801,1358.7249 L811,1358.7249 " fill="none" style="stroke:#181818;stroke-width:1.0;"/><path d="M446,1471.3186 L456,1471.3186 C471,1471.3186 471,1302.428 486,1302.428 L496,1302.428 " fill="none" style="stroke:#181818;stroke-width:1.0;"/><rect fill="#F1F1F1" height="36.2969" rx="12.5" ry="12.5" style="stroke:#181818;stroke-width:1.5;" width="197" x="496" y="1537.6155"/><text fill="#000000" font-family="sans-serif" font-size="14" lengthAdjust="spacing" textLength="177" x="506" y="1560.6106">Make the full use of MMU</text><rect fill="#F1F1F1" height="36.2969" rx="12.5" ry="12.5" style="stroke:#181818;stroke-width:1.5;" width="329" x="743" y="1396.8733"/><text fill="#000000" font-family="sans-serif" font-size="14" lengthAdjust="spacing" textLength="309" x="753" y="1419.8684">Only the used portions of RAM are mapped</text><path d="M693,1555.7639 L703,1555.7639 C718,1555.7639 718,1415.0217 733,1415.0217 L743,1415.0217 " fill="none" style="stroke:#181818;stroke-width:1.0;"/><rect fill="#F1F1F1" height="36.2969" rx="12.5" ry="12.5" style="stroke:#181818;stroke-width:1.5;" width="204" x="743" y="1453.1702"/><text fill="#000000" font-family="sans-serif" font-size="14" lengthAdjust="spacing" textLength="184" x="753" y="1476.1653">Memory is not contiguous</text><path d="M693,1555.7639 L703,1555.7639 C718,1555.7639 718,1471.3186 733,1471.3186 L743,1471.3186 " fill="none" style="stroke:#181818;stroke-width:1.0;"/><rect fill="#F1F1F1" height="36.2969" rx="12.5" ry="12.5" style="stroke:#181818;stroke-width:1.5;" width="231" x="743" y="1509.467"/><text fill="#000000" font-family="sans-serif" font-size="14" lengthAdjust="spacing" textLength="211" x="753" y="1532.4622">Memory may be swapped out</text><path d="M693,1555.7639 L703,1555.7639 C718,1555.7639 718,1527.6155 733,1527.6155 L743,1527.6155 " fill="none" style="stroke:#181818;stroke-width:1.0;"/><rect fill="#F1F1F1" height="36.2969" rx="12.5" ry="12.5" style="stroke:#181818;stroke-width:1.5;" width="183" x="743" y="1565.7639"/><text fill="#000000" font-family="sans-serif" font-size="14" lengthAdjust="spacing" textLength="163" x="753" y="1588.759">Memory can be moved</text><path d="M693,1555.7639 L703,1555.7639 C718,1555.7639 718,1583.9124 733,1583.9124 L743,1583.9124 " fill="none" style="stroke:#181818;stroke-width:1.0;"/><rect fill="#F1F1F1" height="36.2969" rx="12.5" ry="12.5" style="stroke:#181818;stroke-width:1.5;" width="352" x="743" y="1622.0608"/><text fill="#000000" font-family="sans-serif" font-size="14" lengthAdjust="spacing" textLength="332" x="753" y="1645.0559">Not suitable for use by the kernel (or for DMA)</text><path d="M693,1555.7639 L703,1555.7639 C718,1555.7639 718,1640.2092 733,1640.2092 L743,1640.2092 " fill="none" style="stroke:#181818;stroke-width:1.0;"/><rect fill="#F1F1F1" height="36.2969" rx="12.5" ry="12.5" style="stroke:#181818;stroke-width:1.5;" width="609" x="743" y="1678.3577"/><text fill="#000000" font-family="sans-serif" font-size="14" lengthAdjust="spacing" textLength="589" x="753" y="1701.3528">At context switch time, the memory map is changed (this is part of the overhead)</text><path d="M693,1555.7639 L703,1555.7639 C718,1555.7639 718,1696.5061 733,1696.5061 L743,1696.5061 " fill="none" style="stroke:#181818;stroke-width:1.0;"/><path d="M446,1471.3186 L456,1471.3186 C471,1471.3186 471,1555.7639 486,1555.7639 L496,1555.7639 " fill="none" style="stroke:#181818;stroke-width:1.0;"/><path d="M233,867.3273 L243,867.3273 C258,867.3273 258,1471.3186 273,1471.3186 L283,1471.3186 " fill="none" style="stroke:#181818;stroke-width:1.0;"/><!--MD5=[1f3fe298f82ef4991ac5249835f11f70]
@startmindmap
+ Virtual Addresses（3 kinds）
++ Kernel
+++[#orange] Kernel Logical Address
++++ Normal address space of kernel
*****[#moccasin]:<code>
kmalloc()
</code>;
+++++ Kernel stacks (per process)
++++ A **fixed offset** from their physical addresses
+++++_ Virt: 0xc0000000 - -> Phys: 0x00000000
+++++ virtually-contiguous regions are by nature also physically contiguous
+++++ combined with the inablity to be swapped out, makes them suitable for **DMA** transfers
++++ easy to convert between virtual and physical
*****[#moccasin]:<code>
__pa(x)
</code>;
*****[#moccasin]:<code>
__va(x)
</code>;
++++ Can never be swapped out
++++ Mapping
+++++ 32 bit
++++++ for small-memory systems (below 1GB RAM)
+++++++ Kernel Logical address space starts at **PAGE_OFFSET** and goes through the **end of physical memory**
++++++ for large-memory systems (more than 1GB RAM)
+++++++ not all of the physical RAM can be mapped into kernel's address space
+++++++ kernel address space is the top 1GB of virtual address space, by default
+++++++ ~104 MB is reserved at the top of the kernel's memory space for non-contiguous allocations
*******:Only the **bottom part** of physical RAM has a kernel logical address
(896MB, 0xc0000000 ~ 0xf800000);
********:this memory is called Low Memory
phys: 0x00000000 ~ 0xf8000000;
+++++++ High memory: beyond ~896MB
++++++++ No logical address
++++++++ Not physically contiguous when used in the kernel
+++++++_ -> 这种情况只会在32bit中出现，kernel virtual memory < physical memory
+++++ 64 bit
++++++ always enough kernel address space to accommodate all the RAM -> **那岂不是没必要用virtual address了？**
+++++ just beacause physical addresses could have a kernel logical address, it doesn't mean the kernel is actually using every byte of memory on the system
+++[#orange] Kernel Virtual Address
++++ the **vmalloc()** area
++++ Used for
+++++ **Non-contiguous** memory mappings
++++++ **large buffers** which could protentially be too large to find contiguous memory
++++++ **vmalloc()**
+++++ **Memory-mapped I/O**
++++++ Map peripheral devices int kernel
++++++ ioremap(), kmap()
++[#orange] User Virtual Address
+++ below PAGE_OFFSET
+++ Each process has its own mapping
++++ Threads share a mapping
++++ Complex behavior with **clone(2)**
++++ **struct mm**, pointers in **task_struct**
+++ Make the full use of MMU
++++ Only the used portions of RAM are mapped
++++ Memory is not contiguous
++++ Memory may be swapped out
++++ Memory can be moved
++++ Not suitable for use by the kernel (or for DMA)
++++ At context switch time, the memory map is changed (this is part of the overhead)
@endmindmap

PlantUML version 1.2022.4beta2(Unknown compile time)
(GPL source distribution)
Java Runtime: Java(TM) SE Runtime Environment
JVM: Java HotSpot(TM) 64-Bit Server VM
Default Encoding: UTF-8
Language: en
Country: US
--></g></svg>