<?xml version="1.0" encoding="UTF-8" standalone="no"?><svg xmlns="http://www.w3.org/2000/svg" xmlns:xlink="http://www.w3.org/1999/xlink" contentStyleType="text/css" height="969px" preserveAspectRatio="none" style="width:1572px;height:969px;background:#FFFFFF;" version="1.1" viewBox="0 0 1572 969" width="1572px" zoomAndPan="magnify"><defs/><g><rect fill="#F1F1F1" height="36.2969" rx="12.5" ry="12.5" style="stroke:#181818;stroke-width:1.5;" width="135" x="10" y="465.4492"/><text fill="#000000" font-family="sans-serif" font-size="14" lengthAdjust="spacing" textLength="115" x="20" y="488.4443">Virtural Memory</text><rect fill="#F1F1F1" height="36.2969" rx="12.5" ry="12.5" style="stroke:#181818;stroke-width:1.5;" width="389" x="195" y="57.2969"/><text fill="#000000" font-family="sans-serif" font-size="14" lengthAdjust="spacing" textLength="369" x="205" y="80.292">Defination: A system that uses an address mapping</text><rect fill="#F1F1F1" height="36.2969" rx="12.5" ry="12.5" style="stroke:#181818;stroke-width:1.5;" width="398" x="634" y="20"/><text fill="#000000" font-family="sans-serif" font-size="14" lengthAdjust="spacing" textLength="378" x="644" y="42.9951">Maps virtual address space to physical address space</text><path d="M584,75.4453 L594,75.4453 C609,75.4453 609,38.1484 624,38.1484 L634,38.1484 " fill="none" style="stroke:#181818;stroke-width:1.0;"/><text fill="#000000" font-family="sans-serif" font-size="14" lengthAdjust="spacing" textLength="413" x="637" y="80.292">和Single Addressing相比，virtual address不是真实的物理地址</text><path d="M584,75.4453 L594,75.4453 C609,75.4453 609,75.4453 624,75.4453 L634,75.4453 " fill="none" style="stroke:#181818;stroke-width:1.0;"/><rect fill="#F1F1F1" height="36.2969" rx="12.5" ry="12.5" style="stroke:#181818;stroke-width:1.5;" width="76" x="634" y="94.5938"/><text fill="#000000" font-family="sans-serif" font-size="14" lengthAdjust="spacing" textLength="56" x="644" y="117.5889">硬件资源</text><text fill="#000000" font-family="sans-serif" font-size="14" lengthAdjust="spacing" textLength="94" x="763" y="99.292">physical RAM</text><path d="M710,112.7422 L720,112.7422 C735,112.7422 735,94.4453 750,94.4453 L760,94.4453 " fill="none" style="stroke:#181818;stroke-width:1.0;"/><text fill="#000000" font-family="sans-serif" font-size="14" lengthAdjust="spacing" textLength="124" x="763" y="117.5889">hardware devices</text><text fill="#000000" font-family="sans-serif" font-size="14" lengthAdjust="spacing" textLength="81" x="940" y="99.292">PCI devices</text><path d="M887,112.7422 L897,112.7422 C912,112.7422 912,94.4453 927,94.4453 L937,94.4453 " fill="none" style="stroke:#181818;stroke-width:1.0;"/><text fill="#000000" font-family="sans-serif" font-size="14" lengthAdjust="spacing" textLength="65" x="940" y="117.5889">GPU RAM</text><path d="M887,112.7422 L897,112.7422 C912,112.7422 912,112.7422 927,112.7422 L937,112.7422 " fill="none" style="stroke:#181818;stroke-width:1.0;"/><text fill="#000000" font-family="sans-serif" font-size="14" lengthAdjust="spacing" textLength="122" x="940" y="135.8857">On-SoC IP blocks</text><path d="M887,112.7422 L897,112.7422 C912,112.7422 912,131.0391 927,131.0391 L937,131.0391 " fill="none" style="stroke:#181818;stroke-width:1.0;"/><path d="M710,112.7422 L720,112.7422 C735,112.7422 735,112.7422 750,112.7422 L760,112.7422 " fill="none" style="stroke:#181818;stroke-width:1.0;"/><path d="M584,75.4453 L594,75.4453 C609,75.4453 609,112.7422 624,112.7422 L634,112.7422 " fill="none" style="stroke:#181818;stroke-width:1.0;"/><path d="M145,483.5977 L155,483.5977 C170,483.5977 170,75.4453 185,75.4453 L195,75.4453 " fill="none" style="stroke:#181818;stroke-width:1.0;"/><rect fill="#F1F1F1" height="36.2969" rx="12.5" ry="12.5" style="stroke:#181818;stroke-width:1.5;" width="104" x="195" y="305.707"/><text fill="#000000" font-family="sans-serif" font-size="14" lengthAdjust="spacing" textLength="84" x="205" y="328.7021">Advantages</text><rect fill="#F1F1F1" height="36.2969" rx="12.5" ry="12.5" style="stroke:#181818;stroke-width:1.5;" width="656" x="349" y="179.0391"/><text fill="#000000" font-family="sans-serif" font-size="14" lengthAdjust="spacing" textLength="411" x="359" y="202.0342">Each processes can have a different memory mapping -&gt;</text><text fill="#000000" font-family="sans-serif" font-size="14" font-weight="bold" lengthAdjust="spacing" textLength="221" x="774" y="202.0342">Built-in memory protection</text><rect fill="#F1F1F1" height="36.2969" rx="12.5" ry="12.5" style="stroke:#181818;stroke-width:1.5;" width="505" x="1055" y="150.8906"/><text fill="#000000" font-family="sans-serif" font-size="14" lengthAdjust="spacing" textLength="485" x="1065" y="173.8857">One process's RAM is inaccessible (and invisible) to other processes</text><path d="M1005,197.1875 L1015,197.1875 C1030,197.1875 1030,169.0391 1045,169.0391 L1055,169.0391 " fill="none" style="stroke:#181818;stroke-width:1.0;"/><rect fill="#F1F1F1" height="36.2969" rx="12.5" ry="12.5" style="stroke:#181818;stroke-width:1.5;" width="356" x="1055" y="207.1875"/><text fill="#000000" font-family="sans-serif" font-size="14" lengthAdjust="spacing" textLength="336" x="1065" y="230.1826">kernel RAM is invisible to user space processes</text><path d="M1005,197.1875 L1015,197.1875 C1030,197.1875 1030,225.3359 1045,225.3359 L1055,225.3359 " fill="none" style="stroke:#181818;stroke-width:1.0;"/><path d="M299,323.8555 L309,323.8555 C324,323.8555 324,197.1875 339,197.1875 L349,197.1875 " fill="none" style="stroke:#181818;stroke-width:1.0;"/><rect fill="#F1F1F1" height="36.2969" rx="12.5" ry="12.5" style="stroke:#181818;stroke-width:1.5;" width="183" x="349" y="235.3359"/><text fill="#000000" font-family="sans-serif" font-size="14" lengthAdjust="spacing" textLength="163" x="359" y="258.3311">Memory can be moved</text><path d="M299,323.8555 L309,323.8555 C324,323.8555 324,253.4844 339,253.4844 L349,253.4844 " fill="none" style="stroke:#181818;stroke-width:1.0;"/><rect fill="#F1F1F1" height="36.2969" rx="12.5" ry="12.5" style="stroke:#181818;stroke-width:1.5;" width="251" x="349" y="291.6328"/><text fill="#000000" font-family="sans-serif" font-size="14" lengthAdjust="spacing" textLength="231" x="359" y="314.6279">Memory can be swapped to disk</text><path d="M299,323.8555 L309,323.8555 C324,323.8555 324,309.7813 339,309.7813 L349,309.7813 " fill="none" style="stroke:#181818;stroke-width:1.0;"/><rect fill="#F1F1F1" height="36.2969" rx="12.5" ry="12.5" style="stroke:#181818;stroke-width:1.5;" width="518" x="349" y="347.9297"/><text fill="#000000" font-family="sans-serif" font-size="14" lengthAdjust="spacing" textLength="498" x="359" y="370.9248">Map hardware device memory to a process's address space (GPU E.g.)</text><path d="M299,323.8555 L309,323.8555 C324,323.8555 324,366.0781 339,366.0781 L349,366.0781 " fill="none" style="stroke:#181818;stroke-width:1.0;"/><rect fill="#F1F1F1" height="36.2969" rx="12.5" ry="12.5" style="stroke:#181818;stroke-width:1.5;" width="611" x="349" y="404.2266"/><text fill="#000000" font-family="sans-serif" font-size="14" lengthAdjust="spacing" textLength="461" x="359" y="427.2217">Physical RAM can be mapped into multiple processes at once -&gt;</text><text fill="#000000" font-family="sans-serif" font-size="14" font-weight="bold" lengthAdjust="spacing" textLength="126" x="824" y="427.2217">Shared memory</text><path d="M299,323.8555 L309,323.8555 C324,323.8555 324,422.375 339,422.375 L349,422.375 " fill="none" style="stroke:#181818;stroke-width:1.0;"/><rect fill="#F1F1F1" height="36.2969" rx="12.5" ry="12.5" style="stroke:#181818;stroke-width:1.5;" width="462" x="349" y="460.5234"/><text fill="#000000" font-family="sans-serif" font-size="14" lengthAdjust="spacing" textLength="442" x="359" y="483.5186">Access permissions for memory regions (read, write, execute)</text><path d="M299,323.8555 L309,323.8555 C324,323.8555 324,478.6719 339,478.6719 L349,478.6719 " fill="none" style="stroke:#181818;stroke-width:1.0;"/><path d="M145,483.5977 L155,483.5977 C170,483.5977 170,323.8555 185,323.8555 L195,323.8555 " fill="none" style="stroke:#181818;stroke-width:1.0;"/><rect fill="#F1F1F1" height="36.2969" rx="12.5" ry="12.5" style="stroke:#181818;stroke-width:1.5;" width="161" x="195" y="601.2656"/><text fill="#000000" font-family="sans-serif" font-size="14" lengthAdjust="spacing" textLength="141" x="205" y="624.2607">Two address spaces</text><rect fill="#F1F1F1" height="36.2969" rx="12.5" ry="12.5" style="stroke:#181818;stroke-width:1.5;" width="301" x="406" y="544.9688"/><text fill="#000000" font-family="sans-serif" font-size="14" lengthAdjust="spacing" textLength="196" x="416" y="567.9639">Physical addresses (used by</text><text fill="#000000" font-family="sans-serif" font-size="14" font-weight="bold" lengthAdjust="spacing" textLength="76" x="616" y="567.9639">hardware</text><text fill="#000000" font-family="sans-serif" font-size="14" lengthAdjust="spacing" textLength="5" x="692" y="567.9639">)</text><rect fill="#F1F1F1" height="36.2969" rx="12.5" ry="12.5" style="stroke:#181818;stroke-width:1.5;" width="53" x="757" y="516.8203"/><text fill="#000000" font-family="sans-serif" font-size="14" lengthAdjust="spacing" textLength="33" x="767" y="539.8154">DMA</text><path d="M707,563.1172 L717,563.1172 C732,563.1172 732,534.9688 747,534.9688 L757,534.9688 " fill="none" style="stroke:#181818;stroke-width:1.0;"/><rect fill="#F1F1F1" height="36.2969" rx="12.5" ry="12.5" style="stroke:#181818;stroke-width:1.5;" width="102" x="757" y="573.1172"/><text fill="#000000" font-family="sans-serif" font-size="14" lengthAdjust="spacing" textLength="82" x="767" y="596.1123">peripherals</text><path d="M707,563.1172 L717,563.1172 C732,563.1172 732,591.2656 747,591.2656 L757,591.2656 " fill="none" style="stroke:#181818;stroke-width:1.0;"/><path d="M356,619.4141 L366,619.4141 C381,619.4141 381,563.1172 396,563.1172 L406,563.1172 " fill="none" style="stroke:#181818;stroke-width:1.0;"/><rect fill="#F1F1F1" height="36.2969" rx="12.5" ry="12.5" style="stroke:#181818;stroke-width:1.5;" width="288" x="406" y="657.5625"/><text fill="#000000" font-family="sans-serif" font-size="14" lengthAdjust="spacing" textLength="186" x="416" y="680.5576">Virtual addresses (used by</text><text fill="#000000" font-family="sans-serif" font-size="14" font-weight="bold" lengthAdjust="spacing" textLength="73" x="606" y="680.5576">software</text><text fill="#000000" font-family="sans-serif" font-size="14" lengthAdjust="spacing" textLength="5" x="679" y="680.5576">)</text><rect fill="#F1F1F1" height="36.2969" rx="12.5" ry="12.5" style="stroke:#181818;stroke-width:1.5;" width="229" x="744" y="629.4141"/><text fill="#000000" font-family="sans-serif" font-size="14" lengthAdjust="spacing" textLength="209" x="754" y="652.4092">load/store instructions (RISC)</text><path d="M694,675.7109 L704,675.7109 C719,675.7109 719,647.5625 734,647.5625 L744,647.5625 " fill="none" style="stroke:#181818;stroke-width:1.0;"/><rect fill="#F1F1F1" height="36.2969" rx="12.5" ry="12.5" style="stroke:#181818;stroke-width:1.5;" width="313" x="744" y="685.7109"/><text fill="#000000" font-family="sans-serif" font-size="14" lengthAdjust="spacing" textLength="293" x="754" y="708.7061">Any instruction accessing memory (CISC)</text><path d="M694,675.7109 L704,675.7109 C719,675.7109 719,703.8594 734,703.8594 L744,703.8594 " fill="none" style="stroke:#181818;stroke-width:1.0;"/><path d="M356,619.4141 L366,619.4141 C381,619.4141 381,675.7109 396,675.7109 L406,675.7109 " fill="none" style="stroke:#181818;stroke-width:1.0;"/><path d="M145,483.5977 L155,483.5977 C170,483.5977 170,619.4141 185,619.4141 L195,619.4141 " fill="none" style="stroke:#181818;stroke-width:1.0;"/><rect fill="#F1F1F1" height="36.2969" rx="12.5" ry="12.5" style="stroke:#181818;stroke-width:1.5;" width="330" x="195" y="826.4531"/><text fill="#000000" font-family="sans-serif" font-size="14" lengthAdjust="spacing" textLength="267" x="205" y="849.4482">Mapping is performed in hardware -&gt;</text><text fill="#000000" font-family="sans-serif" font-size="14" font-weight="bold" lengthAdjust="spacing" textLength="39" x="476" y="849.4482">MMU</text><rect fill="#F1F1F1" height="36.2969" rx="12.5" ry="12.5" style="stroke:#181818;stroke-width:1.5;" width="523" x="575" y="742.0078"/><text fill="#000000" font-family="sans-serif" font-size="14" lengthAdjust="spacing" textLength="503" x="585" y="765.0029">No performance penalty for accessing *already-mapped* RAM regions</text><path d="M525,844.6016 L535,844.6016 C550,844.6016 550,760.1563 565,760.1563 L575,760.1563 " fill="none" style="stroke:#181818;stroke-width:1.0;"/><rect fill="#F1F1F1" height="36.2969" rx="12.5" ry="12.5" style="stroke:#181818;stroke-width:1.5;" width="311" x="575" y="798.3047"/><text fill="#000000" font-family="sans-serif" font-size="14" lengthAdjust="spacing" textLength="291" x="585" y="821.2998">Permissions are handled without penalty</text><path d="M525,844.6016 L535,844.6016 C550,844.6016 550,816.4531 565,816.4531 L575,816.4531 " fill="none" style="stroke:#181818;stroke-width:1.0;"/><rect fill="#F1F1F1" height="36.2969" rx="12.5" ry="12.5" style="stroke:#181818;stroke-width:1.5;" width="572" x="575" y="854.6016"/><text fill="#000000" font-family="sans-serif" font-size="14" lengthAdjust="spacing" textLength="552" x="585" y="877.5967">The same CPU instructions are used for accessing RAM and mapped hardware</text><path d="M525,844.6016 L535,844.6016 C550,844.6016 550,872.75 565,872.75 L575,872.75 " fill="none" style="stroke:#181818;stroke-width:1.0;"/><rect fill="#F1F1F1" height="36.2969" rx="12.5" ry="12.5" style="stroke:#181818;stroke-width:1.5;" width="925" x="575" y="910.8984"/><text fill="#000000" font-family="sans-serif" font-size="14" lengthAdjust="spacing" textLength="905" x="585" y="933.8936">Software, during its normal operation, will only use virtual addressed. (include kernel and user space, this is not true of all OS's)</text><path d="M525,844.6016 L535,844.6016 C550,844.6016 550,929.0469 565,929.0469 L575,929.0469 " fill="none" style="stroke:#181818;stroke-width:1.0;"/><path d="M145,483.5977 L155,483.5977 C170,483.5977 170,844.6016 185,844.6016 L195,844.6016 " fill="none" style="stroke:#181818;stroke-width:1.0;"/><!--MD5=[c9502c520bfc2d7df345a842b7aa763d]
@startmindmap
+ Virtural Memory
++ Defination: A system that uses an address mapping
+++ Maps virtual address space to physical address space
+++_ 和Single Addressing相比，virtual address不是真实的物理地址
+++ 硬件资源
++++_ physical RAM
++++_ hardware devices
+++++_ PCI devices
+++++_ GPU RAM
+++++_ On-SoC IP blocks
++ Advantages
+++ Each processes can have a different memory mapping -> **Built-in memory protection**
++++ One process's RAM is inaccessible (and invisible) to other processes
++++ kernel RAM is invisible to user space processes
+++ Memory can be moved
+++ Memory can be swapped to disk
+++ Map hardware device memory to a process's address space (GPU E.g.)
+++ Physical RAM can be mapped into multiple processes at once -> **Shared memory**
+++ Access permissions for memory regions (read, write, execute)
++ Two address spaces
+++ Physical addresses (used by **hardware**)
++++ DMA
++++ peripherals
+++ Virtual addresses (used by **software**)
++++ load/store instructions (RISC)
++++ Any instruction accessing memory (CISC)
++ Mapping is performed in hardware -> **MMU**
+++ No performance penalty for accessing *already-mapped* RAM regions
+++ Permissions are handled without penalty
+++ The same CPU instructions are used for accessing RAM and mapped hardware
+++ Software, during its normal operation, will only use virtual addressed. (include kernel and user space, this is not true of all OS's)
@endmindmap

PlantUML version 1.2022.4beta2(Unknown compile time)
(GPL source distribution)
Java Runtime: Java(TM) SE Runtime Environment
JVM: Java HotSpot(TM) 64-Bit Server VM
Default Encoding: UTF-8
Language: en
Country: US
--></g></svg>