<?xml version="1.0" encoding="UTF-8" standalone="no"?><svg xmlns="http://www.w3.org/2000/svg" xmlns:xlink="http://www.w3.org/1999/xlink" contentStyleType="text/css" height="468px" preserveAspectRatio="none" style="width:2359px;height:468px;background:#FFFFFF;" version="1.1" viewBox="0 0 2359 468" width="2359px" zoomAndPan="magnify"><defs/><g><rect fill="#F1F1F1" height="36.2969" rx="12.5" ry="12.5" style="stroke:#181818;stroke-width:1.5;" width="47" x="10" y="215.3359"/><text fill="#000000" font-family="sans-serif" font-size="14" lengthAdjust="spacing" textLength="27" x="20" y="238.3311">TLB</text><text fill="#000000" font-family="sans-serif" font-size="14" lengthAdjust="spacing" textLength="205" x="110" y="23.9951">Translation Lookaside Buffer</text><path d="M57,233.4844 L67,233.4844 C82,233.4844 82,19.1484 97,19.1484 L107,19.1484 " fill="none" style="stroke:#181818;stroke-width:1.0;"/><text fill="#000000" font-family="sans-serif" font-size="14" lengthAdjust="spacing" textLength="87" x="110" y="42.292">part of MMU</text><path d="M57,233.4844 L67,233.4844 C82,233.4844 82,37.4453 97,37.4453 L107,37.4453 " fill="none" style="stroke:#181818;stroke-width:1.0;"/><rect fill="#F1F1F1" height="36.2969" rx="12.5" ry="12.5" style="stroke:#181818;stroke-width:1.5;" width="709" x="107" y="56.5938"/><text fill="#000000" font-family="sans-serif" font-size="14" lengthAdjust="spacing" textLength="689" x="117" y="79.5889">a list of mappings from virtual to physical address space in hardware (also holds permission bits)</text><path d="M57,233.4844 L67,233.4844 C82,233.4844 82,74.7422 97,74.7422 L107,74.7422 " fill="none" style="stroke:#181818;stroke-width:1.0;"/><rect fill="#F1F1F1" height="36.2969" rx="12.5" ry="12.5" style="stroke:#181818;stroke-width:1.5;" width="472" x="107" y="112.8906"/><text fill="#000000" font-family="sans-serif" font-size="14" lengthAdjust="spacing" textLength="452" x="117" y="135.8857">a fixed number of entries(slots) in the TLB, which varies by CPU</text><path d="M57,233.4844 L67,233.4844 C82,233.4844 82,131.0391 97,131.0391 L107,131.0391 " fill="none" style="stroke:#181818;stroke-width:1.0;"/><rect fill="#F1F1F1" height="36.2969" rx="12.5" ry="12.5" style="stroke:#181818;stroke-width:1.5;" width="118" x="107" y="205.4844"/><text fill="#000000" font-family="sans-serif" font-size="14" lengthAdjust="spacing" textLength="98" x="117" y="228.4795">How it works?</text><rect fill="#F1F1F1" height="36.2969" rx="12.5" ry="12.5" style="stroke:#181818;stroke-width:1.5;" width="498" x="275" y="205.4844"/><text fill="#000000" font-family="sans-serif" font-size="14" lengthAdjust="spacing" textLength="478" x="285" y="228.4795">TLB is consulted by the MMU when the CPU access a virtual address</text><rect fill="#F1F1F1" height="52.5938" rx="12.5" ry="12.5" style="stroke:#181818;stroke-width:1.5;" width="460" x="823" y="169.1875"/><text fill="#000000" font-family="sans-serif" font-size="14" lengthAdjust="spacing" textLength="243" x="833" y="192.1826">if the virtual address is in the TLB,</text><text fill="#000000" font-family="sans-serif" font-size="14" lengthAdjust="spacing" textLength="440" x="833" y="208.4795">the MMU can look up the physical resource (RAM or hardware)</text><path d="M773,223.6328 L783,223.6328 C798,223.6328 798,195.4844 813,195.4844 L823,195.4844 " fill="none" style="stroke:#181818;stroke-width:1.0;"/><rect fill="#F1F1F1" height="36.2969" rx="12.5" ry="12.5" style="stroke:#181818;stroke-width:1.5;" width="1051" x="823" y="241.7813"/><text fill="#000000" font-family="sans-serif" font-size="14" lengthAdjust="spacing" textLength="147" x="833" y="264.7764">if the virtual address</text><text fill="#000000" font-family="sans-serif" font-size="14" font-weight="bold" lengthAdjust="spacing" textLength="47" x="984" y="264.7764">is not</text><text fill="#000000" font-family="sans-serif" font-size="14" lengthAdjust="spacing" textLength="252" x="1035" y="264.7764">in the TLB, the MMU will generate a</text><text fill="#000000" font-family="sans-serif" font-size="14" font-weight="bold" lengthAdjust="spacing" textLength="84" x="1291" y="264.7764">page fault</text><text fill="#000000" font-family="sans-serif" font-size="14" lengthAdjust="spacing" textLength="485" x="1379" y="264.7764">exception and interrupt the CPU. (same as insufficient permissions)</text><path d="M773,223.6328 L783,223.6328 C798,223.6328 798,259.9297 813,259.9297 L823,259.9297 " fill="none" style="stroke:#181818;stroke-width:1.0;"/><path d="M225,223.6328 L235,223.6328 C250,223.6328 250,223.6328 265,223.6328 L275,223.6328 " fill="none" style="stroke:#181818;stroke-width:1.0;"/><path d="M57,233.4844 L67,233.4844 C82,233.4844 82,223.6328 97,223.6328 L107,223.6328 " fill="none" style="stroke:#181818;stroke-width:1.0;"/><rect fill="#F1F1F1" height="36.2969" rx="12.5" ry="12.5" style="stroke:#181818;stroke-width:1.5;" width="134" x="107" y="354.375"/><text fill="#000000" font-family="sans-serif" font-size="14" lengthAdjust="spacing" textLength="114" x="117" y="377.3701">Shared memory</text><rect fill="#F1F1F1" height="36.2969" rx="12.5" ry="12.5" style="stroke:#181818;stroke-width:1.5;" width="239" x="291" y="354.375"/><text fill="#000000" font-family="sans-serif" font-size="14" lengthAdjust="spacing" textLength="219" x="301" y="377.3701">Easily implemented with MMU.</text><rect fill="#F1F1F1" height="36.2969" rx="12.5" ry="12.5" style="stroke:#181818;stroke-width:1.5;" width="499" x="580" y="298.0781"/><text fill="#000000" font-family="sans-serif" font-size="14" lengthAdjust="spacing" textLength="479" x="590" y="321.0732">Simply map the same physical frame into two different processes.</text><path d="M530,372.5234 L540,372.5234 C555,372.5234 555,316.2266 570,316.2266 L580,316.2266 " fill="none" style="stroke:#181818;stroke-width:1.0;"/><rect fill="#F1F1F1" height="36.2969" rx="12.5" ry="12.5" style="stroke:#181818;stroke-width:1.5;" width="359" x="580" y="382.5234"/><text fill="#000000" font-family="sans-serif" font-size="14" lengthAdjust="spacing" textLength="339" x="590" y="405.5186">The virtual addresses need not to be the same.</text><rect fill="#F1F1F1" height="36.2969" rx="12.5" ry="12.5" style="stroke:#181818;stroke-width:1.5;" width="1003" x="989" y="354.375"/><text fill="#000000" font-family="sans-serif" font-size="14" lengthAdjust="spacing" textLength="983" x="999" y="377.3701">If pointers to values inside a shared memory region are used, it might be important for them to have the same virtual addresses, though.</text><path d="M939,400.6719 L949,400.6719 C964,400.6719 964,372.5234 979,372.5234 L989,372.5234 " fill="none" style="stroke:#181818;stroke-width:1.0;"/><rect fill="#F1F1F1" height="36.2969" rx="12.5" ry="12.5" style="stroke:#181818;stroke-width:1.5;" width="1358" x="989" y="410.6719"/><text fill="#000000" font-family="sans-serif" font-size="14" font-weight="bold" lengthAdjust="spacing" textLength="63" x="999" y="433.667">mmap()</text><text fill="#000000" font-family="sans-serif" font-size="14" lengthAdjust="spacing" textLength="1271" x="1066" y="433.667">system call allows the user space process to request a specific virtual address to map the shared memory region. (the kernel may not be able to grant a mappint at this address)</text><path d="M939,400.6719 L949,400.6719 C964,400.6719 964,428.8203 979,428.8203 L989,428.8203 " fill="none" style="stroke:#181818;stroke-width:1.0;"/><path d="M530,372.5234 L540,372.5234 C555,372.5234 555,400.6719 570,400.6719 L580,400.6719 " fill="none" style="stroke:#181818;stroke-width:1.0;"/><path d="M241,372.5234 L251,372.5234 C266,372.5234 266,372.5234 281,372.5234 L291,372.5234 " fill="none" style="stroke:#181818;stroke-width:1.0;"/><path d="M57,233.4844 L67,233.4844 C82,233.4844 82,372.5234 97,372.5234 L107,372.5234 " fill="none" style="stroke:#181818;stroke-width:1.0;"/><!--MD5=[87895be47acec2790b8050ade5be3ff7]
@startmindmap
+ TLB
++_ Translation Lookaside Buffer
++_ part of MMU
++ a list of mappings from virtual to physical address space in hardware (also holds permission bits)
++ a fixed number of entries(slots) in the TLB, which varies by CPU
++ How it works?
+++ TLB is consulted by the MMU when the CPU access a virtual address
****:if the virtual address is in the TLB,
the MMU can look up the physical resource (RAM or hardware);
++++ if the virtual address **is not** in the TLB, the MMU will generate a **page fault** exception and interrupt the CPU. (same as insufficient permissions)
++ Shared memory
+++ Easily implemented with MMU.
++++ Simply map the same physical frame into two different processes.
++++ The virtual addresses need not to be the same.
+++++ If pointers to values inside a shared memory region are used, it might be important for them to have the same virtual addresses, though.
+++++ **mmap()** system call allows the user space process to request a specific virtual address to map the shared memory region. (the kernel may not be able to grant a mappint at this address)
@endmindmap

PlantUML version 1.2022.4beta2(Unknown compile time)
(GPL source distribution)
Java Runtime: Java(TM) SE Runtime Environment
JVM: Java HotSpot(TM) 64-Bit Server VM
Default Encoding: UTF-8
Language: en
Country: US
--></g></svg>