<?xml version="1.0" encoding="UTF-8" standalone="no"?><svg xmlns="http://www.w3.org/2000/svg" xmlns:xlink="http://www.w3.org/1999/xlink" contentStyleType="text/css" height="444px" preserveAspectRatio="none" style="width:554px;height:444px;background:#FFFFFF;" version="1.1" viewBox="0 0 554 444" width="554px" zoomAndPan="magnify"><defs/><g><rect fill="#F1F1F1" height="36.2969" rx="12.5" ry="12.5" style="stroke:#181818;stroke-width:1.5;" width="87" x="10" y="202.9648"/><text fill="#000000" font-family="sans-serif" font-size="14" lengthAdjust="spacing" textLength="67" x="20" y="225.96">Summary</text><rect fill="#F1F1F1" height="36.2969" rx="12.5" ry="12.5" style="stroke:#181818;stroke-width:1.5;" width="169" x="147" y="20"/><text fill="#000000" font-family="sans-serif" font-size="14" lengthAdjust="spacing" textLength="149" x="157" y="42.9951">Single address space</text><path d="M97,221.1133 L107,221.1133 C122,221.1133 122,38.1484 137,38.1484 L147,38.1484 " fill="none" style="stroke:#181818;stroke-width:1.0;"/><rect fill="#F1F1F1" height="36.2969" rx="12.5" ry="12.5" style="stroke:#181818;stroke-width:1.5;" width="129" x="147" y="76.2969"/><text fill="#000000" font-family="sans-serif" font-size="14" lengthAdjust="spacing" textLength="109" x="157" y="99.292">Virtual Memory</text><path d="M97,221.1133 L107,221.1133 C122,221.1133 122,94.4453 137,94.4453 L147,94.4453 " fill="none" style="stroke:#181818;stroke-width:1.0;"/><rect fill="#F1F1F1" height="36.2969" rx="12.5" ry="12.5" style="stroke:#181818;stroke-width:1.5;" width="53" x="147" y="132.5938"/><text fill="#000000" font-family="sans-serif" font-size="14" lengthAdjust="spacing" textLength="33" x="157" y="155.5889">MMU</text><rect fill="#F1F1F1" height="36.2969" rx="12.5" ry="12.5" style="stroke:#181818;stroke-width:1.5;" width="47" x="250" y="132.5938"/><text fill="#000000" font-family="sans-serif" font-size="14" lengthAdjust="spacing" textLength="27" x="260" y="155.5889">TLB</text><path d="M200,150.7422 L210,150.7422 C225,150.7422 225,150.7422 240,150.7422 L250,150.7422 " fill="none" style="stroke:#181818;stroke-width:1.0;"/><path d="M97,221.1133 L107,221.1133 C122,221.1133 122,150.7422 137,150.7422 L147,150.7422 " fill="none" style="stroke:#181818;stroke-width:1.0;"/><rect fill="#F1F1F1" height="36.2969" rx="12.5" ry="12.5" style="stroke:#181818;stroke-width:1.5;" width="167" x="147" y="188.8906"/><text fill="#000000" font-family="sans-serif" font-size="14" lengthAdjust="spacing" textLength="147" x="157" y="211.8857">Addressing in Kernel</text><rect fill="#F1F1F1" height="36.2969" rx="12.5" ry="12.5" style="stroke:#181818;stroke-width:1.5;" width="148" x="364" y="160.7422"/><text fill="#000000" font-family="sans-serif" font-size="14" lengthAdjust="spacing" textLength="128" x="374" y="183.7373">Kernel addressing</text><path d="M314,207.0391 L324,207.0391 C339,207.0391 339,178.8906 354,178.8906 L364,178.8906 " fill="none" style="stroke:#181818;stroke-width:1.0;"/><rect fill="#F1F1F1" height="36.2969" rx="12.5" ry="12.5" style="stroke:#181818;stroke-width:1.5;" width="178" x="364" y="217.0391"/><text fill="#000000" font-family="sans-serif" font-size="14" lengthAdjust="spacing" textLength="158" x="374" y="240.0342">User space addressing</text><path d="M314,207.0391 L324,207.0391 C339,207.0391 339,235.1875 354,235.1875 L364,235.1875 " fill="none" style="stroke:#181818;stroke-width:1.0;"/><path d="M97,221.1133 L107,221.1133 C122,221.1133 122,207.0391 137,207.0391 L147,207.0391 " fill="none" style="stroke:#181818;stroke-width:1.0;"/><rect fill="#F1F1F1" height="36.2969" rx="12.5" ry="12.5" style="stroke:#181818;stroke-width:1.5;" width="241" x="147" y="273.3359"/><text fill="#000000" font-family="sans-serif" font-size="14" lengthAdjust="spacing" textLength="221" x="157" y="296.3311">Page / Page Table / Page Faults</text><path d="M97,221.1133 L107,221.1133 C122,221.1133 122,291.4844 137,291.4844 L147,291.4844 " fill="none" style="stroke:#181818;stroke-width:1.0;"/><rect fill="#F1F1F1" height="36.2969" rx="12.5" ry="12.5" style="stroke:#181818;stroke-width:1.5;" width="90" x="147" y="329.6328"/><text fill="#000000" font-family="sans-serif" font-size="14" lengthAdjust="spacing" textLength="70" x="157" y="352.6279">Swapping</text><path d="M97,221.1133 L107,221.1133 C122,221.1133 122,347.7813 137,347.7813 L147,347.7813 " fill="none" style="stroke:#181818;stroke-width:1.0;"/><rect fill="#F1F1F1" height="36.2969" rx="12.5" ry="12.5" style="stroke:#181818;stroke-width:1.5;" width="171" x="147" y="385.9297"/><text fill="#000000" font-family="sans-serif" font-size="14" lengthAdjust="spacing" textLength="151" x="157" y="408.9248">User space allocation</text><path d="M97,221.1133 L107,221.1133 C122,221.1133 122,404.0781 137,404.0781 L147,404.0781 " fill="none" style="stroke:#181818;stroke-width:1.0;"/><!--MD5=[c38be336b7405f4a6019faa01d99cb3b]
@startmindmap
+ Summary
++ Single address space
++ Virtual Memory
++ MMU
+++ TLB
++ Addressing in Kernel
+++ Kernel addressing
+++ User space addressing
++ Page / Page Table / Page Faults
++ Swapping
++ User space allocation
@endmindmap

PlantUML version 1.2022.4beta2(Unknown compile time)
(GPL source distribution)
Java Runtime: Java(TM) SE Runtime Environment
JVM: Java HotSpot(TM) 64-Bit Server VM
Default Encoding: UTF-8
Language: en
Country: US
--></g></svg>