<?xml version="1.0" encoding="UTF-8" standalone="no"?><svg xmlns="http://www.w3.org/2000/svg" xmlns:xlink="http://www.w3.org/1999/xlink" contentStyleType="text/css" height="1041px" preserveAspectRatio="none" style="width:1512px;height:1041px;background:#FFFFFF;" version="1.1" viewBox="0 0 1512 1041" width="1512px" zoomAndPan="magnify"><defs/><g><rect fill="#F1F1F1" height="36.2969" rx="12.5" ry="12.5" style="stroke:#181818;stroke-width:1.5;" width="135" x="10" y="501.7461"/><text fill="#000000" font-family="sans-serif" font-size="14" lengthAdjust="spacing" textLength="115" x="20" y="524.7412">Virtural Memory</text><rect fill="#F1F1F1" height="36.2969" rx="12.5" ry="12.5" style="stroke:#181818;stroke-width:1.5;" width="389" x="195" y="85.4453"/><text fill="#000000" font-family="sans-serif" font-size="14" lengthAdjust="spacing" textLength="369" x="205" y="108.4404">Defination: A system that uses an address mapping</text><rect fill="#F1F1F1" height="36.2969" rx="12.5" ry="12.5" style="stroke:#181818;stroke-width:1.5;" width="398" x="634" y="20"/><text fill="#000000" font-family="sans-serif" font-size="14" lengthAdjust="spacing" textLength="378" x="644" y="42.9951">Maps virtual address space to physical address space</text><path d="M584,103.5938 L594,103.5938 C609,103.5938 609,38.1484 624,38.1484 L634,38.1484 " fill="none" style="stroke:#181818;stroke-width:1.0;"/><text fill="#000000" font-family="sans-serif" font-size="14" lengthAdjust="spacing" textLength="413" x="637" y="80.292">和Single Addressing相比，virtual address不是真实的物理地址</text><path d="M584,103.5938 L594,103.5938 C609,103.5938 609,75.4453 624,75.4453 L634,75.4453 " fill="none" style="stroke:#181818;stroke-width:1.0;"/><rect fill="#F1F1F1" height="36.2969" rx="12.5" ry="12.5" style="stroke:#181818;stroke-width:1.5;" width="76" x="634" y="122.7422"/><text fill="#000000" font-family="sans-serif" font-size="14" lengthAdjust="spacing" textLength="56" x="644" y="145.7373">硬件资源</text><rect fill="#F1F1F1" height="36.2969" rx="12.5" ry="12.5" style="stroke:#181818;stroke-width:1.5;" width="114" x="760" y="94.5938"/><text fill="#000000" font-family="sans-serif" font-size="14" lengthAdjust="spacing" textLength="94" x="770" y="117.5889">physical RAM</text><path d="M710,140.8906 L720,140.8906 C735,140.8906 735,112.7422 750,112.7422 L760,112.7422 " fill="none" style="stroke:#181818;stroke-width:1.0;"/><rect fill="#F1F1F1" height="36.2969" rx="12.5" ry="12.5" style="stroke:#181818;stroke-width:1.5;" width="144" x="760" y="150.8906"/><text fill="#000000" font-family="sans-serif" font-size="14" lengthAdjust="spacing" textLength="124" x="770" y="173.8857">hardware devices</text><text fill="#000000" font-family="sans-serif" font-size="14" lengthAdjust="spacing" textLength="81" x="957" y="155.5889">PCI devices</text><path d="M904,169.0391 L914,169.0391 C929,169.0391 929,150.7422 944,150.7422 L954,150.7422 " fill="none" style="stroke:#181818;stroke-width:1.0;"/><text fill="#000000" font-family="sans-serif" font-size="14" lengthAdjust="spacing" textLength="65" x="957" y="173.8857">GPU RAM</text><path d="M904,169.0391 L914,169.0391 C929,169.0391 929,169.0391 944,169.0391 L954,169.0391 " fill="none" style="stroke:#181818;stroke-width:1.0;"/><text fill="#000000" font-family="sans-serif" font-size="14" lengthAdjust="spacing" textLength="122" x="957" y="192.1826">On-SoC IP blocks</text><path d="M904,169.0391 L914,169.0391 C929,169.0391 929,187.3359 944,187.3359 L954,187.3359 " fill="none" style="stroke:#181818;stroke-width:1.0;"/><path d="M710,140.8906 L720,140.8906 C735,140.8906 735,169.0391 750,169.0391 L760,169.0391 " fill="none" style="stroke:#181818;stroke-width:1.0;"/><path d="M584,103.5938 L594,103.5938 C609,103.5938 609,140.8906 624,140.8906 L634,140.8906 " fill="none" style="stroke:#181818;stroke-width:1.0;"/><path d="M145,519.8945 L155,519.8945 C170,519.8945 170,103.5938 185,103.5938 L195,103.5938 " fill="none" style="stroke:#181818;stroke-width:1.0;"/><rect fill="#F1F1F1" height="36.2969" rx="12.5" ry="12.5" style="stroke:#181818;stroke-width:1.5;" width="104" x="195" y="370.1523"/><text fill="#000000" font-family="sans-serif" font-size="14" lengthAdjust="spacing" textLength="84" x="205" y="393.1475">Advantages</text><rect fill="#F1F1F1" height="68.8906" rx="12.5" ry="12.5" style="stroke:#181818;stroke-width:1.5;" width="410" x="349" y="219.0391"/><text fill="#000000" font-family="sans-serif" font-size="14" lengthAdjust="spacing" textLength="390" x="359" y="242.0342">Each processes can have a different memory mapping</text><text fill="#000000" font-family="sans-serif" font-size="14" lengthAdjust="spacing" textLength="23" x="359" y="258.3311">--&gt;</text><text fill="#000000" font-family="sans-serif" font-size="14" font-weight="bold" lengthAdjust="spacing" textLength="221" x="359" y="274.6279">Built-in memory protection</text><rect fill="#F1F1F1" height="36.2969" rx="12.5" ry="12.5" style="stroke:#181818;stroke-width:1.5;" width="505" x="809" y="207.1875"/><text fill="#000000" font-family="sans-serif" font-size="14" lengthAdjust="spacing" textLength="485" x="819" y="230.1826">One process's RAM is inaccessible (and invisible) to other processes</text><path d="M759,253.4844 L769,253.4844 C784,253.4844 784,225.3359 799,225.3359 L809,225.3359 " fill="none" style="stroke:#181818;stroke-width:1.0;"/><rect fill="#F1F1F1" height="36.2969" rx="12.5" ry="12.5" style="stroke:#181818;stroke-width:1.5;" width="356" x="809" y="263.4844"/><text fill="#000000" font-family="sans-serif" font-size="14" lengthAdjust="spacing" textLength="336" x="819" y="286.4795">kernel RAM is invisible to user space processes</text><path d="M759,253.4844 L769,253.4844 C784,253.4844 784,281.6328 799,281.6328 L809,281.6328 " fill="none" style="stroke:#181818;stroke-width:1.0;"/><path d="M299,388.3008 L309,388.3008 C324,388.3008 324,253.4844 339,253.4844 L349,253.4844 " fill="none" style="stroke:#181818;stroke-width:1.0;"/><rect fill="#F1F1F1" height="36.2969" rx="12.5" ry="12.5" style="stroke:#181818;stroke-width:1.5;" width="183" x="349" y="307.9297"/><text fill="#000000" font-family="sans-serif" font-size="14" lengthAdjust="spacing" textLength="163" x="359" y="330.9248">Memory can be moved</text><path d="M299,388.3008 L309,388.3008 C324,388.3008 324,326.0781 339,326.0781 L349,326.0781 " fill="none" style="stroke:#181818;stroke-width:1.0;"/><rect fill="#F1F1F1" height="36.2969" rx="12.5" ry="12.5" style="stroke:#181818;stroke-width:1.5;" width="251" x="349" y="364.2266"/><text fill="#000000" font-family="sans-serif" font-size="14" lengthAdjust="spacing" textLength="231" x="359" y="387.2217">Memory can be swapped to disk</text><path d="M299,388.3008 L309,388.3008 C324,388.3008 324,382.375 339,382.375 L349,382.375 " fill="none" style="stroke:#181818;stroke-width:1.0;"/><rect fill="#F1F1F1" height="36.2969" rx="12.5" ry="12.5" style="stroke:#181818;stroke-width:1.5;" width="518" x="349" y="420.5234"/><text fill="#000000" font-family="sans-serif" font-size="14" lengthAdjust="spacing" textLength="498" x="359" y="443.5186">Map hardware device memory to a process's address space (GPU E.g.)</text><path d="M299,388.3008 L309,388.3008 C324,388.3008 324,438.6719 339,438.6719 L349,438.6719 " fill="none" style="stroke:#181818;stroke-width:1.0;"/><rect fill="#F1F1F1" height="36.2969" rx="12.5" ry="12.5" style="stroke:#181818;stroke-width:1.5;" width="611" x="349" y="476.8203"/><text fill="#000000" font-family="sans-serif" font-size="14" lengthAdjust="spacing" textLength="461" x="359" y="499.8154">Physical RAM can be mapped into multiple processes at once -&gt;</text><text fill="#000000" font-family="sans-serif" font-size="14" font-weight="bold" lengthAdjust="spacing" textLength="126" x="824" y="499.8154">Shared memory</text><path d="M299,388.3008 L309,388.3008 C324,388.3008 324,494.9688 339,494.9688 L349,494.9688 " fill="none" style="stroke:#181818;stroke-width:1.0;"/><rect fill="#F1F1F1" height="36.2969" rx="12.5" ry="12.5" style="stroke:#181818;stroke-width:1.5;" width="462" x="349" y="533.1172"/><text fill="#000000" font-family="sans-serif" font-size="14" lengthAdjust="spacing" textLength="442" x="359" y="556.1123">Access permissions for memory regions (read, write, execute)</text><path d="M299,388.3008 L309,388.3008 C324,388.3008 324,551.2656 339,551.2656 L349,551.2656 " fill="none" style="stroke:#181818;stroke-width:1.0;"/><path d="M145,519.8945 L155,519.8945 C170,519.8945 170,388.3008 185,388.3008 L195,388.3008 " fill="none" style="stroke:#181818;stroke-width:1.0;"/><rect fill="#F1F1F1" height="36.2969" rx="12.5" ry="12.5" style="stroke:#181818;stroke-width:1.5;" width="161" x="195" y="673.8594"/><text fill="#000000" font-family="sans-serif" font-size="14" lengthAdjust="spacing" textLength="141" x="205" y="696.8545">Two address spaces</text><rect fill="#F1F1F1" height="36.2969" rx="12.5" ry="12.5" style="stroke:#181818;stroke-width:1.5;" width="301" x="406" y="617.5625"/><text fill="#000000" font-family="sans-serif" font-size="14" lengthAdjust="spacing" textLength="196" x="416" y="640.5576">Physical addresses (used by</text><text fill="#000000" font-family="sans-serif" font-size="14" font-weight="bold" lengthAdjust="spacing" textLength="76" x="616" y="640.5576">hardware</text><text fill="#000000" font-family="sans-serif" font-size="14" lengthAdjust="spacing" textLength="5" x="692" y="640.5576">)</text><rect fill="#F1F1F1" height="36.2969" rx="12.5" ry="12.5" style="stroke:#181818;stroke-width:1.5;" width="53" x="757" y="589.4141"/><text fill="#000000" font-family="sans-serif" font-size="14" lengthAdjust="spacing" textLength="33" x="767" y="612.4092">DMA</text><path d="M707,635.7109 L717,635.7109 C732,635.7109 732,607.5625 747,607.5625 L757,607.5625 " fill="none" style="stroke:#181818;stroke-width:1.0;"/><rect fill="#F1F1F1" height="36.2969" rx="12.5" ry="12.5" style="stroke:#181818;stroke-width:1.5;" width="102" x="757" y="645.7109"/><text fill="#000000" font-family="sans-serif" font-size="14" lengthAdjust="spacing" textLength="82" x="767" y="668.7061">peripherals</text><path d="M707,635.7109 L717,635.7109 C732,635.7109 732,663.8594 747,663.8594 L757,663.8594 " fill="none" style="stroke:#181818;stroke-width:1.0;"/><path d="M356,692.0078 L366,692.0078 C381,692.0078 381,635.7109 396,635.7109 L406,635.7109 " fill="none" style="stroke:#181818;stroke-width:1.0;"/><rect fill="#F1F1F1" height="36.2969" rx="12.5" ry="12.5" style="stroke:#181818;stroke-width:1.5;" width="288" x="406" y="730.1563"/><text fill="#000000" font-family="sans-serif" font-size="14" lengthAdjust="spacing" textLength="186" x="416" y="753.1514">Virtual addresses (used by</text><text fill="#000000" font-family="sans-serif" font-size="14" font-weight="bold" lengthAdjust="spacing" textLength="73" x="606" y="753.1514">software</text><text fill="#000000" font-family="sans-serif" font-size="14" lengthAdjust="spacing" textLength="5" x="679" y="753.1514">)</text><rect fill="#F1F1F1" height="36.2969" rx="12.5" ry="12.5" style="stroke:#181818;stroke-width:1.5;" width="229" x="744" y="702.0078"/><text fill="#000000" font-family="sans-serif" font-size="14" lengthAdjust="spacing" textLength="209" x="754" y="725.0029">load/store instructions (RISC)</text><path d="M694,748.3047 L704,748.3047 C719,748.3047 719,720.1563 734,720.1563 L744,720.1563 " fill="none" style="stroke:#181818;stroke-width:1.0;"/><rect fill="#F1F1F1" height="36.2969" rx="12.5" ry="12.5" style="stroke:#181818;stroke-width:1.5;" width="313" x="744" y="758.3047"/><text fill="#000000" font-family="sans-serif" font-size="14" lengthAdjust="spacing" textLength="293" x="754" y="781.2998">Any instruction accessing memory (CISC)</text><path d="M694,748.3047 L704,748.3047 C719,748.3047 719,776.4531 734,776.4531 L744,776.4531 " fill="none" style="stroke:#181818;stroke-width:1.0;"/><path d="M356,692.0078 L366,692.0078 C381,692.0078 381,748.3047 396,748.3047 L406,748.3047 " fill="none" style="stroke:#181818;stroke-width:1.0;"/><path d="M145,519.8945 L155,519.8945 C170,519.8945 170,692.0078 185,692.0078 L195,692.0078 " fill="none" style="stroke:#181818;stroke-width:1.0;"/><rect fill="#F1F1F1" height="36.2969" rx="12.5" ry="12.5" style="stroke:#181818;stroke-width:1.5;" width="330" x="195" y="899.0469"/><text fill="#000000" font-family="sans-serif" font-size="14" lengthAdjust="spacing" textLength="267" x="205" y="922.042">Mapping is performed in hardware -&gt;</text><text fill="#000000" font-family="sans-serif" font-size="14" font-weight="bold" lengthAdjust="spacing" textLength="39" x="476" y="922.042">MMU</text><rect fill="#F1F1F1" height="36.2969" rx="12.5" ry="12.5" style="stroke:#181818;stroke-width:1.5;" width="523" x="575" y="814.6016"/><text fill="#000000" font-family="sans-serif" font-size="14" lengthAdjust="spacing" textLength="503" x="585" y="837.5967">No performance penalty for accessing *already-mapped* RAM regions</text><path d="M525,917.1953 L535,917.1953 C550,917.1953 550,832.75 565,832.75 L575,832.75 " fill="none" style="stroke:#181818;stroke-width:1.0;"/><rect fill="#F1F1F1" height="36.2969" rx="12.5" ry="12.5" style="stroke:#181818;stroke-width:1.5;" width="311" x="575" y="870.8984"/><text fill="#000000" font-family="sans-serif" font-size="14" lengthAdjust="spacing" textLength="291" x="585" y="893.8936">Permissions are handled without penalty</text><path d="M525,917.1953 L535,917.1953 C550,917.1953 550,889.0469 565,889.0469 L575,889.0469 " fill="none" style="stroke:#181818;stroke-width:1.0;"/><rect fill="#F1F1F1" height="36.2969" rx="12.5" ry="12.5" style="stroke:#181818;stroke-width:1.5;" width="572" x="575" y="927.1953"/><text fill="#000000" font-family="sans-serif" font-size="14" lengthAdjust="spacing" textLength="552" x="585" y="950.1904">The same CPU instructions are used for accessing RAM and mapped hardware</text><path d="M525,917.1953 L535,917.1953 C550,917.1953 550,945.3438 565,945.3438 L575,945.3438 " fill="none" style="stroke:#181818;stroke-width:1.0;"/><rect fill="#F1F1F1" height="36.2969" rx="12.5" ry="12.5" style="stroke:#181818;stroke-width:1.5;" width="925" x="575" y="983.4922"/><text fill="#000000" font-family="sans-serif" font-size="14" lengthAdjust="spacing" textLength="905" x="585" y="1006.4873">Software, during its normal operation, will only use virtual addressed. (include kernel and user space, this is not true of all OS's)</text><path d="M525,917.1953 L535,917.1953 C550,917.1953 550,1001.6406 565,1001.6406 L575,1001.6406 " fill="none" style="stroke:#181818;stroke-width:1.0;"/><path d="M145,519.8945 L155,519.8945 C170,519.8945 170,917.1953 185,917.1953 L195,917.1953 " fill="none" style="stroke:#181818;stroke-width:1.0;"/><!--MD5=[f9b5e8188843698cfdccbf121e658830]
@startmindmap
+ Virtural Memory
++ Defination: A system that uses an address mapping
+++ Maps virtual address space to physical address space
+++_ 和Single Addressing相比，virtual address不是真实的物理地址
+++ 硬件资源
++++ physical RAM
++++ hardware devices
+++++_ PCI devices
+++++_ GPU RAM
+++++_ On-SoC IP blocks
++ Advantages
***:Each processes can have a different memory mapping
- ->
**Built-in memory protection**;
++++ One process's RAM is inaccessible (and invisible) to other processes
++++ kernel RAM is invisible to user space processes
+++ Memory can be moved
+++ Memory can be swapped to disk
+++ Map hardware device memory to a process's address space (GPU E.g.)
+++ Physical RAM can be mapped into multiple processes at once -> **Shared memory**
+++ Access permissions for memory regions (read, write, execute)
++ Two address spaces
+++ Physical addresses (used by **hardware**)
++++ DMA
++++ peripherals
+++ Virtual addresses (used by **software**)
++++ load/store instructions (RISC)
++++ Any instruction accessing memory (CISC)
++ Mapping is performed in hardware -> **MMU**
+++ No performance penalty for accessing *already-mapped* RAM regions
+++ Permissions are handled without penalty
+++ The same CPU instructions are used for accessing RAM and mapped hardware
+++ Software, during its normal operation, will only use virtual addressed. (include kernel and user space, this is not true of all OS's)
@endmindmap

PlantUML version 1.2022.4beta2(Unknown compile time)
(GPL source distribution)
Java Runtime: Java(TM) SE Runtime Environment
JVM: Java HotSpot(TM) 64-Bit Server VM
Default Encoding: UTF-8
Language: en
Country: US
--></g></svg>