<?xml version="1.0" encoding="UTF-8" standalone="no"?><svg xmlns="http://www.w3.org/2000/svg" xmlns:xlink="http://www.w3.org/1999/xlink" contentStyleType="text/css" height="312px" preserveAspectRatio="none" style="width:1338px;height:312px;background:#FFFFFF;" version="1.1" viewBox="0 0 1338 312" width="1338px" zoomAndPan="magnify"><defs/><g><rect fill="#F1F1F1" height="36.2969" rx="12.5" ry="12.5" style="stroke:#181818;stroke-width:1.5;" width="97" x="10" y="137.171"/><text fill="#000000" font-family="sans-serif" font-size="14" lengthAdjust="spacing" textLength="77" x="20" y="160.1661">User space</text><rect fill="#F1F1F1" height="36.2969" rx="12.5" ry="12.5" style="stroke:#181818;stroke-width:1.5;" width="209" x="157" y="137.171"/><text fill="#000000" font-family="sans-serif" font-size="14" lengthAdjust="spacing" textLength="189" x="167" y="160.1661">User space allocation ways</text><rect fill="#FFE4B5" height="36.7999" rx="12.5" ry="12.5" style="stroke:#181818;stroke-width:1.5;" width="76" x="416" y="20"/><text fill="#000000" font-family="monospace" font-size="14" lengthAdjust="spacing" textLength="56" x="426" y="42.9639">alloc()</text><rect fill="#F1F1F1" height="36.2969" rx="12.5" ry="12.5" style="stroke:#181818;stroke-width:1.5;" width="245" x="542" y="20.2515"/><text fill="#000000" font-family="sans-serif" font-size="14" lengthAdjust="spacing" textLength="225" x="552" y="43.2466">sit on top of platform methods</text><path d="M492,38.4 L502,38.4 C517,38.4 517,38.4 532,38.4 L542,38.4 " fill="none" style="stroke:#181818;stroke-width:1.0;"/><path d="M366,155.3195 L376,155.3195 C391,155.3195 391,38.4 406,38.4 L416,38.4 " fill="none" style="stroke:#181818;stroke-width:1.0;"/><rect fill="#FFE4B5" height="36.7999" rx="12.5" ry="12.5" style="stroke:#181818;stroke-width:1.5;" width="68" x="416" y="132.8453"/><text fill="#000000" font-family="monospace" font-size="14" lengthAdjust="spacing" textLength="48" x="426" y="155.8092">mmap()</text><rect fill="#F1F1F1" height="36.2969" rx="12.5" ry="12.5" style="stroke:#181818;stroke-width:1.5;" width="526" x="534" y="76.7999"/><text fill="#000000" font-family="sans-serif" font-size="14" lengthAdjust="spacing" textLength="506" x="544" y="99.795">the standard way to allocate large amounts of memory and map pages</text><path d="M484,151.2452 L494,151.2452 C509,151.2452 509,94.9484 524,94.9484 L534,94.9484 " fill="none" style="stroke:#181818;stroke-width:1.0;"/><rect fill="#F1F1F1" height="36.2969" rx="12.5" ry="12.5" style="stroke:#181818;stroke-width:1.5;" width="792" x="534" y="133.0968"/><text fill="#000000" font-family="sans-serif" font-size="14" lengthAdjust="spacing" textLength="169" x="544" y="156.0919">often used for files, the</text><text fill="#000000" font-family="sans-serif" font-size="14" font-weight="bold" lengthAdjust="spacing" textLength="144" x="717" y="156.0919">MAP_ANONYMOUS</text><text fill="#000000" font-family="sans-serif" font-size="14" lengthAdjust="spacing" textLength="451" x="865" y="156.0919">flag causes mmap() to allocate normal memory for the process</text><path d="M484,151.2452 L494,151.2452 C509,151.2452 509,151.2452 524,151.2452 L534,151.2452 " fill="none" style="stroke:#181818;stroke-width:1.0;"/><rect fill="#F1F1F1" height="36.2969" rx="12.5" ry="12.5" style="stroke:#181818;stroke-width:1.5;" width="626" x="534" y="189.3937"/><text fill="#000000" font-family="sans-serif" font-size="14" lengthAdjust="spacing" textLength="27" x="544" y="212.3888">The</text><text fill="#000000" font-family="sans-serif" font-size="14" font-weight="bold" lengthAdjust="spacing" textLength="105" x="575" y="212.3888">MAP_SHARED</text><text fill="#000000" font-family="sans-serif" font-size="14" lengthAdjust="spacing" textLength="466" x="684" y="212.3888">flag can make the allocated pages sharable with other processes</text><path d="M484,151.2452 L494,151.2452 C509,151.2452 509,207.5421 524,207.5421 L534,207.5421 " fill="none" style="stroke:#181818;stroke-width:1.0;"/><path d="M366,155.3195 L376,155.3195 C391,155.3195 391,151.2452 406,151.2452 L416,151.2452 " fill="none" style="stroke:#181818;stroke-width:1.0;"/><rect fill="#FFE4B5" height="53.5999" rx="12.5" ry="12.5" style="stroke:#181818;stroke-width:1.5;" width="68" x="416" y="237.0391"/><text fill="#000000" font-family="monospace" font-size="14" lengthAdjust="spacing" textLength="40" x="426" y="260.003">brk()</text><text fill="#000000" font-family="monospace" font-size="14" lengthAdjust="spacing" textLength="48" x="426" y="276.8029">sbrk()</text><rect fill="#F1F1F1" height="36.2969" rx="12.5" ry="12.5" style="stroke:#181818;stroke-width:1.5;" width="290" x="534" y="245.6906"/><text fill="#000000" font-family="sans-serif" font-size="14" lengthAdjust="spacing" textLength="270" x="544" y="268.6857">can be used to increase the heap size</text><path d="M484,263.839 L494,263.839 C509,263.839 509,263.839 524,263.839 L534,263.839 " fill="none" style="stroke:#181818;stroke-width:1.0;"/><path d="M366,155.3195 L376,155.3195 C391,155.3195 391,263.839 406,263.839 L416,263.839 " fill="none" style="stroke:#181818;stroke-width:1.0;"/><path d="M107,155.3195 L117,155.3195 C132,155.3195 132,155.3195 147,155.3195 L157,155.3195 " fill="none" style="stroke:#181818;stroke-width:1.0;"/><!--MD5=[1e0633391e9fda2c8ad0adbf53113253]
@startmindmap
+ User space
++ User space allocation ways
***[#moccasin]:<code>
alloc()
</code>;
++++ sit on top of platform methods
***[#moccasin]:<code>
mmap()
</code>;
++++ the standard way to allocate large amounts of memory and map pages
++++ often used for files, the **MAP_ANONYMOUS** flag causes mmap() to allocate normal memory for the process
++++ The **MAP_SHARED** flag can make the allocated pages sharable with other processes
***[#moccasin]:<code>
brk()
sbrk()
</code>;
++++ can be used to increase the heap size
@endmindmap

PlantUML version 1.2022.4beta2(Unknown compile time)
(GPL source distribution)
Java Runtime: Java(TM) SE Runtime Environment
JVM: Java HotSpot(TM) 64-Bit Server VM
Default Encoding: UTF-8
Language: en
Country: US
--></g></svg>