<?xml version="1.0" encoding="UTF-8" standalone="no"?><svg xmlns="http://www.w3.org/2000/svg" xmlns:xlink="http://www.w3.org/1999/xlink" contentStyleType="text/css" height="1033px" preserveAspectRatio="none" style="width:1512px;height:1033px;background:#FFFFFF;" version="1.1" viewBox="0 0 1512 1033" width="1512px" zoomAndPan="magnify"><defs/><g><rect fill="#F1F1F1" height="36.2969" rx="12.5" ry="12.5" style="stroke:#181818;stroke-width:1.5;" width="135" x="10" y="497.6719"/><text fill="#000000" font-family="sans-serif" font-size="14" lengthAdjust="spacing" textLength="115" x="20" y="520.667">Virtural Memory</text><rect fill="#F1F1F1" height="36.2969" rx="12.5" ry="12.5" style="stroke:#181818;stroke-width:1.5;" width="389" x="195" y="85.4453"/><text fill="#000000" font-family="sans-serif" font-size="14" lengthAdjust="spacing" textLength="369" x="205" y="108.4404">Defination: A system that uses an address mapping</text><rect fill="#F1F1F1" height="36.2969" rx="12.5" ry="12.5" style="stroke:#181818;stroke-width:1.5;" width="398" x="634" y="20"/><text fill="#000000" font-family="sans-serif" font-size="14" lengthAdjust="spacing" textLength="378" x="644" y="42.9951">Maps virtual address space to physical address space</text><path d="M584,103.5938 L594,103.5938 C609,103.5938 609,38.1484 624,38.1484 L634,38.1484 " fill="none" style="stroke:#181818;stroke-width:1.0;"/><text fill="#000000" font-family="sans-serif" font-size="14" lengthAdjust="spacing" textLength="413" x="637" y="80.292">和Single Addressing相比，virtual address不是真实的物理地址</text><path d="M584,103.5938 L594,103.5938 C609,103.5938 609,75.4453 624,75.4453 L634,75.4453 " fill="none" style="stroke:#181818;stroke-width:1.0;"/><rect fill="#F1F1F1" height="36.2969" rx="12.5" ry="12.5" style="stroke:#181818;stroke-width:1.5;" width="76" x="634" y="122.7422"/><text fill="#000000" font-family="sans-serif" font-size="14" lengthAdjust="spacing" textLength="56" x="644" y="145.7373">硬件资源</text><rect fill="#F1F1F1" height="36.2969" rx="12.5" ry="12.5" style="stroke:#181818;stroke-width:1.5;" width="114" x="760" y="94.5938"/><text fill="#000000" font-family="sans-serif" font-size="14" lengthAdjust="spacing" textLength="94" x="770" y="117.5889">physical RAM</text><path d="M710,140.8906 L720,140.8906 C735,140.8906 735,112.7422 750,112.7422 L760,112.7422 " fill="none" style="stroke:#181818;stroke-width:1.0;"/><rect fill="#F1F1F1" height="36.2969" rx="12.5" ry="12.5" style="stroke:#181818;stroke-width:1.5;" width="144" x="760" y="150.8906"/><text fill="#000000" font-family="sans-serif" font-size="14" lengthAdjust="spacing" textLength="124" x="770" y="173.8857">hardware devices</text><text fill="#000000" font-family="sans-serif" font-size="14" lengthAdjust="spacing" textLength="81" x="957" y="155.5889">PCI devices</text><path d="M904,169.0391 L914,169.0391 C929,169.0391 929,150.7422 944,150.7422 L954,150.7422 " fill="none" style="stroke:#181818;stroke-width:1.0;"/><text fill="#000000" font-family="sans-serif" font-size="14" lengthAdjust="spacing" textLength="65" x="957" y="173.8857">GPU RAM</text><path d="M904,169.0391 L914,169.0391 C929,169.0391 929,169.0391 944,169.0391 L954,169.0391 " fill="none" style="stroke:#181818;stroke-width:1.0;"/><text fill="#000000" font-family="sans-serif" font-size="14" lengthAdjust="spacing" textLength="122" x="957" y="192.1826">On-SoC IP blocks</text><path d="M904,169.0391 L914,169.0391 C929,169.0391 929,187.3359 944,187.3359 L954,187.3359 " fill="none" style="stroke:#181818;stroke-width:1.0;"/><path d="M710,140.8906 L720,140.8906 C735,140.8906 735,169.0391 750,169.0391 L760,169.0391 " fill="none" style="stroke:#181818;stroke-width:1.0;"/><path d="M584,103.5938 L594,103.5938 C609,103.5938 609,140.8906 624,140.8906 L634,140.8906 " fill="none" style="stroke:#181818;stroke-width:1.0;"/><path d="M145,515.8203 L155,515.8203 C170,515.8203 170,103.5938 185,103.5938 L195,103.5938 " fill="none" style="stroke:#181818;stroke-width:1.0;"/><rect fill="#F1F1F1" height="36.2969" rx="12.5" ry="12.5" style="stroke:#181818;stroke-width:1.5;" width="104" x="195" y="366.0781"/><text fill="#000000" font-family="sans-serif" font-size="14" lengthAdjust="spacing" textLength="84" x="205" y="389.0732">Advantages</text><rect fill="#F1F1F1" height="52.5938" rx="12.5" ry="12.5" style="stroke:#181818;stroke-width:1.5;" width="410" x="349" y="227.1875"/><text fill="#000000" font-family="sans-serif" font-size="14" lengthAdjust="spacing" textLength="390" x="359" y="250.1826">Each processes can have a different memory mapping</text><text fill="#000000" font-family="sans-serif" font-size="14" lengthAdjust="spacing" textLength="5" x="359" y="266.4795">[</text><text fill="#000000" font-family="sans-serif" font-size="14" font-weight="bold" lengthAdjust="spacing" textLength="221" x="364" y="266.4795">Built-in memory protection</text><text fill="#000000" font-family="sans-serif" font-size="14" lengthAdjust="spacing" textLength="5" x="585" y="266.4795">]</text><rect fill="#F1F1F1" height="36.2969" rx="12.5" ry="12.5" style="stroke:#181818;stroke-width:1.5;" width="505" x="809" y="207.1875"/><text fill="#000000" font-family="sans-serif" font-size="14" lengthAdjust="spacing" textLength="485" x="819" y="230.1826">One process's RAM is inaccessible (and invisible) to other processes</text><path d="M759,253.4844 L769,253.4844 C784,253.4844 784,225.3359 799,225.3359 L809,225.3359 " fill="none" style="stroke:#181818;stroke-width:1.0;"/><rect fill="#F1F1F1" height="36.2969" rx="12.5" ry="12.5" style="stroke:#181818;stroke-width:1.5;" width="356" x="809" y="263.4844"/><text fill="#000000" font-family="sans-serif" font-size="14" lengthAdjust="spacing" textLength="336" x="819" y="286.4795">kernel RAM is invisible to user space processes</text><path d="M759,253.4844 L769,253.4844 C784,253.4844 784,281.6328 799,281.6328 L809,281.6328 " fill="none" style="stroke:#181818;stroke-width:1.0;"/><path d="M299,384.2266 L309,384.2266 C324,384.2266 324,253.4844 339,253.4844 L349,253.4844 " fill="none" style="stroke:#181818;stroke-width:1.0;"/><rect fill="#F1F1F1" height="36.2969" rx="12.5" ry="12.5" style="stroke:#181818;stroke-width:1.5;" width="183" x="349" y="299.7813"/><text fill="#000000" font-family="sans-serif" font-size="14" lengthAdjust="spacing" textLength="163" x="359" y="322.7764">Memory can be moved</text><path d="M299,384.2266 L309,384.2266 C324,384.2266 324,317.9297 339,317.9297 L349,317.9297 " fill="none" style="stroke:#181818;stroke-width:1.0;"/><rect fill="#F1F1F1" height="36.2969" rx="12.5" ry="12.5" style="stroke:#181818;stroke-width:1.5;" width="251" x="349" y="356.0781"/><text fill="#000000" font-family="sans-serif" font-size="14" lengthAdjust="spacing" textLength="231" x="359" y="379.0732">Memory can be swapped to disk</text><path d="M299,384.2266 L309,384.2266 C324,384.2266 324,374.2266 339,374.2266 L349,374.2266 " fill="none" style="stroke:#181818;stroke-width:1.0;"/><rect fill="#F1F1F1" height="36.2969" rx="12.5" ry="12.5" style="stroke:#181818;stroke-width:1.5;" width="518" x="349" y="412.375"/><text fill="#000000" font-family="sans-serif" font-size="14" lengthAdjust="spacing" textLength="498" x="359" y="435.3701">Map hardware device memory to a process's address space (GPU E.g.)</text><path d="M299,384.2266 L309,384.2266 C324,384.2266 324,430.5234 339,430.5234 L349,430.5234 " fill="none" style="stroke:#181818;stroke-width:1.0;"/><rect fill="#F1F1F1" height="36.2969" rx="12.5" ry="12.5" style="stroke:#181818;stroke-width:1.5;" width="611" x="349" y="468.6719"/><text fill="#000000" font-family="sans-serif" font-size="14" lengthAdjust="spacing" textLength="461" x="359" y="491.667">Physical RAM can be mapped into multiple processes at once -&gt;</text><text fill="#000000" font-family="sans-serif" font-size="14" font-weight="bold" lengthAdjust="spacing" textLength="126" x="824" y="491.667">Shared memory</text><path d="M299,384.2266 L309,384.2266 C324,384.2266 324,486.8203 339,486.8203 L349,486.8203 " fill="none" style="stroke:#181818;stroke-width:1.0;"/><rect fill="#F1F1F1" height="36.2969" rx="12.5" ry="12.5" style="stroke:#181818;stroke-width:1.5;" width="462" x="349" y="524.9688"/><text fill="#000000" font-family="sans-serif" font-size="14" lengthAdjust="spacing" textLength="442" x="359" y="547.9639">Access permissions for memory regions (read, write, execute)</text><path d="M299,384.2266 L309,384.2266 C324,384.2266 324,543.1172 339,543.1172 L349,543.1172 " fill="none" style="stroke:#181818;stroke-width:1.0;"/><path d="M145,515.8203 L155,515.8203 C170,515.8203 170,384.2266 185,384.2266 L195,384.2266 " fill="none" style="stroke:#181818;stroke-width:1.0;"/><rect fill="#F1F1F1" height="36.2969" rx="12.5" ry="12.5" style="stroke:#181818;stroke-width:1.5;" width="161" x="195" y="665.7109"/><text fill="#000000" font-family="sans-serif" font-size="14" lengthAdjust="spacing" textLength="141" x="205" y="688.7061">Two address spaces</text><rect fill="#F1F1F1" height="36.2969" rx="12.5" ry="12.5" style="stroke:#181818;stroke-width:1.5;" width="301" x="406" y="609.4141"/><text fill="#000000" font-family="sans-serif" font-size="14" lengthAdjust="spacing" textLength="196" x="416" y="632.4092">Physical addresses (used by</text><text fill="#000000" font-family="sans-serif" font-size="14" font-weight="bold" lengthAdjust="spacing" textLength="76" x="616" y="632.4092">hardware</text><text fill="#000000" font-family="sans-serif" font-size="14" lengthAdjust="spacing" textLength="5" x="692" y="632.4092">)</text><rect fill="#F1F1F1" height="36.2969" rx="12.5" ry="12.5" style="stroke:#181818;stroke-width:1.5;" width="53" x="757" y="581.2656"/><text fill="#000000" font-family="sans-serif" font-size="14" lengthAdjust="spacing" textLength="33" x="767" y="604.2607">DMA</text><path d="M707,627.5625 L717,627.5625 C732,627.5625 732,599.4141 747,599.4141 L757,599.4141 " fill="none" style="stroke:#181818;stroke-width:1.0;"/><rect fill="#F1F1F1" height="36.2969" rx="12.5" ry="12.5" style="stroke:#181818;stroke-width:1.5;" width="102" x="757" y="637.5625"/><text fill="#000000" font-family="sans-serif" font-size="14" lengthAdjust="spacing" textLength="82" x="767" y="660.5576">peripherals</text><path d="M707,627.5625 L717,627.5625 C732,627.5625 732,655.7109 747,655.7109 L757,655.7109 " fill="none" style="stroke:#181818;stroke-width:1.0;"/><path d="M356,683.8594 L366,683.8594 C381,683.8594 381,627.5625 396,627.5625 L406,627.5625 " fill="none" style="stroke:#181818;stroke-width:1.0;"/><rect fill="#F1F1F1" height="36.2969" rx="12.5" ry="12.5" style="stroke:#181818;stroke-width:1.5;" width="288" x="406" y="722.0078"/><text fill="#000000" font-family="sans-serif" font-size="14" lengthAdjust="spacing" textLength="186" x="416" y="745.0029">Virtual addresses (used by</text><text fill="#000000" font-family="sans-serif" font-size="14" font-weight="bold" lengthAdjust="spacing" textLength="73" x="606" y="745.0029">software</text><text fill="#000000" font-family="sans-serif" font-size="14" lengthAdjust="spacing" textLength="5" x="679" y="745.0029">)</text><rect fill="#F1F1F1" height="36.2969" rx="12.5" ry="12.5" style="stroke:#181818;stroke-width:1.5;" width="229" x="744" y="693.8594"/><text fill="#000000" font-family="sans-serif" font-size="14" lengthAdjust="spacing" textLength="209" x="754" y="716.8545">load/store instructions (RISC)</text><path d="M694,740.1563 L704,740.1563 C719,740.1563 719,712.0078 734,712.0078 L744,712.0078 " fill="none" style="stroke:#181818;stroke-width:1.0;"/><rect fill="#F1F1F1" height="36.2969" rx="12.5" ry="12.5" style="stroke:#181818;stroke-width:1.5;" width="313" x="744" y="750.1563"/><text fill="#000000" font-family="sans-serif" font-size="14" lengthAdjust="spacing" textLength="293" x="754" y="773.1514">Any instruction accessing memory (CISC)</text><path d="M694,740.1563 L704,740.1563 C719,740.1563 719,768.3047 734,768.3047 L744,768.3047 " fill="none" style="stroke:#181818;stroke-width:1.0;"/><path d="M356,683.8594 L366,683.8594 C381,683.8594 381,740.1563 396,740.1563 L406,740.1563 " fill="none" style="stroke:#181818;stroke-width:1.0;"/><path d="M145,515.8203 L155,515.8203 C170,515.8203 170,683.8594 185,683.8594 L195,683.8594 " fill="none" style="stroke:#181818;stroke-width:1.0;"/><rect fill="#F1F1F1" height="36.2969" rx="12.5" ry="12.5" style="stroke:#181818;stroke-width:1.5;" width="330" x="195" y="890.8984"/><text fill="#000000" font-family="sans-serif" font-size="14" lengthAdjust="spacing" textLength="267" x="205" y="913.8936">Mapping is performed in hardware -&gt;</text><text fill="#000000" font-family="sans-serif" font-size="14" font-weight="bold" lengthAdjust="spacing" textLength="39" x="476" y="913.8936">MMU</text><rect fill="#F1F1F1" height="36.2969" rx="12.5" ry="12.5" style="stroke:#181818;stroke-width:1.5;" width="523" x="575" y="806.4531"/><text fill="#000000" font-family="sans-serif" font-size="14" lengthAdjust="spacing" textLength="503" x="585" y="829.4482">No performance penalty for accessing *already-mapped* RAM regions</text><path d="M525,909.0469 L535,909.0469 C550,909.0469 550,824.6016 565,824.6016 L575,824.6016 " fill="none" style="stroke:#181818;stroke-width:1.0;"/><rect fill="#F1F1F1" height="36.2969" rx="12.5" ry="12.5" style="stroke:#181818;stroke-width:1.5;" width="311" x="575" y="862.75"/><text fill="#000000" font-family="sans-serif" font-size="14" lengthAdjust="spacing" textLength="291" x="585" y="885.7451">Permissions are handled without penalty</text><path d="M525,909.0469 L535,909.0469 C550,909.0469 550,880.8984 565,880.8984 L575,880.8984 " fill="none" style="stroke:#181818;stroke-width:1.0;"/><rect fill="#F1F1F1" height="36.2969" rx="12.5" ry="12.5" style="stroke:#181818;stroke-width:1.5;" width="572" x="575" y="919.0469"/><text fill="#000000" font-family="sans-serif" font-size="14" lengthAdjust="spacing" textLength="552" x="585" y="942.042">The same CPU instructions are used for accessing RAM and mapped hardware</text><path d="M525,909.0469 L535,909.0469 C550,909.0469 550,937.1953 565,937.1953 L575,937.1953 " fill="none" style="stroke:#181818;stroke-width:1.0;"/><rect fill="#F1F1F1" height="36.2969" rx="12.5" ry="12.5" style="stroke:#181818;stroke-width:1.5;" width="925" x="575" y="975.3438"/><text fill="#000000" font-family="sans-serif" font-size="14" lengthAdjust="spacing" textLength="905" x="585" y="998.3389">Software, during its normal operation, will only use virtual addressed. (include kernel and user space, this is not true of all OS's)</text><path d="M525,909.0469 L535,909.0469 C550,909.0469 550,993.4922 565,993.4922 L575,993.4922 " fill="none" style="stroke:#181818;stroke-width:1.0;"/><path d="M145,515.8203 L155,515.8203 C170,515.8203 170,909.0469 185,909.0469 L195,909.0469 " fill="none" style="stroke:#181818;stroke-width:1.0;"/><!--MD5=[6c6401c92f78ed7562944df993e2050d]
@startmindmap
+ Virtural Memory
++ Defination: A system that uses an address mapping
+++ Maps virtual address space to physical address space
+++_ 和Single Addressing相比，virtual address不是真实的物理地址
+++ 硬件资源
++++ physical RAM
++++ hardware devices
+++++_ PCI devices
+++++_ GPU RAM
+++++_ On-SoC IP blocks
++ Advantages
***:Each processes can have a different memory mapping
[**Built-in memory protection**];
++++ One process's RAM is inaccessible (and invisible) to other processes
++++ kernel RAM is invisible to user space processes
+++ Memory can be moved
+++ Memory can be swapped to disk
+++ Map hardware device memory to a process's address space (GPU E.g.)
+++ Physical RAM can be mapped into multiple processes at once -> **Shared memory**
+++ Access permissions for memory regions (read, write, execute)
++ Two address spaces
+++ Physical addresses (used by **hardware**)
++++ DMA
++++ peripherals
+++ Virtual addresses (used by **software**)
++++ load/store instructions (RISC)
++++ Any instruction accessing memory (CISC)
++ Mapping is performed in hardware -> **MMU**
+++ No performance penalty for accessing *already-mapped* RAM regions
+++ Permissions are handled without penalty
+++ The same CPU instructions are used for accessing RAM and mapped hardware
+++ Software, during its normal operation, will only use virtual addressed. (include kernel and user space, this is not true of all OS's)
@endmindmap

PlantUML version 1.2022.4beta2(Unknown compile time)
(GPL source distribution)
Java Runtime: Java(TM) SE Runtime Environment
JVM: Java HotSpot(TM) 64-Bit Server VM
Default Encoding: UTF-8
Language: en
Country: US
--></g></svg>