<?xml version="1.0" encoding="UTF-8" standalone="no"?><svg xmlns="http://www.w3.org/2000/svg" xmlns:xlink="http://www.w3.org/1999/xlink" contentStyleType="text/css" height="543px" preserveAspectRatio="none" style="width:1045px;height:543px;background:#FFFFFF;" version="1.1" viewBox="0 0 1045 543" width="1045px" zoomAndPan="magnify"><defs/><g><rect fill="#F1F1F1" height="36.2969" rx="12.5" ry="12.5" style="stroke:#181818;stroke-width:1.5;" width="173" x="10" y="252.6328"/><text fill="#000000" font-family="sans-serif" font-size="14" lengthAdjust="spacing" textLength="153" x="20" y="275.6279">Single Address Space</text><text fill="#000000" font-family="sans-serif" font-size="14" lengthAdjust="spacing" textLength="400" x="236" y="23.9951">Address Mapping的一种方式，和下面的Virtual Memory对应</text><path d="M183,270.7813 L193,270.7813 C208,270.7813 208,19.1484 223,19.1484 L233,19.1484 " fill="none" style="stroke:#181818;stroke-width:1.0;"/><rect fill="#F1F1F1" height="36.2969" rx="12.5" ry="12.5" style="stroke:#181818;stroke-width:1.5;" width="356" x="233" y="38.2969"/><text fill="#000000" font-family="sans-serif" font-size="14" lengthAdjust="spacing" textLength="336" x="243" y="61.292">顾名思义，将所有的硬件资源映射到单一的地址空间中</text><text fill="#000000" font-family="sans-serif" font-size="14" lengthAdjust="spacing" textLength="126" x="642" y="52.1436">硬件资源不局限内存</text><path d="M589,56.4453 L599,56.4453 C614,56.4453 614,47.2969 629,47.2969 L639,47.2969 " fill="none" style="stroke:#181818;stroke-width:1.0;"/><text fill="#000000" font-family="sans-serif" font-size="14" lengthAdjust="spacing" textLength="144" x="642" y="70.4404">Single修饰的是Space</text><path d="M589,56.4453 L599,56.4453 C614,56.4453 614,65.5938 629,65.5938 L639,65.5938 " fill="none" style="stroke:#181818;stroke-width:1.0;"/><path d="M183,270.7813 L193,270.7813 C208,270.7813 208,56.4453 223,56.4453 L233,56.4453 " fill="none" style="stroke:#181818;stroke-width:1.0;"/><rect fill="#F1F1F1" height="36.2969" rx="12.5" ry="12.5" style="stroke:#181818;stroke-width:1.5;" width="305" x="233" y="111.8906"/><text fill="#000000" font-family="sans-serif" font-size="14" lengthAdjust="spacing" textLength="285" x="243" y="134.8857">映射的硬件资源：Memory and Peripherals</text><rect fill="#F1F1F1" height="52.5938" rx="12.5" ry="12.5" style="stroke:#181818;stroke-width:1.5;" width="445" x="588" y="94.5938"/><text fill="#000000" font-family="sans-serif" font-size="14" lengthAdjust="spacing" textLength="425" x="598" y="117.5889">映射方式：share the same space, mapped to different parts</text><text fill="#000000" font-family="sans-serif" font-size="14" lengthAdjust="spacing" textLength="280" x="598" y="133.8857">不同的硬件在同一地址空间中，占据不同部分</text><path d="M538,130.0391 L548,130.0391 C563,130.0391 563,120.8906 578,120.8906 L588,120.8906 " fill="none" style="stroke:#181818;stroke-width:1.0;"/><text fill="#000000" font-family="sans-serif" font-size="14" lengthAdjust="spacing" textLength="118" x="591" y="171.1826">Peripherals: 外设</text><path d="M538,130.0391 L548,130.0391 C563,130.0391 563,166.3359 578,166.3359 L588,166.3359 " fill="none" style="stroke:#181818;stroke-width:1.0;"/><path d="M183,270.7813 L193,270.7813 C208,270.7813 208,130.0391 223,130.0391 L233,130.0391 " fill="none" style="stroke:#181818;stroke-width:1.0;"/><rect fill="#F1F1F1" height="36.2969" rx="12.5" ry="12.5" style="stroke:#181818;stroke-width:1.5;" width="392" x="233" y="250.9297"/><text fill="#000000" font-family="sans-serif" font-size="14" lengthAdjust="spacing" textLength="372" x="243" y="273.9248">All processes and OS share the same memory space</text><text fill="#000000" font-family="sans-serif" font-size="14" lengthAdjust="spacing" textLength="154" x="678" y="189.4795">共享地址空间带来的问题</text><path d="M625,269.0781 L635,269.0781 C650,269.0781 650,184.6328 665,184.6328 L675,184.6328 " fill="none" style="stroke:#181818;stroke-width:1.0;"/><rect fill="#F1F1F1" height="36.2969" rx="12.5" ry="12.5" style="stroke:#181818;stroke-width:1.5;" width="185" x="675" y="203.7813"/><text fill="#000000" font-family="sans-serif" font-size="14" lengthAdjust="spacing" textLength="165" x="685" y="226.7764">No memory protection</text><path d="M625,269.0781 L635,269.0781 C650,269.0781 650,221.9297 665,221.9297 L675,221.9297 " fill="none" style="stroke:#181818;stroke-width:1.0;"/><rect fill="#F1F1F1" height="36.2969" rx="12.5" ry="12.5" style="stroke:#181818;stroke-width:1.5;" width="263" x="675" y="260.0781"/><text fill="#000000" font-family="sans-serif" font-size="14" lengthAdjust="spacing" textLength="243" x="685" y="283.0732">Processes can stomp one another</text><path d="M625,269.0781 L635,269.0781 C650,269.0781 650,278.2266 665,278.2266 L675,278.2266 " fill="none" style="stroke:#181818;stroke-width:1.0;"/><rect fill="#F1F1F1" height="36.2969" rx="12.5" ry="12.5" style="stroke:#181818;stroke-width:1.5;" width="227" x="675" y="316.375"/><text fill="#000000" font-family="sans-serif" font-size="14" lengthAdjust="spacing" textLength="207" x="685" y="339.3701">User space can stomp kernel</text><path d="M625,269.0781 L635,269.0781 C650,269.0781 650,334.5234 665,334.5234 L675,334.5234 " fill="none" style="stroke:#181818;stroke-width:1.0;"/><path d="M183,270.7813 L193,270.7813 C208,270.7813 208,269.0781 223,269.0781 L233,269.0781 " fill="none" style="stroke:#181818;stroke-width:1.0;"/><rect fill="#F1F1F1" height="36.2969" rx="12.5" ry="12.5" style="stroke:#181818;stroke-width:1.5;" width="101" x="233" y="428.9688"/><text fill="#000000" font-family="sans-serif" font-size="14" lengthAdjust="spacing" textLength="81" x="243" y="451.9639">Limitations</text><rect fill="#F1F1F1" height="36.2969" rx="12.5" ry="12.5" style="stroke:#181818;stroke-width:1.5;" width="317" x="384" y="372.6719"/><text fill="#000000" font-family="sans-serif" font-size="14" lengthAdjust="spacing" textLength="297" x="394" y="395.667">Portable C programs expect flat memory</text><path d="M334,447.1172 L344,447.1172 C359,447.1172 359,390.8203 374,390.8203 L384,390.8203 " fill="none" style="stroke:#181818;stroke-width:1.0;"/><rect fill="#F1F1F1" height="36.2969" rx="12.5" ry="12.5" style="stroke:#181818;stroke-width:1.5;" width="162" x="384" y="428.9688"/><text fill="#000000" font-family="sans-serif" font-size="14" lengthAdjust="spacing" textLength="142" x="394" y="451.9639">tricky management</text><path d="M334,447.1172 L344,447.1172 C359,447.1172 359,447.1172 374,447.1172 L384,447.1172 " fill="none" style="stroke:#181818;stroke-width:1.0;"/><rect fill="#F1F1F1" height="36.2969" rx="12.5" ry="12.5" style="stroke:#181818;stroke-width:1.5;" width="120" x="384" y="485.2656"/><text fill="#000000" font-family="sans-serif" font-size="14" lengthAdjust="spacing" textLength="100" x="394" y="508.2607">no protection</text><path d="M334,447.1172 L344,447.1172 C359,447.1172 359,503.4141 374,503.4141 L384,503.4141 " fill="none" style="stroke:#181818;stroke-width:1.0;"/><path d="M183,270.7813 L193,270.7813 C208,270.7813 208,447.1172 223,447.1172 L233,447.1172 " fill="none" style="stroke:#181818;stroke-width:1.0;"/><!--MD5=[4ebe85e7898b0e294467e085e04144bd]
@startmindmap
+ Single Address Space
++_ Address Mapping的一种方式，和下面的Virtual Memory对应
++ 顾名思义，将所有的硬件资源映射到单一的地址空间中
+++_ 硬件资源不局限内存
+++_ Single修饰的是Space
++ 映射的硬件资源：Memory and Peripherals
***:映射方式：share the same space, mapped to different parts
不同的硬件在同一地址空间中，占据不同部分;
+++_ Peripherals: 外设
++ All processes and OS share the same memory space
+++_ 共享地址空间带来的问题
+++ No memory protection
+++ Processes can stomp one another
+++ User space can stomp kernel
++ Limitations
+++ Portable C programs expect flat memory
+++ tricky management
+++ no protection
@endmindmap

PlantUML version 1.2022.4beta2(Unknown compile time)
(GPL source distribution)
Java Runtime: Java(TM) SE Runtime Environment
JVM: Java HotSpot(TM) 64-Bit Server VM
Default Encoding: UTF-8
Language: en
Country: US
--></g></svg>