<?xml version="1.0" encoding="UTF-8" standalone="no"?><svg xmlns="http://www.w3.org/2000/svg" xmlns:xlink="http://www.w3.org/1999/xlink" contentStyleType="text/css" height="521px" preserveAspectRatio="none" style="width:1496px;height:521px;background:#FFFFFF;" version="1.1" viewBox="0 0 1496 521" width="1496px" zoomAndPan="magnify"><defs/><g><rect fill="#F1F1F1" height="36.2969" rx="12.5" ry="12.5" style="stroke:#181818;stroke-width:1.5;" width="55" x="10" y="241.7813"/><text fill="#000000" font-family="sans-serif" font-size="14" lengthAdjust="spacing" textLength="35" x="20" y="264.7764">Page</text><rect fill="#F1F1F1" height="36.2969" rx="12.5" ry="12.5" style="stroke:#181818;stroke-width:1.5;" width="458" x="115" y="20"/><text fill="#000000" font-family="sans-serif" font-size="14" lengthAdjust="spacing" textLength="10" x="125" y="42.9951">A</text><text fill="#000000" font-family="sans-serif" font-size="14" font-weight="bold" lengthAdjust="spacing" textLength="39" x="139" y="42.9951">page</text><text fill="#000000" font-family="sans-serif" font-size="14" lengthAdjust="spacing" textLength="381" x="182" y="42.9951">is a unit of memory size and aligned at the page size.</text><path d="M65,259.9297 L75,259.9297 C90,259.9297 90,38.1484 105,38.1484 L115,38.1484 " fill="none" style="stroke:#181818;stroke-width:1.0;"/><rect fill="#F1F1F1" height="36.2969" rx="12.5" ry="12.5" style="stroke:#181818;stroke-width:1.5;" width="257" x="115" y="112.8906"/><text fill="#000000" font-family="sans-serif" font-size="14" font-weight="bold" lengthAdjust="spacing" textLength="76" x="125" y="135.8857">Page size</text><text fill="#000000" font-family="sans-serif" font-size="14" lengthAdjust="spacing" textLength="157" x="205" y="135.8857">varies by architecture</text><rect fill="#F1F1F1" height="36.2969" rx="12.5" ry="12.5" style="stroke:#181818;stroke-width:1.5;" width="478" x="422" y="76.2969"/><text fill="#000000" font-family="sans-serif" font-size="14" lengthAdjust="spacing" textLength="458" x="432" y="99.292">Some architectures have configurable page sizes (at build time)</text><path d="M372,131.0391 L382,131.0391 C397,131.0391 397,94.4453 412,94.4453 L422,94.4453 " fill="none" style="stroke:#181818;stroke-width:1.0;"/><rect fill="#F1F1F1" height="36.2969" rx="12.5" ry="12.5" style="stroke:#181818;stroke-width:1.5;" width="169" x="422" y="141.0391"/><text fill="#000000" font-family="sans-serif" font-size="14" lengthAdjust="spacing" textLength="149" x="432" y="164.0342">Common page sizes:</text><text fill="#000000" font-family="sans-serif" font-size="14" lengthAdjust="spacing" textLength="63" x="644" y="136.5889">ARM - 4k</text><path d="M591,159.1875 L601,159.1875 C616,159.1875 616,131.7422 631,131.7422 L641,131.7422 " fill="none" style="stroke:#181818;stroke-width:1.0;"/><text fill="#000000" font-family="sans-serif" font-size="14" lengthAdjust="spacing" textLength="129" x="644" y="154.8857">ARM64 - 4k or 64k</text><path d="M591,159.1875 L601,159.1875 C616,159.1875 616,150.0391 631,150.0391 L641,150.0391 " fill="none" style="stroke:#181818;stroke-width:1.0;"/><text fill="#000000" font-family="sans-serif" font-size="14" lengthAdjust="spacing" textLength="187" x="644" y="173.1826">MIPS - widely configurable</text><path d="M591,159.1875 L601,159.1875 C616,159.1875 616,168.3359 631,168.3359 L641,168.3359 " fill="none" style="stroke:#181818;stroke-width:1.0;"/><text fill="#000000" font-family="sans-serif" font-size="14" lengthAdjust="spacing" textLength="56" x="644" y="191.4795">x86 - 4k</text><path d="M591,159.1875 L601,159.1875 C616,159.1875 616,186.6328 631,186.6328 L641,186.6328 " fill="none" style="stroke:#181818;stroke-width:1.0;"/><path d="M372,131.0391 L382,131.0391 C397,131.0391 397,159.1875 412,159.1875 L422,159.1875 " fill="none" style="stroke:#181818;stroke-width:1.0;"/><path d="M65,259.9297 L75,259.9297 C90,259.9297 90,131.0391 105,131.0391 L115,131.0391 " fill="none" style="stroke:#181818;stroke-width:1.0;"/><rect fill="#F1F1F1" height="52.5938" rx="12.5" ry="12.5" style="stroke:#181818;stroke-width:1.5;" width="481" x="115" y="242.0781"/><text fill="#000000" font-family="sans-serif" font-size="14" lengthAdjust="spacing" textLength="10" x="125" y="265.0732">A</text><text fill="#000000" font-family="sans-serif" font-size="14" font-weight="bold" lengthAdjust="spacing" textLength="92" x="139" y="265.0732">page frame</text><text fill="#000000" font-family="sans-serif" font-size="14" lengthAdjust="spacing" textLength="74" x="231" y="265.0732">, or frame,</text><text fill="#000000" font-family="sans-serif" font-size="14" lengthAdjust="spacing" textLength="461" x="125" y="281.3701">refers to a page-sized and page-aligned physical memory block.</text><rect fill="#F1F1F1" height="36.2969" rx="12.5" ry="12.5" style="stroke:#181818;stroke-width:1.5;" width="322" x="646" y="250.2266"/><text fill="#000000" font-family="sans-serif" font-size="14" lengthAdjust="spacing" textLength="302" x="656" y="273.2217">Difference between page and page frame</text><rect fill="#F1F1F1" height="52.5938" rx="12.5" ry="12.5" style="stroke:#181818;stroke-width:1.5;" width="229" x="1018" y="205.7813"/><text fill="#000000" font-family="sans-serif" font-size="14" lengthAdjust="spacing" textLength="143" x="1028" y="228.7764">A page is somewhat</text><text fill="#000000" font-family="sans-serif" font-size="14" font-style="italic" lengthAdjust="spacing" textLength="58" x="1175" y="228.7764">abstract</text><text fill="#000000" font-family="sans-serif" font-size="14" lengthAdjust="spacing" textLength="4" x="1233" y="228.7764">,</text><text fill="#000000" font-family="sans-serif" font-size="14" lengthAdjust="spacing" textLength="118" x="1028" y="245.0732">where a frame is</text><text fill="#000000" font-family="sans-serif" font-size="14" font-style="italic" lengthAdjust="spacing" textLength="63" x="1150" y="245.0732">concrete</text><path d="M968,268.375 L978,268.375 C993,268.375 993,232.0781 1008,232.0781 L1018,232.0781 " fill="none" style="stroke:#181818;stroke-width:1.0;"/><rect fill="#F1F1F1" height="52.5938" rx="12.5" ry="12.5" style="stroke:#181818;stroke-width:1.5;" width="466" x="1018" y="278.375"/><text fill="#000000" font-family="sans-serif" font-size="14" lengthAdjust="spacing" textLength="221" x="1028" y="301.3701">In the kernel, the abbreviation</text><text fill="#000000" font-family="sans-serif" font-size="14" font-style="italic" font-weight="bold" lengthAdjust="spacing" textLength="26" x="1253" y="301.3701">pfn</text><text fill="#000000" font-family="sans-serif" font-size="14" lengthAdjust="spacing" textLength="29" x="1279" y="301.3701">, for</text><text fill="#000000" font-family="sans-serif" font-size="14" font-weight="bold" lengthAdjust="spacing" textLength="158" x="1312" y="301.3701">page frame number</text><text fill="#000000" font-family="sans-serif" font-size="14" lengthAdjust="spacing" textLength="4" x="1470" y="301.3701">,</text><text fill="#000000" font-family="sans-serif" font-size="14" lengthAdjust="spacing" textLength="393" x="1028" y="317.667">is often used to refer to refer to physical page frames.</text><path d="M968,268.375 L978,268.375 C993,268.375 993,304.6719 1008,304.6719 L1018,304.6719 " fill="none" style="stroke:#181818;stroke-width:1.0;"/><path d="M596,268.375 L606,268.375 C621,268.375 621,268.375 636,268.375 L646,268.375 " fill="none" style="stroke:#181818;stroke-width:1.0;"/><path d="M65,259.9297 L75,259.9297 C90,259.9297 90,268.375 105,268.375 L115,268.375 " fill="none" style="stroke:#181818;stroke-width:1.0;"/><rect fill="#F1F1F1" height="36.2969" rx="12.5" ry="12.5" style="stroke:#181818;stroke-width:1.5;" width="222" x="115" y="407.2656"/><text fill="#000000" font-family="sans-serif" font-size="14" lengthAdjust="spacing" textLength="202" x="125" y="430.2607">The MMU operates on pages</text><rect fill="#F1F1F1" height="36.2969" rx="12.5" ry="12.5" style="stroke:#181818;stroke-width:1.5;" width="416" x="387" y="350.9688"/><text fill="#000000" font-family="sans-serif" font-size="14" lengthAdjust="spacing" textLength="396" x="397" y="373.9639">a memory map for process will contain many mappings</text><path d="M337,425.4141 L347,425.4141 C362,425.4141 362,369.1172 377,369.1172 L387,369.1172 " fill="none" style="stroke:#181818;stroke-width:1.0;"/><rect fill="#F1F1F1" height="36.2969" rx="12.5" ry="12.5" style="stroke:#181818;stroke-width:1.5;" width="313" x="387" y="407.2656"/><text fill="#000000" font-family="sans-serif" font-size="14" lengthAdjust="spacing" textLength="293" x="397" y="430.2607">A mapping often convers multiple pages</text><path d="M337,425.4141 L347,425.4141 C362,425.4141 362,425.4141 377,425.4141 L387,425.4141 " fill="none" style="stroke:#181818;stroke-width:1.0;"/><rect fill="#F1F1F1" height="36.2969" rx="12.5" ry="12.5" style="stroke:#181818;stroke-width:1.5;" width="564" x="387" y="463.5625"/><text fill="#000000" font-family="sans-serif" font-size="14" lengthAdjust="spacing" textLength="544" x="397" y="486.5576">The TLB holds each mapping (Virtual address, Physical address, permissions)</text><path d="M337,425.4141 L347,425.4141 C362,425.4141 362,481.7109 377,481.7109 L387,481.7109 " fill="none" style="stroke:#181818;stroke-width:1.0;"/><path d="M65,259.9297 L75,259.9297 C90,259.9297 90,425.4141 105,425.4141 L115,425.4141 " fill="none" style="stroke:#181818;stroke-width:1.0;"/><!--MD5=[2cf1f853edb85268541b184454eabf38]
@startmindmap
+ Page
++ A **page** is a unit of memory size and aligned at the page size.
++ **Page size** varies by architecture
+++ Some architectures have configurable page sizes (at build time)
+++ Common page sizes:
++++_ ARM - 4k
++++_ ARM64 - 4k or 64k
++++_ MIPS - widely configurable
++++_ x86 - 4k
**:A **page frame**, or frame,
refers to a page-sized and page-aligned physical memory block.;
+++ Difference between page and page frame
****:A page is somewhat <i>abstract</i>,
where a frame is <i>concrete</i>;
****:In the kernel, the abbreviation <i><b>pfn</b></i>, for **page frame number**,
is often used to refer to refer to physical page frames.;
++ The MMU operates on pages
+++ a memory map for process will contain many mappings
+++ A mapping often convers multiple pages
+++ The TLB holds each mapping (Virtual address, Physical address, permissions)
@endmindmap

PlantUML version 1.2022.4beta2(Unknown compile time)
(GPL source distribution)
Java Runtime: Java(TM) SE Runtime Environment
JVM: Java HotSpot(TM) 64-Bit Server VM
Default Encoding: UTF-8
Language: en
Country: US
--></g></svg>